%TF.GenerationSoftware,KiCad,Pcbnew,9.0.4*%
%TF.CreationDate,2026-09-16T21:18:02+05:30*%
%TF.ProjectId,STMt1,53544d74-312e-46b6-9963-61645f706362,rev?*%
%TF.SameCoordinates,Original*%
%TF.FileFunction,Legend,Top*%
%TF.FilePolarity,Positive*%
%FSLAX46Y46*%
G04 Gerber Fmt 4.6, Leading zero omitted, Abs format (unit mm)*
G04 Created by KiCad (PCBNEW 9.0.4) date 2026-09-16 21:18:02*
%MOMM*%
%LPD*%
G01*
G04 APERTURE LIST*
%ADD10C,0.150000*%
%ADD11C,0.087500*%
%ADD12C,0.120000*%
%ADD13C,0.127000*%
%ADD14C,0.200000*%
G04 APERTURE END LIST*
D10*
X185166666Y-48431009D02*
X184833333Y-48431009D01*
X184833333Y-48954819D02*
X184833333Y-47954819D01*
X184833333Y-47954819D02*
X185309523Y-47954819D01*
X186214285Y-48954819D02*
X185642857Y-48954819D01*
X185928571Y-48954819D02*
X185928571Y-47954819D01*
X185928571Y-47954819D02*
X185833333Y-48097676D01*
X185833333Y-48097676D02*
X185738095Y-48192914D01*
X185738095Y-48192914D02*
X185642857Y-48240533D01*
X187024819Y-92491666D02*
X186548628Y-92824999D01*
X187024819Y-93063094D02*
X186024819Y-93063094D01*
X186024819Y-93063094D02*
X186024819Y-92682142D01*
X186024819Y-92682142D02*
X186072438Y-92586904D01*
X186072438Y-92586904D02*
X186120057Y-92539285D01*
X186120057Y-92539285D02*
X186215295Y-92491666D01*
X186215295Y-92491666D02*
X186358152Y-92491666D01*
X186358152Y-92491666D02*
X186453390Y-92539285D01*
X186453390Y-92539285D02*
X186501009Y-92586904D01*
X186501009Y-92586904D02*
X186548628Y-92682142D01*
X186548628Y-92682142D02*
X186548628Y-93063094D01*
X186024819Y-91634523D02*
X186024819Y-91824999D01*
X186024819Y-91824999D02*
X186072438Y-91920237D01*
X186072438Y-91920237D02*
X186120057Y-91967856D01*
X186120057Y-91967856D02*
X186262914Y-92063094D01*
X186262914Y-92063094D02*
X186453390Y-92110713D01*
X186453390Y-92110713D02*
X186834342Y-92110713D01*
X186834342Y-92110713D02*
X186929580Y-92063094D01*
X186929580Y-92063094D02*
X186977200Y-92015475D01*
X186977200Y-92015475D02*
X187024819Y-91920237D01*
X187024819Y-91920237D02*
X187024819Y-91729761D01*
X187024819Y-91729761D02*
X186977200Y-91634523D01*
X186977200Y-91634523D02*
X186929580Y-91586904D01*
X186929580Y-91586904D02*
X186834342Y-91539285D01*
X186834342Y-91539285D02*
X186596247Y-91539285D01*
X186596247Y-91539285D02*
X186501009Y-91586904D01*
X186501009Y-91586904D02*
X186453390Y-91634523D01*
X186453390Y-91634523D02*
X186405771Y-91729761D01*
X186405771Y-91729761D02*
X186405771Y-91920237D01*
X186405771Y-91920237D02*
X186453390Y-92015475D01*
X186453390Y-92015475D02*
X186501009Y-92063094D01*
X186501009Y-92063094D02*
X186596247Y-92110713D01*
X233833333Y-88359580D02*
X233785714Y-88407200D01*
X233785714Y-88407200D02*
X233642857Y-88454819D01*
X233642857Y-88454819D02*
X233547619Y-88454819D01*
X233547619Y-88454819D02*
X233404762Y-88407200D01*
X233404762Y-88407200D02*
X233309524Y-88311961D01*
X233309524Y-88311961D02*
X233261905Y-88216723D01*
X233261905Y-88216723D02*
X233214286Y-88026247D01*
X233214286Y-88026247D02*
X233214286Y-87883390D01*
X233214286Y-87883390D02*
X233261905Y-87692914D01*
X233261905Y-87692914D02*
X233309524Y-87597676D01*
X233309524Y-87597676D02*
X233404762Y-87502438D01*
X233404762Y-87502438D02*
X233547619Y-87454819D01*
X233547619Y-87454819D02*
X233642857Y-87454819D01*
X233642857Y-87454819D02*
X233785714Y-87502438D01*
X233785714Y-87502438D02*
X233833333Y-87550057D01*
X234738095Y-87454819D02*
X234261905Y-87454819D01*
X234261905Y-87454819D02*
X234214286Y-87931009D01*
X234214286Y-87931009D02*
X234261905Y-87883390D01*
X234261905Y-87883390D02*
X234357143Y-87835771D01*
X234357143Y-87835771D02*
X234595238Y-87835771D01*
X234595238Y-87835771D02*
X234690476Y-87883390D01*
X234690476Y-87883390D02*
X234738095Y-87931009D01*
X234738095Y-87931009D02*
X234785714Y-88026247D01*
X234785714Y-88026247D02*
X234785714Y-88264342D01*
X234785714Y-88264342D02*
X234738095Y-88359580D01*
X234738095Y-88359580D02*
X234690476Y-88407200D01*
X234690476Y-88407200D02*
X234595238Y-88454819D01*
X234595238Y-88454819D02*
X234357143Y-88454819D01*
X234357143Y-88454819D02*
X234261905Y-88407200D01*
X234261905Y-88407200D02*
X234214286Y-88359580D01*
X217333333Y-87859580D02*
X217285714Y-87907200D01*
X217285714Y-87907200D02*
X217142857Y-87954819D01*
X217142857Y-87954819D02*
X217047619Y-87954819D01*
X217047619Y-87954819D02*
X216904762Y-87907200D01*
X216904762Y-87907200D02*
X216809524Y-87811961D01*
X216809524Y-87811961D02*
X216761905Y-87716723D01*
X216761905Y-87716723D02*
X216714286Y-87526247D01*
X216714286Y-87526247D02*
X216714286Y-87383390D01*
X216714286Y-87383390D02*
X216761905Y-87192914D01*
X216761905Y-87192914D02*
X216809524Y-87097676D01*
X216809524Y-87097676D02*
X216904762Y-87002438D01*
X216904762Y-87002438D02*
X217047619Y-86954819D01*
X217047619Y-86954819D02*
X217142857Y-86954819D01*
X217142857Y-86954819D02*
X217285714Y-87002438D01*
X217285714Y-87002438D02*
X217333333Y-87050057D01*
X218190476Y-87288152D02*
X218190476Y-87954819D01*
X217952381Y-86907200D02*
X217714286Y-87621485D01*
X217714286Y-87621485D02*
X218333333Y-87621485D01*
X190666667Y-86407200D02*
X190809524Y-86454819D01*
X190809524Y-86454819D02*
X191047619Y-86454819D01*
X191047619Y-86454819D02*
X191142857Y-86407200D01*
X191142857Y-86407200D02*
X191190476Y-86359580D01*
X191190476Y-86359580D02*
X191238095Y-86264342D01*
X191238095Y-86264342D02*
X191238095Y-86169104D01*
X191238095Y-86169104D02*
X191190476Y-86073866D01*
X191190476Y-86073866D02*
X191142857Y-86026247D01*
X191142857Y-86026247D02*
X191047619Y-85978628D01*
X191047619Y-85978628D02*
X190857143Y-85931009D01*
X190857143Y-85931009D02*
X190761905Y-85883390D01*
X190761905Y-85883390D02*
X190714286Y-85835771D01*
X190714286Y-85835771D02*
X190666667Y-85740533D01*
X190666667Y-85740533D02*
X190666667Y-85645295D01*
X190666667Y-85645295D02*
X190714286Y-85550057D01*
X190714286Y-85550057D02*
X190761905Y-85502438D01*
X190761905Y-85502438D02*
X190857143Y-85454819D01*
X190857143Y-85454819D02*
X191095238Y-85454819D01*
X191095238Y-85454819D02*
X191238095Y-85502438D01*
X191571429Y-85454819D02*
X191809524Y-86454819D01*
X191809524Y-86454819D02*
X192000000Y-85740533D01*
X192000000Y-85740533D02*
X192190476Y-86454819D01*
X192190476Y-86454819D02*
X192428572Y-85454819D01*
X192761905Y-85550057D02*
X192809524Y-85502438D01*
X192809524Y-85502438D02*
X192904762Y-85454819D01*
X192904762Y-85454819D02*
X193142857Y-85454819D01*
X193142857Y-85454819D02*
X193238095Y-85502438D01*
X193238095Y-85502438D02*
X193285714Y-85550057D01*
X193285714Y-85550057D02*
X193333333Y-85645295D01*
X193333333Y-85645295D02*
X193333333Y-85740533D01*
X193333333Y-85740533D02*
X193285714Y-85883390D01*
X193285714Y-85883390D02*
X192714286Y-86454819D01*
X192714286Y-86454819D02*
X193333333Y-86454819D01*
X185454819Y-68238094D02*
X184454819Y-68238094D01*
X184454819Y-68238094D02*
X184454819Y-67999999D01*
X184454819Y-67999999D02*
X184502438Y-67857142D01*
X184502438Y-67857142D02*
X184597676Y-67761904D01*
X184597676Y-67761904D02*
X184692914Y-67714285D01*
X184692914Y-67714285D02*
X184883390Y-67666666D01*
X184883390Y-67666666D02*
X185026247Y-67666666D01*
X185026247Y-67666666D02*
X185216723Y-67714285D01*
X185216723Y-67714285D02*
X185311961Y-67761904D01*
X185311961Y-67761904D02*
X185407200Y-67857142D01*
X185407200Y-67857142D02*
X185454819Y-67999999D01*
X185454819Y-67999999D02*
X185454819Y-68238094D01*
X185454819Y-66714285D02*
X185454819Y-67285713D01*
X185454819Y-66999999D02*
X184454819Y-66999999D01*
X184454819Y-66999999D02*
X184597676Y-67095237D01*
X184597676Y-67095237D02*
X184692914Y-67190475D01*
X184692914Y-67190475D02*
X184740533Y-67285713D01*
X185954819Y-76166666D02*
X185478628Y-76499999D01*
X185954819Y-76738094D02*
X184954819Y-76738094D01*
X184954819Y-76738094D02*
X184954819Y-76357142D01*
X184954819Y-76357142D02*
X185002438Y-76261904D01*
X185002438Y-76261904D02*
X185050057Y-76214285D01*
X185050057Y-76214285D02*
X185145295Y-76166666D01*
X185145295Y-76166666D02*
X185288152Y-76166666D01*
X185288152Y-76166666D02*
X185383390Y-76214285D01*
X185383390Y-76214285D02*
X185431009Y-76261904D01*
X185431009Y-76261904D02*
X185478628Y-76357142D01*
X185478628Y-76357142D02*
X185478628Y-76738094D01*
X184954819Y-75833332D02*
X184954819Y-75166666D01*
X184954819Y-75166666D02*
X185954819Y-75595237D01*
X205357142Y-72289580D02*
X205309523Y-72337200D01*
X205309523Y-72337200D02*
X205166666Y-72384819D01*
X205166666Y-72384819D02*
X205071428Y-72384819D01*
X205071428Y-72384819D02*
X204928571Y-72337200D01*
X204928571Y-72337200D02*
X204833333Y-72241961D01*
X204833333Y-72241961D02*
X204785714Y-72146723D01*
X204785714Y-72146723D02*
X204738095Y-71956247D01*
X204738095Y-71956247D02*
X204738095Y-71813390D01*
X204738095Y-71813390D02*
X204785714Y-71622914D01*
X204785714Y-71622914D02*
X204833333Y-71527676D01*
X204833333Y-71527676D02*
X204928571Y-71432438D01*
X204928571Y-71432438D02*
X205071428Y-71384819D01*
X205071428Y-71384819D02*
X205166666Y-71384819D01*
X205166666Y-71384819D02*
X205309523Y-71432438D01*
X205309523Y-71432438D02*
X205357142Y-71480057D01*
X206309523Y-72384819D02*
X205738095Y-72384819D01*
X206023809Y-72384819D02*
X206023809Y-71384819D01*
X206023809Y-71384819D02*
X205928571Y-71527676D01*
X205928571Y-71527676D02*
X205833333Y-71622914D01*
X205833333Y-71622914D02*
X205738095Y-71670533D01*
X206642857Y-71384819D02*
X207261904Y-71384819D01*
X207261904Y-71384819D02*
X206928571Y-71765771D01*
X206928571Y-71765771D02*
X207071428Y-71765771D01*
X207071428Y-71765771D02*
X207166666Y-71813390D01*
X207166666Y-71813390D02*
X207214285Y-71861009D01*
X207214285Y-71861009D02*
X207261904Y-71956247D01*
X207261904Y-71956247D02*
X207261904Y-72194342D01*
X207261904Y-72194342D02*
X207214285Y-72289580D01*
X207214285Y-72289580D02*
X207166666Y-72337200D01*
X207166666Y-72337200D02*
X207071428Y-72384819D01*
X207071428Y-72384819D02*
X206785714Y-72384819D01*
X206785714Y-72384819D02*
X206690476Y-72337200D01*
X206690476Y-72337200D02*
X206642857Y-72289580D01*
X208857142Y-80359580D02*
X208809523Y-80407200D01*
X208809523Y-80407200D02*
X208666666Y-80454819D01*
X208666666Y-80454819D02*
X208571428Y-80454819D01*
X208571428Y-80454819D02*
X208428571Y-80407200D01*
X208428571Y-80407200D02*
X208333333Y-80311961D01*
X208333333Y-80311961D02*
X208285714Y-80216723D01*
X208285714Y-80216723D02*
X208238095Y-80026247D01*
X208238095Y-80026247D02*
X208238095Y-79883390D01*
X208238095Y-79883390D02*
X208285714Y-79692914D01*
X208285714Y-79692914D02*
X208333333Y-79597676D01*
X208333333Y-79597676D02*
X208428571Y-79502438D01*
X208428571Y-79502438D02*
X208571428Y-79454819D01*
X208571428Y-79454819D02*
X208666666Y-79454819D01*
X208666666Y-79454819D02*
X208809523Y-79502438D01*
X208809523Y-79502438D02*
X208857142Y-79550057D01*
X209809523Y-80454819D02*
X209238095Y-80454819D01*
X209523809Y-80454819D02*
X209523809Y-79454819D01*
X209523809Y-79454819D02*
X209428571Y-79597676D01*
X209428571Y-79597676D02*
X209333333Y-79692914D01*
X209333333Y-79692914D02*
X209238095Y-79740533D01*
X210714285Y-79454819D02*
X210238095Y-79454819D01*
X210238095Y-79454819D02*
X210190476Y-79931009D01*
X210190476Y-79931009D02*
X210238095Y-79883390D01*
X210238095Y-79883390D02*
X210333333Y-79835771D01*
X210333333Y-79835771D02*
X210571428Y-79835771D01*
X210571428Y-79835771D02*
X210666666Y-79883390D01*
X210666666Y-79883390D02*
X210714285Y-79931009D01*
X210714285Y-79931009D02*
X210761904Y-80026247D01*
X210761904Y-80026247D02*
X210761904Y-80264342D01*
X210761904Y-80264342D02*
X210714285Y-80359580D01*
X210714285Y-80359580D02*
X210666666Y-80407200D01*
X210666666Y-80407200D02*
X210571428Y-80454819D01*
X210571428Y-80454819D02*
X210333333Y-80454819D01*
X210333333Y-80454819D02*
X210238095Y-80407200D01*
X210238095Y-80407200D02*
X210190476Y-80359580D01*
X215359580Y-78166666D02*
X215407200Y-78214285D01*
X215407200Y-78214285D02*
X215454819Y-78357142D01*
X215454819Y-78357142D02*
X215454819Y-78452380D01*
X215454819Y-78452380D02*
X215407200Y-78595237D01*
X215407200Y-78595237D02*
X215311961Y-78690475D01*
X215311961Y-78690475D02*
X215216723Y-78738094D01*
X215216723Y-78738094D02*
X215026247Y-78785713D01*
X215026247Y-78785713D02*
X214883390Y-78785713D01*
X214883390Y-78785713D02*
X214692914Y-78738094D01*
X214692914Y-78738094D02*
X214597676Y-78690475D01*
X214597676Y-78690475D02*
X214502438Y-78595237D01*
X214502438Y-78595237D02*
X214454819Y-78452380D01*
X214454819Y-78452380D02*
X214454819Y-78357142D01*
X214454819Y-78357142D02*
X214502438Y-78214285D01*
X214502438Y-78214285D02*
X214550057Y-78166666D01*
X215454819Y-77690475D02*
X215454819Y-77499999D01*
X215454819Y-77499999D02*
X215407200Y-77404761D01*
X215407200Y-77404761D02*
X215359580Y-77357142D01*
X215359580Y-77357142D02*
X215216723Y-77261904D01*
X215216723Y-77261904D02*
X215026247Y-77214285D01*
X215026247Y-77214285D02*
X214645295Y-77214285D01*
X214645295Y-77214285D02*
X214550057Y-77261904D01*
X214550057Y-77261904D02*
X214502438Y-77309523D01*
X214502438Y-77309523D02*
X214454819Y-77404761D01*
X214454819Y-77404761D02*
X214454819Y-77595237D01*
X214454819Y-77595237D02*
X214502438Y-77690475D01*
X214502438Y-77690475D02*
X214550057Y-77738094D01*
X214550057Y-77738094D02*
X214645295Y-77785713D01*
X214645295Y-77785713D02*
X214883390Y-77785713D01*
X214883390Y-77785713D02*
X214978628Y-77738094D01*
X214978628Y-77738094D02*
X215026247Y-77690475D01*
X215026247Y-77690475D02*
X215073866Y-77595237D01*
X215073866Y-77595237D02*
X215073866Y-77404761D01*
X215073866Y-77404761D02*
X215026247Y-77309523D01*
X215026247Y-77309523D02*
X214978628Y-77261904D01*
X214978628Y-77261904D02*
X214883390Y-77214285D01*
X191333333Y-76359580D02*
X191285714Y-76407200D01*
X191285714Y-76407200D02*
X191142857Y-76454819D01*
X191142857Y-76454819D02*
X191047619Y-76454819D01*
X191047619Y-76454819D02*
X190904762Y-76407200D01*
X190904762Y-76407200D02*
X190809524Y-76311961D01*
X190809524Y-76311961D02*
X190761905Y-76216723D01*
X190761905Y-76216723D02*
X190714286Y-76026247D01*
X190714286Y-76026247D02*
X190714286Y-75883390D01*
X190714286Y-75883390D02*
X190761905Y-75692914D01*
X190761905Y-75692914D02*
X190809524Y-75597676D01*
X190809524Y-75597676D02*
X190904762Y-75502438D01*
X190904762Y-75502438D02*
X191047619Y-75454819D01*
X191047619Y-75454819D02*
X191142857Y-75454819D01*
X191142857Y-75454819D02*
X191285714Y-75502438D01*
X191285714Y-75502438D02*
X191333333Y-75550057D01*
X192285714Y-76454819D02*
X191714286Y-76454819D01*
X192000000Y-76454819D02*
X192000000Y-75454819D01*
X192000000Y-75454819D02*
X191904762Y-75597676D01*
X191904762Y-75597676D02*
X191809524Y-75692914D01*
X191809524Y-75692914D02*
X191714286Y-75740533D01*
X209333333Y-49024819D02*
X209000000Y-48548628D01*
X208761905Y-49024819D02*
X208761905Y-48024819D01*
X208761905Y-48024819D02*
X209142857Y-48024819D01*
X209142857Y-48024819D02*
X209238095Y-48072438D01*
X209238095Y-48072438D02*
X209285714Y-48120057D01*
X209285714Y-48120057D02*
X209333333Y-48215295D01*
X209333333Y-48215295D02*
X209333333Y-48358152D01*
X209333333Y-48358152D02*
X209285714Y-48453390D01*
X209285714Y-48453390D02*
X209238095Y-48501009D01*
X209238095Y-48501009D02*
X209142857Y-48548628D01*
X209142857Y-48548628D02*
X208761905Y-48548628D01*
X209904762Y-48453390D02*
X209809524Y-48405771D01*
X209809524Y-48405771D02*
X209761905Y-48358152D01*
X209761905Y-48358152D02*
X209714286Y-48262914D01*
X209714286Y-48262914D02*
X209714286Y-48215295D01*
X209714286Y-48215295D02*
X209761905Y-48120057D01*
X209761905Y-48120057D02*
X209809524Y-48072438D01*
X209809524Y-48072438D02*
X209904762Y-48024819D01*
X209904762Y-48024819D02*
X210095238Y-48024819D01*
X210095238Y-48024819D02*
X210190476Y-48072438D01*
X210190476Y-48072438D02*
X210238095Y-48120057D01*
X210238095Y-48120057D02*
X210285714Y-48215295D01*
X210285714Y-48215295D02*
X210285714Y-48262914D01*
X210285714Y-48262914D02*
X210238095Y-48358152D01*
X210238095Y-48358152D02*
X210190476Y-48405771D01*
X210190476Y-48405771D02*
X210095238Y-48453390D01*
X210095238Y-48453390D02*
X209904762Y-48453390D01*
X209904762Y-48453390D02*
X209809524Y-48501009D01*
X209809524Y-48501009D02*
X209761905Y-48548628D01*
X209761905Y-48548628D02*
X209714286Y-48643866D01*
X209714286Y-48643866D02*
X209714286Y-48834342D01*
X209714286Y-48834342D02*
X209761905Y-48929580D01*
X209761905Y-48929580D02*
X209809524Y-48977200D01*
X209809524Y-48977200D02*
X209904762Y-49024819D01*
X209904762Y-49024819D02*
X210095238Y-49024819D01*
X210095238Y-49024819D02*
X210190476Y-48977200D01*
X210190476Y-48977200D02*
X210238095Y-48929580D01*
X210238095Y-48929580D02*
X210285714Y-48834342D01*
X210285714Y-48834342D02*
X210285714Y-48643866D01*
X210285714Y-48643866D02*
X210238095Y-48548628D01*
X210238095Y-48548628D02*
X210190476Y-48501009D01*
X210190476Y-48501009D02*
X210095238Y-48453390D01*
X195761905Y-99954819D02*
X195761905Y-98954819D01*
X195761905Y-98954819D02*
X196000000Y-98954819D01*
X196000000Y-98954819D02*
X196142857Y-99002438D01*
X196142857Y-99002438D02*
X196238095Y-99097676D01*
X196238095Y-99097676D02*
X196285714Y-99192914D01*
X196285714Y-99192914D02*
X196333333Y-99383390D01*
X196333333Y-99383390D02*
X196333333Y-99526247D01*
X196333333Y-99526247D02*
X196285714Y-99716723D01*
X196285714Y-99716723D02*
X196238095Y-99811961D01*
X196238095Y-99811961D02*
X196142857Y-99907200D01*
X196142857Y-99907200D02*
X196000000Y-99954819D01*
X196000000Y-99954819D02*
X195761905Y-99954819D01*
X196714286Y-99050057D02*
X196761905Y-99002438D01*
X196761905Y-99002438D02*
X196857143Y-98954819D01*
X196857143Y-98954819D02*
X197095238Y-98954819D01*
X197095238Y-98954819D02*
X197190476Y-99002438D01*
X197190476Y-99002438D02*
X197238095Y-99050057D01*
X197238095Y-99050057D02*
X197285714Y-99145295D01*
X197285714Y-99145295D02*
X197285714Y-99240533D01*
X197285714Y-99240533D02*
X197238095Y-99383390D01*
X197238095Y-99383390D02*
X196666667Y-99954819D01*
X196666667Y-99954819D02*
X197285714Y-99954819D01*
X197857143Y-42454819D02*
X197857143Y-43264342D01*
X197857143Y-43264342D02*
X197904762Y-43359580D01*
X197904762Y-43359580D02*
X197952381Y-43407200D01*
X197952381Y-43407200D02*
X198047619Y-43454819D01*
X198047619Y-43454819D02*
X198238095Y-43454819D01*
X198238095Y-43454819D02*
X198333333Y-43407200D01*
X198333333Y-43407200D02*
X198380952Y-43359580D01*
X198380952Y-43359580D02*
X198428571Y-43264342D01*
X198428571Y-43264342D02*
X198428571Y-42454819D01*
X198857143Y-43407200D02*
X199000000Y-43454819D01*
X199000000Y-43454819D02*
X199238095Y-43454819D01*
X199238095Y-43454819D02*
X199333333Y-43407200D01*
X199333333Y-43407200D02*
X199380952Y-43359580D01*
X199380952Y-43359580D02*
X199428571Y-43264342D01*
X199428571Y-43264342D02*
X199428571Y-43169104D01*
X199428571Y-43169104D02*
X199380952Y-43073866D01*
X199380952Y-43073866D02*
X199333333Y-43026247D01*
X199333333Y-43026247D02*
X199238095Y-42978628D01*
X199238095Y-42978628D02*
X199047619Y-42931009D01*
X199047619Y-42931009D02*
X198952381Y-42883390D01*
X198952381Y-42883390D02*
X198904762Y-42835771D01*
X198904762Y-42835771D02*
X198857143Y-42740533D01*
X198857143Y-42740533D02*
X198857143Y-42645295D01*
X198857143Y-42645295D02*
X198904762Y-42550057D01*
X198904762Y-42550057D02*
X198952381Y-42502438D01*
X198952381Y-42502438D02*
X199047619Y-42454819D01*
X199047619Y-42454819D02*
X199285714Y-42454819D01*
X199285714Y-42454819D02*
X199428571Y-42502438D01*
X200190476Y-42931009D02*
X200333333Y-42978628D01*
X200333333Y-42978628D02*
X200380952Y-43026247D01*
X200380952Y-43026247D02*
X200428571Y-43121485D01*
X200428571Y-43121485D02*
X200428571Y-43264342D01*
X200428571Y-43264342D02*
X200380952Y-43359580D01*
X200380952Y-43359580D02*
X200333333Y-43407200D01*
X200333333Y-43407200D02*
X200238095Y-43454819D01*
X200238095Y-43454819D02*
X199857143Y-43454819D01*
X199857143Y-43454819D02*
X199857143Y-42454819D01*
X199857143Y-42454819D02*
X200190476Y-42454819D01*
X200190476Y-42454819D02*
X200285714Y-42502438D01*
X200285714Y-42502438D02*
X200333333Y-42550057D01*
X200333333Y-42550057D02*
X200380952Y-42645295D01*
X200380952Y-42645295D02*
X200380952Y-42740533D01*
X200380952Y-42740533D02*
X200333333Y-42835771D01*
X200333333Y-42835771D02*
X200285714Y-42883390D01*
X200285714Y-42883390D02*
X200190476Y-42931009D01*
X200190476Y-42931009D02*
X199857143Y-42931009D01*
X200619048Y-43550057D02*
X201380952Y-43550057D01*
X202190476Y-43359580D02*
X202142857Y-43407200D01*
X202142857Y-43407200D02*
X202000000Y-43454819D01*
X202000000Y-43454819D02*
X201904762Y-43454819D01*
X201904762Y-43454819D02*
X201761905Y-43407200D01*
X201761905Y-43407200D02*
X201666667Y-43311961D01*
X201666667Y-43311961D02*
X201619048Y-43216723D01*
X201619048Y-43216723D02*
X201571429Y-43026247D01*
X201571429Y-43026247D02*
X201571429Y-42883390D01*
X201571429Y-42883390D02*
X201619048Y-42692914D01*
X201619048Y-42692914D02*
X201666667Y-42597676D01*
X201666667Y-42597676D02*
X201761905Y-42502438D01*
X201761905Y-42502438D02*
X201904762Y-42454819D01*
X201904762Y-42454819D02*
X202000000Y-42454819D01*
X202000000Y-42454819D02*
X202142857Y-42502438D01*
X202142857Y-42502438D02*
X202190476Y-42550057D01*
X250166666Y-67564819D02*
X250166666Y-68279104D01*
X250166666Y-68279104D02*
X250119047Y-68421961D01*
X250119047Y-68421961D02*
X250023809Y-68517200D01*
X250023809Y-68517200D02*
X249880952Y-68564819D01*
X249880952Y-68564819D02*
X249785714Y-68564819D01*
X251071428Y-67564819D02*
X250880952Y-67564819D01*
X250880952Y-67564819D02*
X250785714Y-67612438D01*
X250785714Y-67612438D02*
X250738095Y-67660057D01*
X250738095Y-67660057D02*
X250642857Y-67802914D01*
X250642857Y-67802914D02*
X250595238Y-67993390D01*
X250595238Y-67993390D02*
X250595238Y-68374342D01*
X250595238Y-68374342D02*
X250642857Y-68469580D01*
X250642857Y-68469580D02*
X250690476Y-68517200D01*
X250690476Y-68517200D02*
X250785714Y-68564819D01*
X250785714Y-68564819D02*
X250976190Y-68564819D01*
X250976190Y-68564819D02*
X251071428Y-68517200D01*
X251071428Y-68517200D02*
X251119047Y-68469580D01*
X251119047Y-68469580D02*
X251166666Y-68374342D01*
X251166666Y-68374342D02*
X251166666Y-68136247D01*
X251166666Y-68136247D02*
X251119047Y-68041009D01*
X251119047Y-68041009D02*
X251071428Y-67993390D01*
X251071428Y-67993390D02*
X250976190Y-67945771D01*
X250976190Y-67945771D02*
X250785714Y-67945771D01*
X250785714Y-67945771D02*
X250690476Y-67993390D01*
X250690476Y-67993390D02*
X250642857Y-68041009D01*
X250642857Y-68041009D02*
X250595238Y-68136247D01*
X186266666Y-46116033D02*
X186266666Y-46616033D01*
X186266666Y-46616033D02*
X186233333Y-46716033D01*
X186233333Y-46716033D02*
X186166666Y-46782700D01*
X186166666Y-46782700D02*
X186066666Y-46816033D01*
X186066666Y-46816033D02*
X186000000Y-46816033D01*
X186899999Y-46349366D02*
X186899999Y-46816033D01*
X186733333Y-46082700D02*
X186566666Y-46582700D01*
X186566666Y-46582700D02*
X186999999Y-46582700D01*
X214857142Y-51859580D02*
X214809523Y-51907200D01*
X214809523Y-51907200D02*
X214666666Y-51954819D01*
X214666666Y-51954819D02*
X214571428Y-51954819D01*
X214571428Y-51954819D02*
X214428571Y-51907200D01*
X214428571Y-51907200D02*
X214333333Y-51811961D01*
X214333333Y-51811961D02*
X214285714Y-51716723D01*
X214285714Y-51716723D02*
X214238095Y-51526247D01*
X214238095Y-51526247D02*
X214238095Y-51383390D01*
X214238095Y-51383390D02*
X214285714Y-51192914D01*
X214285714Y-51192914D02*
X214333333Y-51097676D01*
X214333333Y-51097676D02*
X214428571Y-51002438D01*
X214428571Y-51002438D02*
X214571428Y-50954819D01*
X214571428Y-50954819D02*
X214666666Y-50954819D01*
X214666666Y-50954819D02*
X214809523Y-51002438D01*
X214809523Y-51002438D02*
X214857142Y-51050057D01*
X215809523Y-51954819D02*
X215238095Y-51954819D01*
X215523809Y-51954819D02*
X215523809Y-50954819D01*
X215523809Y-50954819D02*
X215428571Y-51097676D01*
X215428571Y-51097676D02*
X215333333Y-51192914D01*
X215333333Y-51192914D02*
X215238095Y-51240533D01*
X216761904Y-51954819D02*
X216190476Y-51954819D01*
X216476190Y-51954819D02*
X216476190Y-50954819D01*
X216476190Y-50954819D02*
X216380952Y-51097676D01*
X216380952Y-51097676D02*
X216285714Y-51192914D01*
X216285714Y-51192914D02*
X216190476Y-51240533D01*
X211357142Y-68954819D02*
X211023809Y-68478628D01*
X210785714Y-68954819D02*
X210785714Y-67954819D01*
X210785714Y-67954819D02*
X211166666Y-67954819D01*
X211166666Y-67954819D02*
X211261904Y-68002438D01*
X211261904Y-68002438D02*
X211309523Y-68050057D01*
X211309523Y-68050057D02*
X211357142Y-68145295D01*
X211357142Y-68145295D02*
X211357142Y-68288152D01*
X211357142Y-68288152D02*
X211309523Y-68383390D01*
X211309523Y-68383390D02*
X211261904Y-68431009D01*
X211261904Y-68431009D02*
X211166666Y-68478628D01*
X211166666Y-68478628D02*
X210785714Y-68478628D01*
X212309523Y-68954819D02*
X211738095Y-68954819D01*
X212023809Y-68954819D02*
X212023809Y-67954819D01*
X212023809Y-67954819D02*
X211928571Y-68097676D01*
X211928571Y-68097676D02*
X211833333Y-68192914D01*
X211833333Y-68192914D02*
X211738095Y-68240533D01*
X213261904Y-68954819D02*
X212690476Y-68954819D01*
X212976190Y-68954819D02*
X212976190Y-67954819D01*
X212976190Y-67954819D02*
X212880952Y-68097676D01*
X212880952Y-68097676D02*
X212785714Y-68192914D01*
X212785714Y-68192914D02*
X212690476Y-68240533D01*
X221666666Y-94954819D02*
X221666666Y-95669104D01*
X221666666Y-95669104D02*
X221619047Y-95811961D01*
X221619047Y-95811961D02*
X221523809Y-95907200D01*
X221523809Y-95907200D02*
X221380952Y-95954819D01*
X221380952Y-95954819D02*
X221285714Y-95954819D01*
X222095238Y-95050057D02*
X222142857Y-95002438D01*
X222142857Y-95002438D02*
X222238095Y-94954819D01*
X222238095Y-94954819D02*
X222476190Y-94954819D01*
X222476190Y-94954819D02*
X222571428Y-95002438D01*
X222571428Y-95002438D02*
X222619047Y-95050057D01*
X222619047Y-95050057D02*
X222666666Y-95145295D01*
X222666666Y-95145295D02*
X222666666Y-95240533D01*
X222666666Y-95240533D02*
X222619047Y-95383390D01*
X222619047Y-95383390D02*
X222047619Y-95954819D01*
X222047619Y-95954819D02*
X222666666Y-95954819D01*
X187954819Y-64761904D02*
X188764342Y-64761904D01*
X188764342Y-64761904D02*
X188859580Y-64714285D01*
X188859580Y-64714285D02*
X188907200Y-64666666D01*
X188907200Y-64666666D02*
X188954819Y-64571428D01*
X188954819Y-64571428D02*
X188954819Y-64380952D01*
X188954819Y-64380952D02*
X188907200Y-64285714D01*
X188907200Y-64285714D02*
X188859580Y-64238095D01*
X188859580Y-64238095D02*
X188764342Y-64190476D01*
X188764342Y-64190476D02*
X187954819Y-64190476D01*
X188050057Y-63761904D02*
X188002438Y-63714285D01*
X188002438Y-63714285D02*
X187954819Y-63619047D01*
X187954819Y-63619047D02*
X187954819Y-63380952D01*
X187954819Y-63380952D02*
X188002438Y-63285714D01*
X188002438Y-63285714D02*
X188050057Y-63238095D01*
X188050057Y-63238095D02*
X188145295Y-63190476D01*
X188145295Y-63190476D02*
X188240533Y-63190476D01*
X188240533Y-63190476D02*
X188383390Y-63238095D01*
X188383390Y-63238095D02*
X188954819Y-63809523D01*
X188954819Y-63809523D02*
X188954819Y-63190476D01*
X198012380Y-51148276D02*
X198012380Y-51666371D01*
X198012380Y-51666371D02*
X198042857Y-51727323D01*
X198042857Y-51727323D02*
X198073333Y-51757800D01*
X198073333Y-51757800D02*
X198134285Y-51788276D01*
X198134285Y-51788276D02*
X198256190Y-51788276D01*
X198256190Y-51788276D02*
X198317142Y-51757800D01*
X198317142Y-51757800D02*
X198347619Y-51727323D01*
X198347619Y-51727323D02*
X198378095Y-51666371D01*
X198378095Y-51666371D02*
X198378095Y-51148276D01*
X198957142Y-51361609D02*
X198957142Y-51788276D01*
X198804761Y-51117800D02*
X198652380Y-51574942D01*
X198652380Y-51574942D02*
X199048571Y-51574942D01*
X231516666Y-43954819D02*
X231516666Y-44669104D01*
X231516666Y-44669104D02*
X231469047Y-44811961D01*
X231469047Y-44811961D02*
X231373809Y-44907200D01*
X231373809Y-44907200D02*
X231230952Y-44954819D01*
X231230952Y-44954819D02*
X231135714Y-44954819D01*
X231897619Y-43954819D02*
X232516666Y-43954819D01*
X232516666Y-43954819D02*
X232183333Y-44335771D01*
X232183333Y-44335771D02*
X232326190Y-44335771D01*
X232326190Y-44335771D02*
X232421428Y-44383390D01*
X232421428Y-44383390D02*
X232469047Y-44431009D01*
X232469047Y-44431009D02*
X232516666Y-44526247D01*
X232516666Y-44526247D02*
X232516666Y-44764342D01*
X232516666Y-44764342D02*
X232469047Y-44859580D01*
X232469047Y-44859580D02*
X232421428Y-44907200D01*
X232421428Y-44907200D02*
X232326190Y-44954819D01*
X232326190Y-44954819D02*
X232040476Y-44954819D01*
X232040476Y-44954819D02*
X231945238Y-44907200D01*
X231945238Y-44907200D02*
X231897619Y-44859580D01*
X227833333Y-70454819D02*
X227500000Y-69978628D01*
X227261905Y-70454819D02*
X227261905Y-69454819D01*
X227261905Y-69454819D02*
X227642857Y-69454819D01*
X227642857Y-69454819D02*
X227738095Y-69502438D01*
X227738095Y-69502438D02*
X227785714Y-69550057D01*
X227785714Y-69550057D02*
X227833333Y-69645295D01*
X227833333Y-69645295D02*
X227833333Y-69788152D01*
X227833333Y-69788152D02*
X227785714Y-69883390D01*
X227785714Y-69883390D02*
X227738095Y-69931009D01*
X227738095Y-69931009D02*
X227642857Y-69978628D01*
X227642857Y-69978628D02*
X227261905Y-69978628D01*
X228785714Y-70454819D02*
X228214286Y-70454819D01*
X228500000Y-70454819D02*
X228500000Y-69454819D01*
X228500000Y-69454819D02*
X228404762Y-69597676D01*
X228404762Y-69597676D02*
X228309524Y-69692914D01*
X228309524Y-69692914D02*
X228214286Y-69740533D01*
X216859580Y-78166666D02*
X216907200Y-78214285D01*
X216907200Y-78214285D02*
X216954819Y-78357142D01*
X216954819Y-78357142D02*
X216954819Y-78452380D01*
X216954819Y-78452380D02*
X216907200Y-78595237D01*
X216907200Y-78595237D02*
X216811961Y-78690475D01*
X216811961Y-78690475D02*
X216716723Y-78738094D01*
X216716723Y-78738094D02*
X216526247Y-78785713D01*
X216526247Y-78785713D02*
X216383390Y-78785713D01*
X216383390Y-78785713D02*
X216192914Y-78738094D01*
X216192914Y-78738094D02*
X216097676Y-78690475D01*
X216097676Y-78690475D02*
X216002438Y-78595237D01*
X216002438Y-78595237D02*
X215954819Y-78452380D01*
X215954819Y-78452380D02*
X215954819Y-78357142D01*
X215954819Y-78357142D02*
X216002438Y-78214285D01*
X216002438Y-78214285D02*
X216050057Y-78166666D01*
X216383390Y-77595237D02*
X216335771Y-77690475D01*
X216335771Y-77690475D02*
X216288152Y-77738094D01*
X216288152Y-77738094D02*
X216192914Y-77785713D01*
X216192914Y-77785713D02*
X216145295Y-77785713D01*
X216145295Y-77785713D02*
X216050057Y-77738094D01*
X216050057Y-77738094D02*
X216002438Y-77690475D01*
X216002438Y-77690475D02*
X215954819Y-77595237D01*
X215954819Y-77595237D02*
X215954819Y-77404761D01*
X215954819Y-77404761D02*
X216002438Y-77309523D01*
X216002438Y-77309523D02*
X216050057Y-77261904D01*
X216050057Y-77261904D02*
X216145295Y-77214285D01*
X216145295Y-77214285D02*
X216192914Y-77214285D01*
X216192914Y-77214285D02*
X216288152Y-77261904D01*
X216288152Y-77261904D02*
X216335771Y-77309523D01*
X216335771Y-77309523D02*
X216383390Y-77404761D01*
X216383390Y-77404761D02*
X216383390Y-77595237D01*
X216383390Y-77595237D02*
X216431009Y-77690475D01*
X216431009Y-77690475D02*
X216478628Y-77738094D01*
X216478628Y-77738094D02*
X216573866Y-77785713D01*
X216573866Y-77785713D02*
X216764342Y-77785713D01*
X216764342Y-77785713D02*
X216859580Y-77738094D01*
X216859580Y-77738094D02*
X216907200Y-77690475D01*
X216907200Y-77690475D02*
X216954819Y-77595237D01*
X216954819Y-77595237D02*
X216954819Y-77404761D01*
X216954819Y-77404761D02*
X216907200Y-77309523D01*
X216907200Y-77309523D02*
X216859580Y-77261904D01*
X216859580Y-77261904D02*
X216764342Y-77214285D01*
X216764342Y-77214285D02*
X216573866Y-77214285D01*
X216573866Y-77214285D02*
X216478628Y-77261904D01*
X216478628Y-77261904D02*
X216431009Y-77309523D01*
X216431009Y-77309523D02*
X216383390Y-77404761D01*
X207523809Y-75478628D02*
X207523809Y-75954819D01*
X207190476Y-74954819D02*
X207523809Y-75478628D01*
X207523809Y-75478628D02*
X207857142Y-74954819D01*
X208714285Y-75954819D02*
X208142857Y-75954819D01*
X208428571Y-75954819D02*
X208428571Y-74954819D01*
X208428571Y-74954819D02*
X208333333Y-75097676D01*
X208333333Y-75097676D02*
X208238095Y-75192914D01*
X208238095Y-75192914D02*
X208142857Y-75240533D01*
X188357142Y-57359580D02*
X188309523Y-57407200D01*
X188309523Y-57407200D02*
X188166666Y-57454819D01*
X188166666Y-57454819D02*
X188071428Y-57454819D01*
X188071428Y-57454819D02*
X187928571Y-57407200D01*
X187928571Y-57407200D02*
X187833333Y-57311961D01*
X187833333Y-57311961D02*
X187785714Y-57216723D01*
X187785714Y-57216723D02*
X187738095Y-57026247D01*
X187738095Y-57026247D02*
X187738095Y-56883390D01*
X187738095Y-56883390D02*
X187785714Y-56692914D01*
X187785714Y-56692914D02*
X187833333Y-56597676D01*
X187833333Y-56597676D02*
X187928571Y-56502438D01*
X187928571Y-56502438D02*
X188071428Y-56454819D01*
X188071428Y-56454819D02*
X188166666Y-56454819D01*
X188166666Y-56454819D02*
X188309523Y-56502438D01*
X188309523Y-56502438D02*
X188357142Y-56550057D01*
X189309523Y-57454819D02*
X188738095Y-57454819D01*
X189023809Y-57454819D02*
X189023809Y-56454819D01*
X189023809Y-56454819D02*
X188928571Y-56597676D01*
X188928571Y-56597676D02*
X188833333Y-56692914D01*
X188833333Y-56692914D02*
X188738095Y-56740533D01*
X189690476Y-56550057D02*
X189738095Y-56502438D01*
X189738095Y-56502438D02*
X189833333Y-56454819D01*
X189833333Y-56454819D02*
X190071428Y-56454819D01*
X190071428Y-56454819D02*
X190166666Y-56502438D01*
X190166666Y-56502438D02*
X190214285Y-56550057D01*
X190214285Y-56550057D02*
X190261904Y-56645295D01*
X190261904Y-56645295D02*
X190261904Y-56740533D01*
X190261904Y-56740533D02*
X190214285Y-56883390D01*
X190214285Y-56883390D02*
X189642857Y-57454819D01*
X189642857Y-57454819D02*
X190261904Y-57454819D01*
X198558333Y-67929580D02*
X198510714Y-67977200D01*
X198510714Y-67977200D02*
X198367857Y-68024819D01*
X198367857Y-68024819D02*
X198272619Y-68024819D01*
X198272619Y-68024819D02*
X198129762Y-67977200D01*
X198129762Y-67977200D02*
X198034524Y-67881961D01*
X198034524Y-67881961D02*
X197986905Y-67786723D01*
X197986905Y-67786723D02*
X197939286Y-67596247D01*
X197939286Y-67596247D02*
X197939286Y-67453390D01*
X197939286Y-67453390D02*
X197986905Y-67262914D01*
X197986905Y-67262914D02*
X198034524Y-67167676D01*
X198034524Y-67167676D02*
X198129762Y-67072438D01*
X198129762Y-67072438D02*
X198272619Y-67024819D01*
X198272619Y-67024819D02*
X198367857Y-67024819D01*
X198367857Y-67024819D02*
X198510714Y-67072438D01*
X198510714Y-67072438D02*
X198558333Y-67120057D01*
X198939286Y-67120057D02*
X198986905Y-67072438D01*
X198986905Y-67072438D02*
X199082143Y-67024819D01*
X199082143Y-67024819D02*
X199320238Y-67024819D01*
X199320238Y-67024819D02*
X199415476Y-67072438D01*
X199415476Y-67072438D02*
X199463095Y-67120057D01*
X199463095Y-67120057D02*
X199510714Y-67215295D01*
X199510714Y-67215295D02*
X199510714Y-67310533D01*
X199510714Y-67310533D02*
X199463095Y-67453390D01*
X199463095Y-67453390D02*
X198891667Y-68024819D01*
X198891667Y-68024819D02*
X199510714Y-68024819D01*
X217357142Y-55454819D02*
X217023809Y-54978628D01*
X216785714Y-55454819D02*
X216785714Y-54454819D01*
X216785714Y-54454819D02*
X217166666Y-54454819D01*
X217166666Y-54454819D02*
X217261904Y-54502438D01*
X217261904Y-54502438D02*
X217309523Y-54550057D01*
X217309523Y-54550057D02*
X217357142Y-54645295D01*
X217357142Y-54645295D02*
X217357142Y-54788152D01*
X217357142Y-54788152D02*
X217309523Y-54883390D01*
X217309523Y-54883390D02*
X217261904Y-54931009D01*
X217261904Y-54931009D02*
X217166666Y-54978628D01*
X217166666Y-54978628D02*
X216785714Y-54978628D01*
X218309523Y-55454819D02*
X217738095Y-55454819D01*
X218023809Y-55454819D02*
X218023809Y-54454819D01*
X218023809Y-54454819D02*
X217928571Y-54597676D01*
X217928571Y-54597676D02*
X217833333Y-54692914D01*
X217833333Y-54692914D02*
X217738095Y-54740533D01*
X218928571Y-54454819D02*
X219023809Y-54454819D01*
X219023809Y-54454819D02*
X219119047Y-54502438D01*
X219119047Y-54502438D02*
X219166666Y-54550057D01*
X219166666Y-54550057D02*
X219214285Y-54645295D01*
X219214285Y-54645295D02*
X219261904Y-54835771D01*
X219261904Y-54835771D02*
X219261904Y-55073866D01*
X219261904Y-55073866D02*
X219214285Y-55264342D01*
X219214285Y-55264342D02*
X219166666Y-55359580D01*
X219166666Y-55359580D02*
X219119047Y-55407200D01*
X219119047Y-55407200D02*
X219023809Y-55454819D01*
X219023809Y-55454819D02*
X218928571Y-55454819D01*
X218928571Y-55454819D02*
X218833333Y-55407200D01*
X218833333Y-55407200D02*
X218785714Y-55359580D01*
X218785714Y-55359580D02*
X218738095Y-55264342D01*
X218738095Y-55264342D02*
X218690476Y-55073866D01*
X218690476Y-55073866D02*
X218690476Y-54835771D01*
X218690476Y-54835771D02*
X218738095Y-54645295D01*
X218738095Y-54645295D02*
X218785714Y-54550057D01*
X218785714Y-54550057D02*
X218833333Y-54502438D01*
X218833333Y-54502438D02*
X218928571Y-54454819D01*
X222833333Y-70954819D02*
X222500000Y-70478628D01*
X222261905Y-70954819D02*
X222261905Y-69954819D01*
X222261905Y-69954819D02*
X222642857Y-69954819D01*
X222642857Y-69954819D02*
X222738095Y-70002438D01*
X222738095Y-70002438D02*
X222785714Y-70050057D01*
X222785714Y-70050057D02*
X222833333Y-70145295D01*
X222833333Y-70145295D02*
X222833333Y-70288152D01*
X222833333Y-70288152D02*
X222785714Y-70383390D01*
X222785714Y-70383390D02*
X222738095Y-70431009D01*
X222738095Y-70431009D02*
X222642857Y-70478628D01*
X222642857Y-70478628D02*
X222261905Y-70478628D01*
X223738095Y-69954819D02*
X223261905Y-69954819D01*
X223261905Y-69954819D02*
X223214286Y-70431009D01*
X223214286Y-70431009D02*
X223261905Y-70383390D01*
X223261905Y-70383390D02*
X223357143Y-70335771D01*
X223357143Y-70335771D02*
X223595238Y-70335771D01*
X223595238Y-70335771D02*
X223690476Y-70383390D01*
X223690476Y-70383390D02*
X223738095Y-70431009D01*
X223738095Y-70431009D02*
X223785714Y-70526247D01*
X223785714Y-70526247D02*
X223785714Y-70764342D01*
X223785714Y-70764342D02*
X223738095Y-70859580D01*
X223738095Y-70859580D02*
X223690476Y-70907200D01*
X223690476Y-70907200D02*
X223595238Y-70954819D01*
X223595238Y-70954819D02*
X223357143Y-70954819D01*
X223357143Y-70954819D02*
X223261905Y-70907200D01*
X223261905Y-70907200D02*
X223214286Y-70859580D01*
X190666667Y-97407200D02*
X190809524Y-97454819D01*
X190809524Y-97454819D02*
X191047619Y-97454819D01*
X191047619Y-97454819D02*
X191142857Y-97407200D01*
X191142857Y-97407200D02*
X191190476Y-97359580D01*
X191190476Y-97359580D02*
X191238095Y-97264342D01*
X191238095Y-97264342D02*
X191238095Y-97169104D01*
X191238095Y-97169104D02*
X191190476Y-97073866D01*
X191190476Y-97073866D02*
X191142857Y-97026247D01*
X191142857Y-97026247D02*
X191047619Y-96978628D01*
X191047619Y-96978628D02*
X190857143Y-96931009D01*
X190857143Y-96931009D02*
X190761905Y-96883390D01*
X190761905Y-96883390D02*
X190714286Y-96835771D01*
X190714286Y-96835771D02*
X190666667Y-96740533D01*
X190666667Y-96740533D02*
X190666667Y-96645295D01*
X190666667Y-96645295D02*
X190714286Y-96550057D01*
X190714286Y-96550057D02*
X190761905Y-96502438D01*
X190761905Y-96502438D02*
X190857143Y-96454819D01*
X190857143Y-96454819D02*
X191095238Y-96454819D01*
X191095238Y-96454819D02*
X191238095Y-96502438D01*
X191571429Y-96454819D02*
X191809524Y-97454819D01*
X191809524Y-97454819D02*
X192000000Y-96740533D01*
X192000000Y-96740533D02*
X192190476Y-97454819D01*
X192190476Y-97454819D02*
X192428572Y-96454819D01*
X193333333Y-97454819D02*
X192761905Y-97454819D01*
X193047619Y-97454819D02*
X193047619Y-96454819D01*
X193047619Y-96454819D02*
X192952381Y-96597676D01*
X192952381Y-96597676D02*
X192857143Y-96692914D01*
X192857143Y-96692914D02*
X192761905Y-96740533D01*
X184761905Y-56454819D02*
X184761905Y-55454819D01*
X184761905Y-55454819D02*
X185000000Y-55454819D01*
X185000000Y-55454819D02*
X185142857Y-55502438D01*
X185142857Y-55502438D02*
X185238095Y-55597676D01*
X185238095Y-55597676D02*
X185285714Y-55692914D01*
X185285714Y-55692914D02*
X185333333Y-55883390D01*
X185333333Y-55883390D02*
X185333333Y-56026247D01*
X185333333Y-56026247D02*
X185285714Y-56216723D01*
X185285714Y-56216723D02*
X185238095Y-56311961D01*
X185238095Y-56311961D02*
X185142857Y-56407200D01*
X185142857Y-56407200D02*
X185000000Y-56454819D01*
X185000000Y-56454819D02*
X184761905Y-56454819D01*
X185666667Y-55454819D02*
X186285714Y-55454819D01*
X186285714Y-55454819D02*
X185952381Y-55835771D01*
X185952381Y-55835771D02*
X186095238Y-55835771D01*
X186095238Y-55835771D02*
X186190476Y-55883390D01*
X186190476Y-55883390D02*
X186238095Y-55931009D01*
X186238095Y-55931009D02*
X186285714Y-56026247D01*
X186285714Y-56026247D02*
X186285714Y-56264342D01*
X186285714Y-56264342D02*
X186238095Y-56359580D01*
X186238095Y-56359580D02*
X186190476Y-56407200D01*
X186190476Y-56407200D02*
X186095238Y-56454819D01*
X186095238Y-56454819D02*
X185809524Y-56454819D01*
X185809524Y-56454819D02*
X185714286Y-56407200D01*
X185714286Y-56407200D02*
X185666667Y-56359580D01*
X200333333Y-99954819D02*
X200000000Y-99478628D01*
X199761905Y-99954819D02*
X199761905Y-98954819D01*
X199761905Y-98954819D02*
X200142857Y-98954819D01*
X200142857Y-98954819D02*
X200238095Y-99002438D01*
X200238095Y-99002438D02*
X200285714Y-99050057D01*
X200285714Y-99050057D02*
X200333333Y-99145295D01*
X200333333Y-99145295D02*
X200333333Y-99288152D01*
X200333333Y-99288152D02*
X200285714Y-99383390D01*
X200285714Y-99383390D02*
X200238095Y-99431009D01*
X200238095Y-99431009D02*
X200142857Y-99478628D01*
X200142857Y-99478628D02*
X199761905Y-99478628D01*
X201190476Y-99288152D02*
X201190476Y-99954819D01*
X200952381Y-98907200D02*
X200714286Y-99621485D01*
X200714286Y-99621485D02*
X201333333Y-99621485D01*
X250166666Y-65304819D02*
X250166666Y-66019104D01*
X250166666Y-66019104D02*
X250119047Y-66161961D01*
X250119047Y-66161961D02*
X250023809Y-66257200D01*
X250023809Y-66257200D02*
X249880952Y-66304819D01*
X249880952Y-66304819D02*
X249785714Y-66304819D01*
X251166666Y-66304819D02*
X250595238Y-66304819D01*
X250880952Y-66304819D02*
X250880952Y-65304819D01*
X250880952Y-65304819D02*
X250785714Y-65447676D01*
X250785714Y-65447676D02*
X250690476Y-65542914D01*
X250690476Y-65542914D02*
X250595238Y-65590533D01*
X213108333Y-86359580D02*
X213060714Y-86407200D01*
X213060714Y-86407200D02*
X212917857Y-86454819D01*
X212917857Y-86454819D02*
X212822619Y-86454819D01*
X212822619Y-86454819D02*
X212679762Y-86407200D01*
X212679762Y-86407200D02*
X212584524Y-86311961D01*
X212584524Y-86311961D02*
X212536905Y-86216723D01*
X212536905Y-86216723D02*
X212489286Y-86026247D01*
X212489286Y-86026247D02*
X212489286Y-85883390D01*
X212489286Y-85883390D02*
X212536905Y-85692914D01*
X212536905Y-85692914D02*
X212584524Y-85597676D01*
X212584524Y-85597676D02*
X212679762Y-85502438D01*
X212679762Y-85502438D02*
X212822619Y-85454819D01*
X212822619Y-85454819D02*
X212917857Y-85454819D01*
X212917857Y-85454819D02*
X213060714Y-85502438D01*
X213060714Y-85502438D02*
X213108333Y-85550057D01*
X213441667Y-85454819D02*
X214060714Y-85454819D01*
X214060714Y-85454819D02*
X213727381Y-85835771D01*
X213727381Y-85835771D02*
X213870238Y-85835771D01*
X213870238Y-85835771D02*
X213965476Y-85883390D01*
X213965476Y-85883390D02*
X214013095Y-85931009D01*
X214013095Y-85931009D02*
X214060714Y-86026247D01*
X214060714Y-86026247D02*
X214060714Y-86264342D01*
X214060714Y-86264342D02*
X214013095Y-86359580D01*
X214013095Y-86359580D02*
X213965476Y-86407200D01*
X213965476Y-86407200D02*
X213870238Y-86454819D01*
X213870238Y-86454819D02*
X213584524Y-86454819D01*
X213584524Y-86454819D02*
X213489286Y-86407200D01*
X213489286Y-86407200D02*
X213441667Y-86359580D01*
X191261905Y-52454819D02*
X191261905Y-51454819D01*
X191261905Y-51454819D02*
X191500000Y-51454819D01*
X191500000Y-51454819D02*
X191642857Y-51502438D01*
X191642857Y-51502438D02*
X191738095Y-51597676D01*
X191738095Y-51597676D02*
X191785714Y-51692914D01*
X191785714Y-51692914D02*
X191833333Y-51883390D01*
X191833333Y-51883390D02*
X191833333Y-52026247D01*
X191833333Y-52026247D02*
X191785714Y-52216723D01*
X191785714Y-52216723D02*
X191738095Y-52311961D01*
X191738095Y-52311961D02*
X191642857Y-52407200D01*
X191642857Y-52407200D02*
X191500000Y-52454819D01*
X191500000Y-52454819D02*
X191261905Y-52454819D01*
X192690476Y-51788152D02*
X192690476Y-52454819D01*
X192452381Y-51407200D02*
X192214286Y-52121485D01*
X192214286Y-52121485D02*
X192833333Y-52121485D01*
X214857142Y-76359580D02*
X214809523Y-76407200D01*
X214809523Y-76407200D02*
X214666666Y-76454819D01*
X214666666Y-76454819D02*
X214571428Y-76454819D01*
X214571428Y-76454819D02*
X214428571Y-76407200D01*
X214428571Y-76407200D02*
X214333333Y-76311961D01*
X214333333Y-76311961D02*
X214285714Y-76216723D01*
X214285714Y-76216723D02*
X214238095Y-76026247D01*
X214238095Y-76026247D02*
X214238095Y-75883390D01*
X214238095Y-75883390D02*
X214285714Y-75692914D01*
X214285714Y-75692914D02*
X214333333Y-75597676D01*
X214333333Y-75597676D02*
X214428571Y-75502438D01*
X214428571Y-75502438D02*
X214571428Y-75454819D01*
X214571428Y-75454819D02*
X214666666Y-75454819D01*
X214666666Y-75454819D02*
X214809523Y-75502438D01*
X214809523Y-75502438D02*
X214857142Y-75550057D01*
X215809523Y-76454819D02*
X215238095Y-76454819D01*
X215523809Y-76454819D02*
X215523809Y-75454819D01*
X215523809Y-75454819D02*
X215428571Y-75597676D01*
X215428571Y-75597676D02*
X215333333Y-75692914D01*
X215333333Y-75692914D02*
X215238095Y-75740533D01*
X216666666Y-75788152D02*
X216666666Y-76454819D01*
X216428571Y-75407200D02*
X216190476Y-76121485D01*
X216190476Y-76121485D02*
X216809523Y-76121485D01*
X225666666Y-94954819D02*
X225666666Y-95669104D01*
X225666666Y-95669104D02*
X225619047Y-95811961D01*
X225619047Y-95811961D02*
X225523809Y-95907200D01*
X225523809Y-95907200D02*
X225380952Y-95954819D01*
X225380952Y-95954819D02*
X225285714Y-95954819D01*
X226619047Y-94954819D02*
X226142857Y-94954819D01*
X226142857Y-94954819D02*
X226095238Y-95431009D01*
X226095238Y-95431009D02*
X226142857Y-95383390D01*
X226142857Y-95383390D02*
X226238095Y-95335771D01*
X226238095Y-95335771D02*
X226476190Y-95335771D01*
X226476190Y-95335771D02*
X226571428Y-95383390D01*
X226571428Y-95383390D02*
X226619047Y-95431009D01*
X226619047Y-95431009D02*
X226666666Y-95526247D01*
X226666666Y-95526247D02*
X226666666Y-95764342D01*
X226666666Y-95764342D02*
X226619047Y-95859580D01*
X226619047Y-95859580D02*
X226571428Y-95907200D01*
X226571428Y-95907200D02*
X226476190Y-95954819D01*
X226476190Y-95954819D02*
X226238095Y-95954819D01*
X226238095Y-95954819D02*
X226142857Y-95907200D01*
X226142857Y-95907200D02*
X226095238Y-95859580D01*
D11*
X220899999Y-79785950D02*
X220999999Y-79819283D01*
X220999999Y-79819283D02*
X221166666Y-79819283D01*
X221166666Y-79819283D02*
X221233332Y-79785950D01*
X221233332Y-79785950D02*
X221266666Y-79752616D01*
X221266666Y-79752616D02*
X221299999Y-79685950D01*
X221299999Y-79685950D02*
X221299999Y-79619283D01*
X221299999Y-79619283D02*
X221266666Y-79552616D01*
X221266666Y-79552616D02*
X221233332Y-79519283D01*
X221233332Y-79519283D02*
X221166666Y-79485950D01*
X221166666Y-79485950D02*
X221033332Y-79452616D01*
X221033332Y-79452616D02*
X220966666Y-79419283D01*
X220966666Y-79419283D02*
X220933332Y-79385950D01*
X220933332Y-79385950D02*
X220899999Y-79319283D01*
X220899999Y-79319283D02*
X220899999Y-79252616D01*
X220899999Y-79252616D02*
X220933332Y-79185950D01*
X220933332Y-79185950D02*
X220966666Y-79152616D01*
X220966666Y-79152616D02*
X221033332Y-79119283D01*
X221033332Y-79119283D02*
X221199999Y-79119283D01*
X221199999Y-79119283D02*
X221299999Y-79152616D01*
X221499999Y-79119283D02*
X221899999Y-79119283D01*
X221699999Y-79819283D02*
X221699999Y-79119283D01*
X222133332Y-79819283D02*
X222133332Y-79119283D01*
X222133332Y-79119283D02*
X222366666Y-79619283D01*
X222366666Y-79619283D02*
X222599999Y-79119283D01*
X222599999Y-79119283D02*
X222599999Y-79819283D01*
X222866666Y-79119283D02*
X223299999Y-79119283D01*
X223299999Y-79119283D02*
X223066666Y-79385950D01*
X223066666Y-79385950D02*
X223166666Y-79385950D01*
X223166666Y-79385950D02*
X223233332Y-79419283D01*
X223233332Y-79419283D02*
X223266666Y-79452616D01*
X223266666Y-79452616D02*
X223299999Y-79519283D01*
X223299999Y-79519283D02*
X223299999Y-79685950D01*
X223299999Y-79685950D02*
X223266666Y-79752616D01*
X223266666Y-79752616D02*
X223233332Y-79785950D01*
X223233332Y-79785950D02*
X223166666Y-79819283D01*
X223166666Y-79819283D02*
X222966666Y-79819283D01*
X222966666Y-79819283D02*
X222899999Y-79785950D01*
X222899999Y-79785950D02*
X222866666Y-79752616D01*
X223566666Y-79185950D02*
X223599999Y-79152616D01*
X223599999Y-79152616D02*
X223666666Y-79119283D01*
X223666666Y-79119283D02*
X223833333Y-79119283D01*
X223833333Y-79119283D02*
X223899999Y-79152616D01*
X223899999Y-79152616D02*
X223933333Y-79185950D01*
X223933333Y-79185950D02*
X223966666Y-79252616D01*
X223966666Y-79252616D02*
X223966666Y-79319283D01*
X223966666Y-79319283D02*
X223933333Y-79419283D01*
X223933333Y-79419283D02*
X223533333Y-79819283D01*
X223533333Y-79819283D02*
X223966666Y-79819283D01*
X224500000Y-79452616D02*
X224266666Y-79452616D01*
X224266666Y-79819283D02*
X224266666Y-79119283D01*
X224266666Y-79119283D02*
X224600000Y-79119283D01*
X225166666Y-79352616D02*
X225166666Y-79819283D01*
X225000000Y-79085950D02*
X224833333Y-79585950D01*
X224833333Y-79585950D02*
X225266666Y-79585950D01*
X225666667Y-79119283D02*
X225733333Y-79119283D01*
X225733333Y-79119283D02*
X225800000Y-79152616D01*
X225800000Y-79152616D02*
X225833333Y-79185950D01*
X225833333Y-79185950D02*
X225866667Y-79252616D01*
X225866667Y-79252616D02*
X225900000Y-79385950D01*
X225900000Y-79385950D02*
X225900000Y-79552616D01*
X225900000Y-79552616D02*
X225866667Y-79685950D01*
X225866667Y-79685950D02*
X225833333Y-79752616D01*
X225833333Y-79752616D02*
X225800000Y-79785950D01*
X225800000Y-79785950D02*
X225733333Y-79819283D01*
X225733333Y-79819283D02*
X225666667Y-79819283D01*
X225666667Y-79819283D02*
X225600000Y-79785950D01*
X225600000Y-79785950D02*
X225566667Y-79752616D01*
X225566667Y-79752616D02*
X225533333Y-79685950D01*
X225533333Y-79685950D02*
X225500000Y-79552616D01*
X225500000Y-79552616D02*
X225500000Y-79385950D01*
X225500000Y-79385950D02*
X225533333Y-79252616D01*
X225533333Y-79252616D02*
X225566667Y-79185950D01*
X225566667Y-79185950D02*
X225600000Y-79152616D01*
X225600000Y-79152616D02*
X225666667Y-79119283D01*
X226566667Y-79819283D02*
X226166667Y-79819283D01*
X226366667Y-79819283D02*
X226366667Y-79119283D01*
X226366667Y-79119283D02*
X226300000Y-79219283D01*
X226300000Y-79219283D02*
X226233334Y-79285950D01*
X226233334Y-79285950D02*
X226166667Y-79319283D01*
X227266667Y-79819283D02*
X227033334Y-79485950D01*
X226866667Y-79819283D02*
X226866667Y-79119283D01*
X226866667Y-79119283D02*
X227133334Y-79119283D01*
X227133334Y-79119283D02*
X227200001Y-79152616D01*
X227200001Y-79152616D02*
X227233334Y-79185950D01*
X227233334Y-79185950D02*
X227266667Y-79252616D01*
X227266667Y-79252616D02*
X227266667Y-79352616D01*
X227266667Y-79352616D02*
X227233334Y-79419283D01*
X227233334Y-79419283D02*
X227200001Y-79452616D01*
X227200001Y-79452616D02*
X227133334Y-79485950D01*
X227133334Y-79485950D02*
X226866667Y-79485950D01*
X227566667Y-79452616D02*
X227800001Y-79452616D01*
X227900001Y-79819283D02*
X227566667Y-79819283D01*
X227566667Y-79819283D02*
X227566667Y-79119283D01*
X227566667Y-79119283D02*
X227900001Y-79119283D01*
X228100000Y-79119283D02*
X228500000Y-79119283D01*
X228300000Y-79819283D02*
X228300000Y-79119283D01*
X229033333Y-79119283D02*
X228900000Y-79119283D01*
X228900000Y-79119283D02*
X228833333Y-79152616D01*
X228833333Y-79152616D02*
X228800000Y-79185950D01*
X228800000Y-79185950D02*
X228733333Y-79285950D01*
X228733333Y-79285950D02*
X228700000Y-79419283D01*
X228700000Y-79419283D02*
X228700000Y-79685950D01*
X228700000Y-79685950D02*
X228733333Y-79752616D01*
X228733333Y-79752616D02*
X228766667Y-79785950D01*
X228766667Y-79785950D02*
X228833333Y-79819283D01*
X228833333Y-79819283D02*
X228966667Y-79819283D01*
X228966667Y-79819283D02*
X229033333Y-79785950D01*
X229033333Y-79785950D02*
X229066667Y-79752616D01*
X229066667Y-79752616D02*
X229100000Y-79685950D01*
X229100000Y-79685950D02*
X229100000Y-79519283D01*
X229100000Y-79519283D02*
X229066667Y-79452616D01*
X229066667Y-79452616D02*
X229033333Y-79419283D01*
X229033333Y-79419283D02*
X228966667Y-79385950D01*
X228966667Y-79385950D02*
X228833333Y-79385950D01*
X228833333Y-79385950D02*
X228766667Y-79419283D01*
X228766667Y-79419283D02*
X228733333Y-79452616D01*
X228733333Y-79452616D02*
X228700000Y-79519283D01*
D10*
X224833333Y-65024819D02*
X224500000Y-64548628D01*
X224261905Y-65024819D02*
X224261905Y-64024819D01*
X224261905Y-64024819D02*
X224642857Y-64024819D01*
X224642857Y-64024819D02*
X224738095Y-64072438D01*
X224738095Y-64072438D02*
X224785714Y-64120057D01*
X224785714Y-64120057D02*
X224833333Y-64215295D01*
X224833333Y-64215295D02*
X224833333Y-64358152D01*
X224833333Y-64358152D02*
X224785714Y-64453390D01*
X224785714Y-64453390D02*
X224738095Y-64501009D01*
X224738095Y-64501009D02*
X224642857Y-64548628D01*
X224642857Y-64548628D02*
X224261905Y-64548628D01*
X225214286Y-64120057D02*
X225261905Y-64072438D01*
X225261905Y-64072438D02*
X225357143Y-64024819D01*
X225357143Y-64024819D02*
X225595238Y-64024819D01*
X225595238Y-64024819D02*
X225690476Y-64072438D01*
X225690476Y-64072438D02*
X225738095Y-64120057D01*
X225738095Y-64120057D02*
X225785714Y-64215295D01*
X225785714Y-64215295D02*
X225785714Y-64310533D01*
X225785714Y-64310533D02*
X225738095Y-64453390D01*
X225738095Y-64453390D02*
X225166667Y-65024819D01*
X225166667Y-65024819D02*
X225785714Y-65024819D01*
X197833333Y-55454819D02*
X197500000Y-54978628D01*
X197261905Y-55454819D02*
X197261905Y-54454819D01*
X197261905Y-54454819D02*
X197642857Y-54454819D01*
X197642857Y-54454819D02*
X197738095Y-54502438D01*
X197738095Y-54502438D02*
X197785714Y-54550057D01*
X197785714Y-54550057D02*
X197833333Y-54645295D01*
X197833333Y-54645295D02*
X197833333Y-54788152D01*
X197833333Y-54788152D02*
X197785714Y-54883390D01*
X197785714Y-54883390D02*
X197738095Y-54931009D01*
X197738095Y-54931009D02*
X197642857Y-54978628D01*
X197642857Y-54978628D02*
X197261905Y-54978628D01*
X198309524Y-55454819D02*
X198500000Y-55454819D01*
X198500000Y-55454819D02*
X198595238Y-55407200D01*
X198595238Y-55407200D02*
X198642857Y-55359580D01*
X198642857Y-55359580D02*
X198738095Y-55216723D01*
X198738095Y-55216723D02*
X198785714Y-55026247D01*
X198785714Y-55026247D02*
X198785714Y-54645295D01*
X198785714Y-54645295D02*
X198738095Y-54550057D01*
X198738095Y-54550057D02*
X198690476Y-54502438D01*
X198690476Y-54502438D02*
X198595238Y-54454819D01*
X198595238Y-54454819D02*
X198404762Y-54454819D01*
X198404762Y-54454819D02*
X198309524Y-54502438D01*
X198309524Y-54502438D02*
X198261905Y-54550057D01*
X198261905Y-54550057D02*
X198214286Y-54645295D01*
X198214286Y-54645295D02*
X198214286Y-54883390D01*
X198214286Y-54883390D02*
X198261905Y-54978628D01*
X198261905Y-54978628D02*
X198309524Y-55026247D01*
X198309524Y-55026247D02*
X198404762Y-55073866D01*
X198404762Y-55073866D02*
X198595238Y-55073866D01*
X198595238Y-55073866D02*
X198690476Y-55026247D01*
X198690476Y-55026247D02*
X198738095Y-54978628D01*
X198738095Y-54978628D02*
X198785714Y-54883390D01*
X226357142Y-89359580D02*
X226309523Y-89407200D01*
X226309523Y-89407200D02*
X226166666Y-89454819D01*
X226166666Y-89454819D02*
X226071428Y-89454819D01*
X226071428Y-89454819D02*
X225928571Y-89407200D01*
X225928571Y-89407200D02*
X225833333Y-89311961D01*
X225833333Y-89311961D02*
X225785714Y-89216723D01*
X225785714Y-89216723D02*
X225738095Y-89026247D01*
X225738095Y-89026247D02*
X225738095Y-88883390D01*
X225738095Y-88883390D02*
X225785714Y-88692914D01*
X225785714Y-88692914D02*
X225833333Y-88597676D01*
X225833333Y-88597676D02*
X225928571Y-88502438D01*
X225928571Y-88502438D02*
X226071428Y-88454819D01*
X226071428Y-88454819D02*
X226166666Y-88454819D01*
X226166666Y-88454819D02*
X226309523Y-88502438D01*
X226309523Y-88502438D02*
X226357142Y-88550057D01*
X227309523Y-89454819D02*
X226738095Y-89454819D01*
X227023809Y-89454819D02*
X227023809Y-88454819D01*
X227023809Y-88454819D02*
X226928571Y-88597676D01*
X226928571Y-88597676D02*
X226833333Y-88692914D01*
X226833333Y-88692914D02*
X226738095Y-88740533D01*
X227928571Y-88454819D02*
X228023809Y-88454819D01*
X228023809Y-88454819D02*
X228119047Y-88502438D01*
X228119047Y-88502438D02*
X228166666Y-88550057D01*
X228166666Y-88550057D02*
X228214285Y-88645295D01*
X228214285Y-88645295D02*
X228261904Y-88835771D01*
X228261904Y-88835771D02*
X228261904Y-89073866D01*
X228261904Y-89073866D02*
X228214285Y-89264342D01*
X228214285Y-89264342D02*
X228166666Y-89359580D01*
X228166666Y-89359580D02*
X228119047Y-89407200D01*
X228119047Y-89407200D02*
X228023809Y-89454819D01*
X228023809Y-89454819D02*
X227928571Y-89454819D01*
X227928571Y-89454819D02*
X227833333Y-89407200D01*
X227833333Y-89407200D02*
X227785714Y-89359580D01*
X227785714Y-89359580D02*
X227738095Y-89264342D01*
X227738095Y-89264342D02*
X227690476Y-89073866D01*
X227690476Y-89073866D02*
X227690476Y-88835771D01*
X227690476Y-88835771D02*
X227738095Y-88645295D01*
X227738095Y-88645295D02*
X227785714Y-88550057D01*
X227785714Y-88550057D02*
X227833333Y-88502438D01*
X227833333Y-88502438D02*
X227928571Y-88454819D01*
X186024819Y-71991666D02*
X185548628Y-72324999D01*
X186024819Y-72563094D02*
X185024819Y-72563094D01*
X185024819Y-72563094D02*
X185024819Y-72182142D01*
X185024819Y-72182142D02*
X185072438Y-72086904D01*
X185072438Y-72086904D02*
X185120057Y-72039285D01*
X185120057Y-72039285D02*
X185215295Y-71991666D01*
X185215295Y-71991666D02*
X185358152Y-71991666D01*
X185358152Y-71991666D02*
X185453390Y-72039285D01*
X185453390Y-72039285D02*
X185501009Y-72086904D01*
X185501009Y-72086904D02*
X185548628Y-72182142D01*
X185548628Y-72182142D02*
X185548628Y-72563094D01*
X185024819Y-71658332D02*
X185024819Y-71039285D01*
X185024819Y-71039285D02*
X185405771Y-71372618D01*
X185405771Y-71372618D02*
X185405771Y-71229761D01*
X185405771Y-71229761D02*
X185453390Y-71134523D01*
X185453390Y-71134523D02*
X185501009Y-71086904D01*
X185501009Y-71086904D02*
X185596247Y-71039285D01*
X185596247Y-71039285D02*
X185834342Y-71039285D01*
X185834342Y-71039285D02*
X185929580Y-71086904D01*
X185929580Y-71086904D02*
X185977200Y-71134523D01*
X185977200Y-71134523D02*
X186024819Y-71229761D01*
X186024819Y-71229761D02*
X186024819Y-71515475D01*
X186024819Y-71515475D02*
X185977200Y-71610713D01*
X185977200Y-71610713D02*
X185929580Y-71658332D01*
X201512380Y-55148276D02*
X201512380Y-55666371D01*
X201512380Y-55666371D02*
X201542857Y-55727323D01*
X201542857Y-55727323D02*
X201573333Y-55757800D01*
X201573333Y-55757800D02*
X201634285Y-55788276D01*
X201634285Y-55788276D02*
X201756190Y-55788276D01*
X201756190Y-55788276D02*
X201817142Y-55757800D01*
X201817142Y-55757800D02*
X201847619Y-55727323D01*
X201847619Y-55727323D02*
X201878095Y-55666371D01*
X201878095Y-55666371D02*
X201878095Y-55148276D01*
X202121904Y-55148276D02*
X202518095Y-55148276D01*
X202518095Y-55148276D02*
X202304761Y-55392085D01*
X202304761Y-55392085D02*
X202396190Y-55392085D01*
X202396190Y-55392085D02*
X202457142Y-55422561D01*
X202457142Y-55422561D02*
X202487618Y-55453038D01*
X202487618Y-55453038D02*
X202518095Y-55513990D01*
X202518095Y-55513990D02*
X202518095Y-55666371D01*
X202518095Y-55666371D02*
X202487618Y-55727323D01*
X202487618Y-55727323D02*
X202457142Y-55757800D01*
X202457142Y-55757800D02*
X202396190Y-55788276D01*
X202396190Y-55788276D02*
X202213333Y-55788276D01*
X202213333Y-55788276D02*
X202152380Y-55757800D01*
X202152380Y-55757800D02*
X202121904Y-55727323D01*
X235333333Y-70359580D02*
X235285714Y-70407200D01*
X235285714Y-70407200D02*
X235142857Y-70454819D01*
X235142857Y-70454819D02*
X235047619Y-70454819D01*
X235047619Y-70454819D02*
X234904762Y-70407200D01*
X234904762Y-70407200D02*
X234809524Y-70311961D01*
X234809524Y-70311961D02*
X234761905Y-70216723D01*
X234761905Y-70216723D02*
X234714286Y-70026247D01*
X234714286Y-70026247D02*
X234714286Y-69883390D01*
X234714286Y-69883390D02*
X234761905Y-69692914D01*
X234761905Y-69692914D02*
X234809524Y-69597676D01*
X234809524Y-69597676D02*
X234904762Y-69502438D01*
X234904762Y-69502438D02*
X235047619Y-69454819D01*
X235047619Y-69454819D02*
X235142857Y-69454819D01*
X235142857Y-69454819D02*
X235285714Y-69502438D01*
X235285714Y-69502438D02*
X235333333Y-69550057D01*
X236190476Y-69454819D02*
X236000000Y-69454819D01*
X236000000Y-69454819D02*
X235904762Y-69502438D01*
X235904762Y-69502438D02*
X235857143Y-69550057D01*
X235857143Y-69550057D02*
X235761905Y-69692914D01*
X235761905Y-69692914D02*
X235714286Y-69883390D01*
X235714286Y-69883390D02*
X235714286Y-70264342D01*
X235714286Y-70264342D02*
X235761905Y-70359580D01*
X235761905Y-70359580D02*
X235809524Y-70407200D01*
X235809524Y-70407200D02*
X235904762Y-70454819D01*
X235904762Y-70454819D02*
X236095238Y-70454819D01*
X236095238Y-70454819D02*
X236190476Y-70407200D01*
X236190476Y-70407200D02*
X236238095Y-70359580D01*
X236238095Y-70359580D02*
X236285714Y-70264342D01*
X236285714Y-70264342D02*
X236285714Y-70026247D01*
X236285714Y-70026247D02*
X236238095Y-69931009D01*
X236238095Y-69931009D02*
X236190476Y-69883390D01*
X236190476Y-69883390D02*
X236095238Y-69835771D01*
X236095238Y-69835771D02*
X235904762Y-69835771D01*
X235904762Y-69835771D02*
X235809524Y-69883390D01*
X235809524Y-69883390D02*
X235761905Y-69931009D01*
X235761905Y-69931009D02*
X235714286Y-70026247D01*
X216833333Y-68859580D02*
X216785714Y-68907200D01*
X216785714Y-68907200D02*
X216642857Y-68954819D01*
X216642857Y-68954819D02*
X216547619Y-68954819D01*
X216547619Y-68954819D02*
X216404762Y-68907200D01*
X216404762Y-68907200D02*
X216309524Y-68811961D01*
X216309524Y-68811961D02*
X216261905Y-68716723D01*
X216261905Y-68716723D02*
X216214286Y-68526247D01*
X216214286Y-68526247D02*
X216214286Y-68383390D01*
X216214286Y-68383390D02*
X216261905Y-68192914D01*
X216261905Y-68192914D02*
X216309524Y-68097676D01*
X216309524Y-68097676D02*
X216404762Y-68002438D01*
X216404762Y-68002438D02*
X216547619Y-67954819D01*
X216547619Y-67954819D02*
X216642857Y-67954819D01*
X216642857Y-67954819D02*
X216785714Y-68002438D01*
X216785714Y-68002438D02*
X216833333Y-68050057D01*
X217166667Y-67954819D02*
X217833333Y-67954819D01*
X217833333Y-67954819D02*
X217404762Y-68954819D01*
D12*
%TO.C,F1*%
X189702064Y-48090000D02*
X188497936Y-48090000D01*
X189702064Y-49910000D02*
X188497936Y-49910000D01*
%TO.C,R6*%
X187477500Y-92562258D02*
X187477500Y-92087742D01*
X188522500Y-92562258D02*
X188522500Y-92087742D01*
%TO.C,C5*%
X232634420Y-85990000D02*
X232915580Y-85990000D01*
X232634420Y-87010000D02*
X232915580Y-87010000D01*
%TO.C,C4*%
X220084420Y-86990000D02*
X220365580Y-86990000D01*
X220084420Y-88010000D02*
X220365580Y-88010000D01*
%TO.C,SW2*%
X186950000Y-83300000D02*
X186950000Y-87700000D01*
X188450000Y-83300000D02*
X188550000Y-83300000D01*
X188450000Y-87700000D02*
X188550000Y-87700000D01*
X190050000Y-87700000D02*
X190050000Y-83300000D01*
%TO.C,D1*%
X186265000Y-66015000D02*
X186265000Y-68300000D01*
X187735000Y-66015000D02*
X186265000Y-66015000D01*
X187735000Y-68300000D02*
X187735000Y-66015000D01*
%TO.C,R7*%
X186477500Y-76562258D02*
X186477500Y-76087742D01*
X187522500Y-76562258D02*
X187522500Y-76087742D01*
%TO.C,C13*%
X203915580Y-69990000D02*
X203634420Y-69990000D01*
X203915580Y-71010000D02*
X203634420Y-71010000D01*
%TO.C,C15*%
X212584420Y-79490000D02*
X212865580Y-79490000D01*
X212584420Y-80510000D02*
X212865580Y-80510000D01*
%TO.C,C9*%
X214490000Y-80359420D02*
X214490000Y-80640580D01*
X215510000Y-80359420D02*
X215510000Y-80640580D01*
%TO.C,C1*%
X190990000Y-78084420D02*
X190990000Y-78365580D01*
X192010000Y-78084420D02*
X192010000Y-78365580D01*
%TO.C,R8*%
X208437742Y-49477500D02*
X208912258Y-49477500D01*
X208437742Y-50522500D02*
X208912258Y-50522500D01*
%TO.C,D2*%
X195015000Y-97265000D02*
X195015000Y-98735000D01*
X195015000Y-98735000D02*
X197300000Y-98735000D01*
X197300000Y-97265000D02*
X195015000Y-97265000D01*
%TO.C,J7*%
X195420000Y-40715000D02*
X204580000Y-40715000D01*
X195420000Y-42420000D02*
X195420000Y-40715000D01*
X195420000Y-44430000D02*
X195420000Y-46350000D01*
X204580000Y-40715000D02*
X204580000Y-42420000D01*
X204580000Y-46350000D02*
X204580000Y-44430000D01*
%TO.C,J6*%
X249170000Y-72150000D02*
X249170000Y-82370000D01*
X249170000Y-72150000D02*
X251830000Y-72150000D01*
X249170000Y-82370000D02*
X251830000Y-82370000D01*
X250500000Y-69550000D02*
X251830000Y-69550000D01*
X251830000Y-69550000D02*
X251830000Y-70880000D01*
X251830000Y-72150000D02*
X251830000Y-82370000D01*
%TO.C,J4*%
X186120000Y-42645000D02*
X187450000Y-42645000D01*
X186120000Y-43975000D02*
X186120000Y-42645000D01*
X188720000Y-42645000D02*
X191320000Y-42645000D01*
X188720000Y-45305000D02*
X188720000Y-42645000D01*
X188720000Y-45305000D02*
X191320000Y-45305000D01*
X191320000Y-45305000D02*
X191320000Y-42645000D01*
%TO.C,C11*%
X212365580Y-50990000D02*
X212084420Y-50990000D01*
X212365580Y-52010000D02*
X212084420Y-52010000D01*
%TO.C,R11*%
X209237258Y-68477500D02*
X208762742Y-68477500D01*
X209237258Y-69522500D02*
X208762742Y-69522500D01*
%TO.C,J2*%
X206630000Y-97170000D02*
X206630000Y-99830000D01*
X219390000Y-97170000D02*
X206630000Y-97170000D01*
X219390000Y-97170000D02*
X219390000Y-99830000D01*
X219390000Y-99830000D02*
X206630000Y-99830000D01*
X221990000Y-98500000D02*
X221990000Y-99830000D01*
X221990000Y-99830000D02*
X220660000Y-99830000D01*
%TO.C,U2*%
X189590000Y-62090000D02*
X190850000Y-62090000D01*
X189590000Y-65850000D02*
X189590000Y-62090000D01*
X196410000Y-62090000D02*
X195150000Y-62090000D01*
X196410000Y-65850000D02*
X196410000Y-62090000D01*
X189690000Y-67130000D02*
X189360000Y-67370000D01*
X189360000Y-66890000D01*
X189690000Y-67130000D01*
G36*
X189690000Y-67130000D02*
G01*
X189360000Y-67370000D01*
X189360000Y-66890000D01*
X189690000Y-67130000D01*
G37*
D13*
%TO.C,U4*%
X200000000Y-51530000D02*
X200000000Y-51900000D01*
X200080000Y-51900000D02*
X200000000Y-51900000D01*
X200920000Y-51900000D02*
X201000000Y-51900000D01*
X201000000Y-51530000D02*
X201000000Y-51900000D01*
D14*
X201150000Y-50250000D02*
G75*
G02*
X200950000Y-50250000I-100000J0D01*
G01*
X200950000Y-50250000D02*
G75*
G02*
X201150000Y-50250000I100000J0D01*
G01*
D12*
%TO.C,J3*%
X220130000Y-43170000D02*
X220130000Y-45830000D01*
X227810000Y-43170000D02*
X220130000Y-43170000D01*
X227810000Y-43170000D02*
X227810000Y-45830000D01*
X227810000Y-45830000D02*
X220130000Y-45830000D01*
X230410000Y-44500000D02*
X230410000Y-45830000D01*
X230410000Y-45830000D02*
X229080000Y-45830000D01*
%TO.C,R1*%
X225477500Y-68937742D02*
X225477500Y-69412258D01*
X226522500Y-68937742D02*
X226522500Y-69412258D01*
%TO.C,C8*%
X215990000Y-80359420D02*
X215990000Y-80640580D01*
X217010000Y-80359420D02*
X217010000Y-80640580D01*
%TO.C,Y1*%
X209490000Y-72240000D02*
X209490000Y-78910000D01*
X209490000Y-78910000D02*
X213510000Y-78910000D01*
X213510000Y-78910000D02*
X213510000Y-72240000D01*
%TO.C,C12*%
X191859420Y-56490000D02*
X192140580Y-56490000D01*
X191859420Y-57510000D02*
X192140580Y-57510000D01*
%TO.C,C2*%
X198584420Y-68490000D02*
X198865580Y-68490000D01*
X198584420Y-69510000D02*
X198865580Y-69510000D01*
%TO.C,R10*%
X214762742Y-54477500D02*
X215237258Y-54477500D01*
X214762742Y-55522500D02*
X215237258Y-55522500D01*
%TO.C,R5*%
X222437742Y-68477500D02*
X222912258Y-68477500D01*
X222437742Y-69522500D02*
X222912258Y-69522500D01*
%TO.C,SW1*%
X187150000Y-94750000D02*
X187150000Y-99150000D01*
X188650000Y-94750000D02*
X188750000Y-94750000D01*
X188650000Y-99150000D02*
X188750000Y-99150000D01*
X190250000Y-99150000D02*
X190250000Y-94750000D01*
D13*
%TO.C,D3*%
X187650000Y-53100000D02*
X186550000Y-53100000D01*
X187650000Y-54900000D02*
X186550000Y-54900000D01*
D14*
X189850000Y-54000000D02*
G75*
G02*
X189650000Y-54000000I-100000J0D01*
G01*
X189650000Y-54000000D02*
G75*
G02*
X189850000Y-54000000I100000J0D01*
G01*
D12*
%TO.C,R4*%
X200437742Y-97477500D02*
X200912258Y-97477500D01*
X200437742Y-98522500D02*
X200912258Y-98522500D01*
%TO.C,J1*%
X249170000Y-61810000D02*
X249170000Y-54130000D01*
X249170000Y-64410000D02*
X249170000Y-63080000D01*
X250500000Y-64410000D02*
X249170000Y-64410000D01*
X251830000Y-54130000D02*
X249170000Y-54130000D01*
X251830000Y-61810000D02*
X249170000Y-61810000D01*
X251830000Y-61810000D02*
X251830000Y-54130000D01*
%TO.C,C3*%
X213415580Y-83490000D02*
X213134420Y-83490000D01*
X213415580Y-84510000D02*
X213134420Y-84510000D01*
%TO.C,D4*%
X190400000Y-55135000D02*
X194285000Y-55135000D01*
X194285000Y-52865000D02*
X190400000Y-52865000D01*
X194285000Y-55135000D02*
X194285000Y-52865000D01*
%TO.C,C14*%
X215990000Y-73915580D02*
X215990000Y-73634420D01*
X217010000Y-73915580D02*
X217010000Y-73634420D01*
%TO.C,J5*%
X226550000Y-97170000D02*
X227880000Y-97170000D01*
X226550000Y-98500000D02*
X226550000Y-97170000D01*
X229150000Y-97170000D02*
X252070000Y-97170000D01*
X229150000Y-99830000D02*
X229150000Y-97170000D01*
X229150000Y-99830000D02*
X252070000Y-99830000D01*
X252070000Y-99830000D02*
X252070000Y-97170000D01*
D13*
%TO.C,STM32F401RET6*%
X220000000Y-73500000D02*
X220000000Y-74300000D01*
X220000000Y-82700000D02*
X220000000Y-83500000D01*
X220000000Y-83500000D02*
X220800000Y-83500000D01*
X220800000Y-73500000D02*
X220000000Y-73500000D01*
X229200000Y-83500000D02*
X230000000Y-83500000D01*
X230000000Y-73500000D02*
X229200000Y-73500000D01*
X230000000Y-74300000D02*
X230000000Y-73500000D01*
X230000000Y-83500000D02*
X230000000Y-82700000D01*
D14*
X219150000Y-74000000D02*
G75*
G02*
X218950000Y-74000000I-100000J0D01*
G01*
X218950000Y-74000000D02*
G75*
G02*
X219150000Y-74000000I100000J0D01*
G01*
D13*
X221447213Y-74600000D02*
G75*
G02*
X220552787Y-74600000I-447213J0D01*
G01*
X220552787Y-74600000D02*
G75*
G02*
X221447213Y-74600000I447213J0D01*
G01*
D12*
%TO.C,R2*%
X225437742Y-65477500D02*
X225912258Y-65477500D01*
X225437742Y-66522500D02*
X225912258Y-66522500D01*
%TO.C,R9*%
X196412258Y-52477500D02*
X195937742Y-52477500D01*
X196412258Y-53522500D02*
X195937742Y-53522500D01*
%TO.C,C10*%
X228865580Y-85990000D02*
X228584420Y-85990000D01*
X228865580Y-87010000D02*
X228584420Y-87010000D01*
%TO.C,R3*%
X186477500Y-72062258D02*
X186477500Y-71587742D01*
X187522500Y-72062258D02*
X187522500Y-71587742D01*
D13*
%TO.C,U3*%
X203270000Y-56100000D02*
X203270000Y-54900000D01*
X205730000Y-56100000D02*
X205730000Y-54900000D01*
D14*
X203850000Y-57100000D02*
G75*
G02*
X203650000Y-57100000I-100000J0D01*
G01*
X203650000Y-57100000D02*
G75*
G02*
X203850000Y-57100000I100000J0D01*
G01*
D12*
%TO.C,C6*%
X233490000Y-72584420D02*
X233490000Y-72865580D01*
X234510000Y-72584420D02*
X234510000Y-72865580D01*
%TO.C,C7*%
X219084420Y-69490000D02*
X219365580Y-69490000D01*
X219084420Y-70510000D02*
X219365580Y-70510000D01*
%TD*%
M02*
