%TF.GenerationSoftware,KiCad,Pcbnew,9.0.4*%
%TF.CreationDate,2026-09-16T21:18:02+05:30*%
%TF.ProjectId,STMt1,53544d74-312e-46b6-9963-61645f706362,rev?*%
%TF.SameCoordinates,Original*%
%TF.FileFunction,Copper,L1,Top*%
%TF.FilePolarity,Positive*%
%FSLAX46Y46*%
G04 Gerber Fmt 4.6, Leading zero omitted, Abs format (unit mm)*
G04 Created by KiCad (PCBNEW 9.0.4) date 2026-09-16 21:18:02*
%MOMM*%
%LPD*%
G01*
G04 APERTURE LIST*
G04 Aperture macros list*
%AMRoundRect*
0 Rectangle with rounded corners*
0 $1 Rounding radius*
0 $2 $3 $4 $5 $6 $7 $8 $9 X,Y pos of 4 corners*
0 Add a 4 corners polygon primitive as box body*
4,1,4,$2,$3,$4,$5,$6,$7,$8,$9,$2,$3,0*
0 Add four circle primitives for the rounded corners*
1,1,$1+$1,$2,$3*
1,1,$1+$1,$4,$5*
1,1,$1+$1,$6,$7*
1,1,$1+$1,$8,$9*
0 Add four rect primitives between the rounded corners*
20,1,$1+$1,$2,$3,$4,$5,0*
20,1,$1+$1,$4,$5,$6,$7,0*
20,1,$1+$1,$6,$7,$8,$9,0*
20,1,$1+$1,$8,$9,$2,$3,0*%
G04 Aperture macros list end*
%TA.AperFunction,SMDPad,CuDef*%
%ADD10RoundRect,0.250000X0.375000X0.625000X-0.375000X0.625000X-0.375000X-0.625000X0.375000X-0.625000X0*%
%TD*%
%TA.AperFunction,SMDPad,CuDef*%
%ADD11RoundRect,0.200000X0.275000X-0.200000X0.275000X0.200000X-0.275000X0.200000X-0.275000X-0.200000X0*%
%TD*%
%TA.AperFunction,SMDPad,CuDef*%
%ADD12RoundRect,0.225000X-0.225000X-0.250000X0.225000X-0.250000X0.225000X0.250000X-0.225000X0.250000X0*%
%TD*%
%TA.AperFunction,SMDPad,CuDef*%
%ADD13R,1.000000X0.900000*%
%TD*%
%TA.AperFunction,SMDPad,CuDef*%
%ADD14RoundRect,0.218750X-0.256250X0.218750X-0.256250X-0.218750X0.256250X-0.218750X0.256250X0.218750X0*%
%TD*%
%TA.AperFunction,SMDPad,CuDef*%
%ADD15RoundRect,0.225000X0.225000X0.250000X-0.225000X0.250000X-0.225000X-0.250000X0.225000X-0.250000X0*%
%TD*%
%TA.AperFunction,SMDPad,CuDef*%
%ADD16RoundRect,0.225000X-0.250000X0.225000X-0.250000X-0.225000X0.250000X-0.225000X0.250000X0.225000X0*%
%TD*%
%TA.AperFunction,SMDPad,CuDef*%
%ADD17RoundRect,0.200000X-0.200000X-0.275000X0.200000X-0.275000X0.200000X0.275000X-0.200000X0.275000X0*%
%TD*%
%TA.AperFunction,SMDPad,CuDef*%
%ADD18RoundRect,0.218750X-0.218750X-0.256250X0.218750X-0.256250X0.218750X0.256250X-0.218750X0.256250X0*%
%TD*%
%TA.AperFunction,SMDPad,CuDef*%
%ADD19R,0.600000X1.240000*%
%TD*%
%TA.AperFunction,SMDPad,CuDef*%
%ADD20R,0.300000X1.240000*%
%TD*%
%TA.AperFunction,HeatsinkPad*%
%ADD21O,1.000000X2.100000*%
%TD*%
%TA.AperFunction,HeatsinkPad*%
%ADD22O,1.000000X1.800000*%
%TD*%
%TA.AperFunction,ComponentPad*%
%ADD23R,1.700000X1.700000*%
%TD*%
%TA.AperFunction,ComponentPad*%
%ADD24C,1.700000*%
%TD*%
%TA.AperFunction,SMDPad,CuDef*%
%ADD25RoundRect,0.200000X0.200000X0.275000X-0.200000X0.275000X-0.200000X-0.275000X0.200000X-0.275000X0*%
%TD*%
%TA.AperFunction,SMDPad,CuDef*%
%ADD26RoundRect,0.375000X0.375000X-0.625000X0.375000X0.625000X-0.375000X0.625000X-0.375000X-0.625000X0*%
%TD*%
%TA.AperFunction,SMDPad,CuDef*%
%ADD27RoundRect,0.500000X1.400000X-0.500000X1.400000X0.500000X-1.400000X0.500000X-1.400000X-0.500000X0*%
%TD*%
%TA.AperFunction,SMDPad,CuDef*%
%ADD28RoundRect,0.025000X-0.075000X0.205000X-0.075000X-0.205000X0.075000X-0.205000X0.075000X0.205000X0*%
%TD*%
%TA.AperFunction,SMDPad,CuDef*%
%ADD29RoundRect,0.200000X-0.275000X0.200000X-0.275000X-0.200000X0.275000X-0.200000X0.275000X0.200000X0*%
%TD*%
%TA.AperFunction,SMDPad,CuDef*%
%ADD30RoundRect,0.250000X1.000000X-0.700000X1.000000X0.700000X-1.000000X0.700000X-1.000000X-0.700000X0*%
%TD*%
%TA.AperFunction,SMDPad,CuDef*%
%ADD31RoundRect,0.152500X0.467500X0.457500X-0.467500X0.457500X-0.467500X-0.457500X0.467500X-0.457500X0*%
%TD*%
%TA.AperFunction,SMDPad,CuDef*%
%ADD32RoundRect,0.225000X0.250000X-0.225000X0.250000X0.225000X-0.250000X0.225000X-0.250000X-0.225000X0*%
%TD*%
%TA.AperFunction,SMDPad,CuDef*%
%ADD33R,1.500000X0.300000*%
%TD*%
%TA.AperFunction,SMDPad,CuDef*%
%ADD34R,0.300000X1.500000*%
%TD*%
%TA.AperFunction,SMDPad,CuDef*%
%ADD35RoundRect,0.040000X0.120000X-0.290000X0.120000X0.290000X-0.120000X0.290000X-0.120000X-0.290000X0*%
%TD*%
%TA.AperFunction,ViaPad*%
%ADD36C,0.800000*%
%TD*%
%TA.AperFunction,Conductor*%
%ADD37C,0.250000*%
%TD*%
%TA.AperFunction,Conductor*%
%ADD38C,0.500000*%
%TD*%
G04 APERTURE END LIST*
D10*
%TO.P,F1,1*%
%TO.N,/MCU/Ext_5V*%
X190500000Y-49000000D03*
%TO.P,F1,2*%
%TO.N,Net-(D3-A)*%
X187700000Y-49000000D03*
%TD*%
D11*
%TO.P,R6,1*%
%TO.N,U_BTN1*%
X188000000Y-93150000D03*
%TO.P,R6,2*%
%TO.N,+3V3*%
X188000000Y-91500000D03*
%TD*%
D12*
%TO.P,C5,1*%
%TO.N,GND*%
X232000000Y-86500000D03*
%TO.P,C5,2*%
%TO.N,+3V3*%
X233550000Y-86500000D03*
%TD*%
%TO.P,C4,1*%
%TO.N,GND*%
X219450000Y-87500000D03*
%TO.P,C4,2*%
%TO.N,+3V3*%
X221000000Y-87500000D03*
%TD*%
D13*
%TO.P,SW2,1,1*%
%TO.N,GND*%
X189300000Y-83450000D03*
X189300000Y-87550000D03*
%TO.P,SW2,2,2*%
%TO.N,NRST1*%
X187700000Y-83450000D03*
X187700000Y-87550000D03*
%TD*%
D14*
%TO.P,D1,1,K*%
%TO.N,GND*%
X187000000Y-66712500D03*
%TO.P,D1,2,A*%
%TO.N,Net-(D1-A)*%
X187000000Y-68287500D03*
%TD*%
D11*
%TO.P,R7,1*%
%TO.N,NRST1*%
X187000000Y-77150000D03*
%TO.P,R7,2*%
%TO.N,+3V3*%
X187000000Y-75500000D03*
%TD*%
D15*
%TO.P,C13,1*%
%TO.N,/MCU/SYS_5V*%
X204550000Y-70500000D03*
%TO.P,C13,2*%
%TO.N,GND*%
X203000000Y-70500000D03*
%TD*%
D12*
%TO.P,C15,1*%
%TO.N,/MCU/OSCout*%
X211950000Y-80000000D03*
%TO.P,C15,2*%
%TO.N,GND*%
X213500000Y-80000000D03*
%TD*%
D16*
%TO.P,C9,1*%
%TO.N,GND*%
X215000000Y-79725000D03*
%TO.P,C9,2*%
%TO.N,+3V3*%
X215000000Y-81275000D03*
%TD*%
%TO.P,C1,1*%
%TO.N,NRST1*%
X191500000Y-77450000D03*
%TO.P,C1,2*%
%TO.N,GND*%
X191500000Y-79000000D03*
%TD*%
D17*
%TO.P,R8,1*%
%TO.N,Net-(J7-CC1)*%
X207850000Y-50000000D03*
%TO.P,R8,2*%
%TO.N,GND*%
X209500000Y-50000000D03*
%TD*%
D18*
%TO.P,D2,1,K*%
%TO.N,GND*%
X195712500Y-98000000D03*
%TO.P,D2,2,A*%
%TO.N,Net-(D2-A)*%
X197287500Y-98000000D03*
%TD*%
D19*
%TO.P,J7,A1,GND*%
%TO.N,GND*%
X203200000Y-48225000D03*
%TO.P,J7,A4,VBUS*%
%TO.N,/MCU/USB_5V*%
X202400000Y-48225000D03*
D20*
%TO.P,J7,A5,CC1*%
%TO.N,Net-(J7-CC1)*%
X201250000Y-48225000D03*
%TO.P,J7,A6,D+*%
%TO.N,/MCU/USB_D+*%
X200250000Y-48225000D03*
%TO.P,J7,A7,D-*%
%TO.N,/MCU/USB_D-*%
X199750000Y-48225000D03*
%TO.P,J7,A8,SBU1*%
%TO.N,unconnected-(J7-SBU1-PadA8)*%
X198750000Y-48225000D03*
D19*
%TO.P,J7,A9,VBUS*%
%TO.N,/MCU/USB_5V*%
X197600000Y-48225000D03*
%TO.P,J7,A12,GND*%
%TO.N,GND*%
X196800000Y-48225000D03*
%TO.P,J7,B1,GND*%
X196800000Y-48225000D03*
%TO.P,J7,B4,VBUS*%
%TO.N,/MCU/USB_5V*%
X197600000Y-48225000D03*
D20*
%TO.P,J7,B5,CC2*%
%TO.N,Net-(J7-CC2)*%
X198250000Y-48225000D03*
%TO.P,J7,B6,D+*%
%TO.N,/MCU/USB_D+*%
X199250000Y-48225000D03*
%TO.P,J7,B7,D-*%
%TO.N,/MCU/USB_D-*%
X200750000Y-48225000D03*
%TO.P,J7,B8,SBU2*%
%TO.N,unconnected-(J7-SBU2-PadB8)*%
X201750000Y-48225000D03*
D19*
%TO.P,J7,B9,VBUS*%
%TO.N,/MCU/USB_5V*%
X202400000Y-48225000D03*
%TO.P,J7,B12,GND*%
%TO.N,GND*%
X203200000Y-48225000D03*
D21*
%TO.P,J7,S1,SHIELD*%
X204320000Y-47625000D03*
D22*
X204320000Y-43425000D03*
D21*
X195680000Y-47625000D03*
D22*
X195680000Y-43425000D03*
%TD*%
D23*
%TO.P,J6,1,Pin_1*%
%TO.N,+3V3*%
X250500000Y-70880000D03*
D24*
%TO.P,J6,2,Pin_2*%
%TO.N,/MCU/SWDIO*%
X250500000Y-73420000D03*
%TO.P,J6,3,Pin_3*%
%TO.N,GND*%
X250500000Y-75960000D03*
%TO.P,J6,4,Pin_4*%
%TO.N,/MCU/SWCLK*%
X250500000Y-78500000D03*
%TO.P,J6,5,Pin_5*%
%TO.N,NRST1*%
X250500000Y-81040000D03*
%TD*%
D23*
%TO.P,J4,1,Pin_1*%
%TO.N,/MCU/Ext_5V*%
X187450000Y-43975000D03*
D24*
%TO.P,J4,2,Pin_2*%
%TO.N,GND*%
X189990000Y-43975000D03*
%TD*%
D15*
%TO.P,C11,1*%
%TO.N,/MCU/USB_5V*%
X213000000Y-51500000D03*
%TO.P,C11,2*%
%TO.N,GND*%
X211450000Y-51500000D03*
%TD*%
D25*
%TO.P,R11,1*%
%TO.N,Net-(U3-PR1)*%
X209825000Y-69000000D03*
%TO.P,R11,2*%
%TO.N,GND*%
X208175000Y-69000000D03*
%TD*%
D23*
%TO.P,J2,1,Pin_1*%
%TO.N,/MCU/SPI_SCK*%
X220660000Y-98500000D03*
D24*
%TO.P,J2,2,Pin_2*%
%TO.N,/MCU/SPI_MOSI*%
X218120000Y-98500000D03*
%TO.P,J2,3,Pin_3*%
%TO.N,/MCU/SPI_MISO*%
X215580000Y-98500000D03*
%TO.P,J2,4,Pin_4*%
%TO.N,/MCU/SPI_CS*%
X213040000Y-98500000D03*
%TO.P,J2,5,Pin_5*%
%TO.N,+3V3*%
X210500000Y-98500000D03*
%TO.P,J2,6,Pin_6*%
%TO.N,GND*%
X207960000Y-98500000D03*
%TD*%
D26*
%TO.P,U2,1,GND*%
%TO.N,GND*%
X190700000Y-67150000D03*
%TO.P,U2,2,VO*%
%TO.N,+3V3*%
X193000000Y-67150000D03*
D27*
X193000000Y-60850000D03*
D26*
%TO.P,U2,3,VI*%
%TO.N,/MCU/SYS_5V*%
X195300000Y-67150000D03*
%TD*%
D28*
%TO.P,U4,1,D+*%
%TO.N,/MCU/USB_D+*%
X200850000Y-50980000D03*
%TO.P,U4,2,D-*%
%TO.N,/MCU/USB_D-*%
X200150000Y-50980000D03*
%TO.P,U4,3,GND*%
%TO.N,GND*%
X200500000Y-52020000D03*
%TD*%
D23*
%TO.P,J3,1,Pin_1*%
%TO.N,/MCU/I2C_SCL*%
X229080000Y-44500000D03*
D24*
%TO.P,J3,2,Pin_2*%
%TO.N,/MCU/I2C_SDA*%
X226540000Y-44500000D03*
%TO.P,J3,3,Pin_3*%
%TO.N,+3V3*%
X224000000Y-44500000D03*
%TO.P,J3,4,Pin_4*%
%TO.N,GND*%
X221460000Y-44500000D03*
%TD*%
D29*
%TO.P,R1,1*%
%TO.N,+3V3*%
X226000000Y-68350000D03*
%TO.P,R1,2*%
%TO.N,/MCU/I2C_SCL*%
X226000000Y-70000000D03*
%TD*%
D16*
%TO.P,C8,1*%
%TO.N,GND*%
X216500000Y-79725000D03*
%TO.P,C8,2*%
%TO.N,+3V3*%
X216500000Y-81275000D03*
%TD*%
D30*
%TO.P,Y1,1,1*%
%TO.N,/MCU/OSCout*%
X211500000Y-77700000D03*
%TO.P,Y1,2,2*%
%TO.N,/MCU/OSCin*%
X211500000Y-73300000D03*
%TD*%
D12*
%TO.P,C12,1*%
%TO.N,/MCU/Ext_5V_Prot*%
X191225000Y-57000000D03*
%TO.P,C12,2*%
%TO.N,GND*%
X192775000Y-57000000D03*
%TD*%
%TO.P,C2,1*%
%TO.N,/MCU/SYS_5V*%
X197950000Y-69000000D03*
%TO.P,C2,2*%
%TO.N,GND*%
X199500000Y-69000000D03*
%TD*%
D17*
%TO.P,R10,1*%
%TO.N,/MCU/USB_5V*%
X214175000Y-55000000D03*
%TO.P,R10,2*%
%TO.N,Net-(U3-PR1)*%
X215825000Y-55000000D03*
%TD*%
%TO.P,R5,1*%
%TO.N,GND*%
X221850000Y-69000000D03*
%TO.P,R5,2*%
%TO.N,Net-(U1A-BOOT0)*%
X223500000Y-69000000D03*
%TD*%
D13*
%TO.P,SW1,1,1*%
%TO.N,GND*%
X189500000Y-94900000D03*
X189500000Y-99000000D03*
%TO.P,SW1,2,2*%
%TO.N,U_BTN1*%
X187900000Y-94900000D03*
X187900000Y-99000000D03*
%TD*%
D31*
%TO.P,D3,1,K*%
%TO.N,/MCU/Ext_5V_Prot*%
X188590000Y-54000000D03*
%TO.P,D3,2,A*%
%TO.N,Net-(D3-A)*%
X185610000Y-54000000D03*
%TD*%
D17*
%TO.P,R4,1*%
%TO.N,Net-(D2-A)*%
X199850000Y-98000000D03*
%TO.P,R4,2*%
%TO.N,Net-(U1A-PB0)*%
X201500000Y-98000000D03*
%TD*%
D23*
%TO.P,J1,1,Pin_1*%
%TO.N,/MCU/Tx*%
X250500000Y-63080000D03*
D24*
%TO.P,J1,2,Pin_2*%
%TO.N,/MCU/Rx*%
X250500000Y-60540000D03*
%TO.P,J1,3,Pin_3*%
%TO.N,+3V3*%
X250500000Y-58000000D03*
%TO.P,J1,4,Pin_4*%
%TO.N,GND*%
X250500000Y-55460000D03*
%TD*%
D15*
%TO.P,C3,1*%
%TO.N,+3V3*%
X214050000Y-84000000D03*
%TO.P,C3,2*%
%TO.N,GND*%
X212500000Y-84000000D03*
%TD*%
D10*
%TO.P,D4,1,A1*%
%TO.N,GND*%
X193400000Y-54000000D03*
%TO.P,D4,2,A2*%
%TO.N,/MCU/Ext_5V_Prot*%
X190600000Y-54000000D03*
%TD*%
D32*
%TO.P,C14,1*%
%TO.N,/MCU/OSCin*%
X216500000Y-74550000D03*
%TO.P,C14,2*%
%TO.N,GND*%
X216500000Y-73000000D03*
%TD*%
D23*
%TO.P,J5,1,Pin_1*%
%TO.N,/MCU/GPIO_PA1*%
X227880000Y-98500000D03*
D24*
%TO.P,J5,2,Pin_2*%
%TO.N,/MCU/GPIO_PA2*%
X230420000Y-98500000D03*
%TO.P,J5,3,Pin_3*%
%TO.N,/MCU/GPIO_PA3*%
X232960000Y-98500000D03*
%TO.P,J5,4,Pin_4*%
%TO.N,/MCU/GPIO_PA8*%
X235500000Y-98500000D03*
%TO.P,J5,5,Pin_5*%
%TO.N,/MCU/GPIO_PB1*%
X238040000Y-98500000D03*
%TO.P,J5,6,Pin_6*%
%TO.N,/MCU/GPIO_PB2*%
X240580000Y-98500000D03*
%TO.P,J5,7,Pin_7*%
%TO.N,/MCU/GPIO_PB10*%
X243120000Y-98500000D03*
%TO.P,J5,8,Pin_8*%
%TO.N,/MCU/GPIO_PB12*%
X245660000Y-98500000D03*
%TO.P,J5,9,Pin_9*%
%TO.N,+3V3*%
X248200000Y-98500000D03*
%TO.P,J5,10,Pin_10*%
%TO.N,GND*%
X250740000Y-98500000D03*
%TD*%
D33*
%TO.P,STM32F401RET6,1,VBAT*%
%TO.N,+3V3*%
X219330000Y-74750000D03*
%TO.P,STM32F401RET6,2,PC13*%
%TO.N,unconnected-(U1A-PC13-Pad2)*%
X219330000Y-75250000D03*
%TO.P,STM32F401RET6,3,PC14-OSC32_IN*%
%TO.N,unconnected-(U1A-PC14-OSC32_IN-Pad3)*%
X219330000Y-75750000D03*
%TO.P,STM32F401RET6,4,PC15-OSC32_OUT*%
%TO.N,unconnected-(U1A-PC15-OSC32_OUT-Pad4)*%
X219330000Y-76250000D03*
%TO.P,STM32F401RET6,5,PH0-OSC_IN*%
%TO.N,/MCU/OSCin*%
X219330000Y-76750000D03*
%TO.P,STM32F401RET6,6,PH1*%
%TO.N,/MCU/OSCout*%
X219330000Y-77250000D03*
%TO.P,STM32F401RET6,7,NRST*%
%TO.N,NRST1*%
X219330000Y-77750000D03*
%TO.P,STM32F401RET6,8,PC0*%
%TO.N,unconnected-(U1A-PC0-Pad8)*%
X219330000Y-78250000D03*
%TO.P,STM32F401RET6,9,PC1*%
%TO.N,unconnected-(U1A-PC1-Pad9)*%
X219330000Y-78750000D03*
%TO.P,STM32F401RET6,10,PC2*%
%TO.N,unconnected-(U1A-PC2-Pad10)*%
X219330000Y-79250000D03*
%TO.P,STM32F401RET6,11,PC3*%
%TO.N,unconnected-(U1A-PC3-Pad11)*%
X219330000Y-79750000D03*
%TO.P,STM32F401RET6,12,VSSA/VREF-*%
%TO.N,GND*%
X219330000Y-80250000D03*
%TO.P,STM32F401RET6,13,VDDA/VREF+*%
%TO.N,+3V3*%
X219330000Y-80750000D03*
%TO.P,STM32F401RET6,14,PA0*%
%TO.N,U_BTN1*%
X219330000Y-81250000D03*
%TO.P,STM32F401RET6,15,PA1*%
%TO.N,/MCU/GPIO_PA1*%
X219330000Y-81750000D03*
%TO.P,STM32F401RET6,16,PA2*%
%TO.N,/MCU/GPIO_PA2*%
X219330000Y-82250000D03*
D34*
%TO.P,STM32F401RET6,17,PA3*%
%TO.N,/MCU/GPIO_PA3*%
X221250000Y-84170000D03*
%TO.P,STM32F401RET6,18,VSS*%
%TO.N,GND*%
X221750000Y-84170000D03*
%TO.P,STM32F401RET6,19,VDD*%
%TO.N,+3V3*%
X222250000Y-84170000D03*
%TO.P,STM32F401RET6,20,PA4*%
%TO.N,/MCU/SPI_CS*%
X222750000Y-84170000D03*
%TO.P,STM32F401RET6,21,PA5*%
%TO.N,/MCU/SPI_SCK*%
X223250000Y-84170000D03*
%TO.P,STM32F401RET6,22,PA6*%
%TO.N,/MCU/SPI_MISO*%
X223750000Y-84170000D03*
%TO.P,STM32F401RET6,23,PA7*%
%TO.N,/MCU/SPI_MOSI*%
X224250000Y-84170000D03*
%TO.P,STM32F401RET6,24,PC4*%
%TO.N,unconnected-(U1A-PC4-Pad24)*%
X224750000Y-84170000D03*
%TO.P,STM32F401RET6,25,PC5*%
%TO.N,unconnected-(U1A-PC5-Pad25)*%
X225250000Y-84170000D03*
%TO.P,STM32F401RET6,26,PB0*%
%TO.N,Net-(U1A-PB0)*%
X225750000Y-84170000D03*
%TO.P,STM32F401RET6,27,PB1*%
%TO.N,/MCU/GPIO_PB1*%
X226250000Y-84170000D03*
%TO.P,STM32F401RET6,28,PB2*%
%TO.N,/MCU/GPIO_PB2*%
X226750000Y-84170000D03*
%TO.P,STM32F401RET6,29,PB10*%
%TO.N,/MCU/GPIO_PB10*%
X227250000Y-84170000D03*
%TO.P,STM32F401RET6,30,VCAP1*%
%TO.N,Net-(U1B-VCAP1)*%
X227750000Y-84170000D03*
%TO.P,STM32F401RET6,31,VSS*%
%TO.N,GND*%
X228250000Y-84170000D03*
%TO.P,STM32F401RET6,32,VDD*%
%TO.N,+3V3*%
X228750000Y-84170000D03*
D33*
%TO.P,STM32F401RET6,33,PB12*%
%TO.N,/MCU/GPIO_PB12*%
X230670000Y-82250000D03*
%TO.P,STM32F401RET6,34,PB13*%
%TO.N,unconnected-(U1A-PB13-Pad34)*%
X230670000Y-81750000D03*
%TO.P,STM32F401RET6,35,PB14*%
%TO.N,unconnected-(U1A-PB14-Pad35)*%
X230670000Y-81250000D03*
%TO.P,STM32F401RET6,36,PB15*%
%TO.N,unconnected-(U1A-PB15-Pad36)*%
X230670000Y-80750000D03*
%TO.P,STM32F401RET6,37,PC6*%
%TO.N,unconnected-(U1A-PC6-Pad37)*%
X230670000Y-80250000D03*
%TO.P,STM32F401RET6,38,PC7*%
%TO.N,unconnected-(U1A-PC7-Pad38)*%
X230670000Y-79750000D03*
%TO.P,STM32F401RET6,39,PC8*%
%TO.N,unconnected-(U1A-PC8-Pad39)*%
X230670000Y-79250000D03*
%TO.P,STM32F401RET6,40,PC9*%
%TO.N,unconnected-(U1A-PC9-Pad40)*%
X230670000Y-78750000D03*
%TO.P,STM32F401RET6,41,PA8*%
%TO.N,/MCU/GPIO_PA8*%
X230670000Y-78250000D03*
%TO.P,STM32F401RET6,42,PA9*%
%TO.N,/MCU/Tx*%
X230670000Y-77750000D03*
%TO.P,STM32F401RET6,43,PA10*%
%TO.N,/MCU/Rx*%
X230670000Y-77250000D03*
%TO.P,STM32F401RET6,44,PA11*%
%TO.N,/MCU/USB_D-*%
X230670000Y-76750000D03*
%TO.P,STM32F401RET6,45,PA12*%
%TO.N,/MCU/USB_D+*%
X230670000Y-76250000D03*
%TO.P,STM32F401RET6,46,PA13*%
%TO.N,/MCU/SWDIO*%
X230670000Y-75750000D03*
%TO.P,STM32F401RET6,47,VSS*%
%TO.N,GND*%
X230670000Y-75250000D03*
%TO.P,STM32F401RET6,48,VDD*%
%TO.N,+3V3*%
X230670000Y-74750000D03*
D34*
%TO.P,STM32F401RET6,49,PA14*%
%TO.N,/MCU/SWCLK*%
X228750000Y-72830000D03*
%TO.P,STM32F401RET6,50,PA15*%
%TO.N,unconnected-(U1A-PA15-Pad50)*%
X228250000Y-72830000D03*
%TO.P,STM32F401RET6,51,PC10*%
%TO.N,unconnected-(U1A-PC10-Pad51)*%
X227750000Y-72830000D03*
%TO.P,STM32F401RET6,52,PC11*%
%TO.N,unconnected-(U1A-PC11-Pad52)*%
X227250000Y-72830000D03*
%TO.P,STM32F401RET6,53,PC12*%
%TO.N,unconnected-(U1A-PC12-Pad53)*%
X226750000Y-72830000D03*
%TO.P,STM32F401RET6,54,PD2*%
%TO.N,unconnected-(U1A-PD2-Pad54)*%
X226250000Y-72830000D03*
%TO.P,STM32F401RET6,55,PB3*%
%TO.N,unconnected-(U1A-PB3-Pad55)*%
X225750000Y-72830000D03*
%TO.P,STM32F401RET6,56,PB4*%
%TO.N,unconnected-(U1A-PB4-Pad56)*%
X225250000Y-72830000D03*
%TO.P,STM32F401RET6,57,PB5*%
%TO.N,unconnected-(U1A-PB5-Pad57)*%
X224750000Y-72830000D03*
%TO.P,STM32F401RET6,58,PB6*%
%TO.N,/MCU/I2C_SCL*%
X224250000Y-72830000D03*
%TO.P,STM32F401RET6,59,PB7*%
%TO.N,/MCU/I2C_SDA*%
X223750000Y-72830000D03*
%TO.P,STM32F401RET6,60,BOOT0*%
%TO.N,Net-(U1A-BOOT0)*%
X223250000Y-72830000D03*
%TO.P,STM32F401RET6,61,PB8*%
%TO.N,unconnected-(U1A-PB8-Pad61)*%
X222750000Y-72830000D03*
%TO.P,STM32F401RET6,62,PB9*%
%TO.N,unconnected-(U1A-PB9-Pad62)*%
X222250000Y-72830000D03*
%TO.P,STM32F401RET6,63,VSS*%
%TO.N,GND*%
X221750000Y-72830000D03*
%TO.P,STM32F401RET6,64,VDD*%
%TO.N,+3V3*%
X221250000Y-72830000D03*
%TD*%
D17*
%TO.P,R2,1*%
%TO.N,+3V3*%
X224850000Y-66000000D03*
%TO.P,R2,2*%
%TO.N,/MCU/I2C_SDA*%
X226500000Y-66000000D03*
%TD*%
D25*
%TO.P,R9,1*%
%TO.N,Net-(J7-CC2)*%
X197000000Y-53000000D03*
%TO.P,R9,2*%
%TO.N,GND*%
X195350000Y-53000000D03*
%TD*%
D15*
%TO.P,C10,1*%
%TO.N,GND*%
X229500000Y-86500000D03*
%TO.P,C10,2*%
%TO.N,Net-(U1B-VCAP1)*%
X227950000Y-86500000D03*
%TD*%
D11*
%TO.P,R3,1*%
%TO.N,+3V3*%
X187000000Y-72650000D03*
%TO.P,R3,2*%
%TO.N,Net-(D1-A)*%
X187000000Y-71000000D03*
%TD*%
D35*
%TO.P,U3,1,GND*%
%TO.N,GND*%
X203750000Y-56235000D03*
%TO.P,U3,2,VOUT*%
%TO.N,/MCU/SYS_5V*%
X204250000Y-56235000D03*
%TO.P,U3,3,VIN1*%
%TO.N,/MCU/USB_5V*%
X204750000Y-56235000D03*
%TO.P,U3,4,PR1*%
%TO.N,Net-(U3-PR1)*%
X205250000Y-56235000D03*
%TO.P,U3,5,MODE*%
%TO.N,/MCU/USB_5V*%
X205250000Y-54765000D03*
%TO.P,U3,6,VIN2*%
%TO.N,/MCU/Ext_5V_Prot*%
X204750000Y-54765000D03*
%TO.P,U3,7,VOUT*%
%TO.N,/MCU/SYS_5V*%
X204250000Y-54765000D03*
%TO.P,U3,8,ST*%
%TO.N,unconnected-(U3-ST-Pad8)*%
X203750000Y-54765000D03*
%TD*%
D16*
%TO.P,C6,1*%
%TO.N,GND*%
X234000000Y-71950000D03*
%TO.P,C6,2*%
%TO.N,+3V3*%
X234000000Y-73500000D03*
%TD*%
D12*
%TO.P,C7,1*%
%TO.N,GND*%
X218450000Y-70000000D03*
%TO.P,C7,2*%
%TO.N,+3V3*%
X220000000Y-70000000D03*
%TD*%
D36*
%TO.N,GND*%
X194000000Y-80000000D03*
X190950000Y-87550000D03*
X223070000Y-75250000D03*
X234000000Y-75000000D03*
X189500000Y-69500000D03*
X193000000Y-44000000D03*
X205000000Y-50000000D03*
X191500000Y-95000000D03*
X215500000Y-70000000D03*
X213000000Y-81000000D03*
X198500000Y-52500000D03*
X218000000Y-89000000D03*
X234000000Y-91500000D03*
%TO.N,NRST1*%
X222000000Y-78000000D03*
%TO.N,+3V3*%
X219500000Y-89000000D03*
X227500000Y-67000000D03*
X230500000Y-69000000D03*
X222500000Y-67000000D03*
%TO.N,/MCU/SPI_SCK*%
X223001944Y-85511278D03*
%TO.N,/MCU/SPI_CS*%
X222500000Y-82500000D03*
%TO.N,/MCU/GPIO_PB2*%
X226750000Y-82250000D03*
%TO.N,/MCU/GPIO_PA2*%
X216500000Y-83500000D03*
%TO.N,/MCU/GPIO_PB12*%
X233500000Y-82500000D03*
%TO.N,/MCU/GPIO_PB10*%
X228012653Y-82487347D03*
%TO.N,/MCU/GPIO_PA3*%
X224000000Y-81000000D03*
%TO.N,/MCU/GPIO_PA1*%
X221000000Y-81000000D03*
%TO.N,/MCU/SWDIO*%
X232500000Y-76000000D03*
%TO.N,/MCU/SWCLK*%
X230500000Y-73000000D03*
%TO.N,/MCU/USB_D+*%
X202398959Y-52101041D03*
X199553798Y-46553798D03*
X229012653Y-75987347D03*
%TO.N,/MCU/USB_D-*%
X229000000Y-77000000D03*
X199000000Y-50000000D03*
%TO.N,U_BTN1*%
X216487347Y-82487347D03*
X191000000Y-93000000D03*
%TD*%
D37*
%TO.N,GND*%
X187000000Y-53984072D02*
X188185072Y-52799000D01*
X203000000Y-70500000D02*
X204500000Y-69000000D01*
X190700000Y-68300000D02*
X189500000Y-69500000D01*
X216500000Y-72000000D02*
X216500000Y-73000000D01*
X219450000Y-87550000D02*
X218000000Y-89000000D01*
X191500000Y-79000000D02*
X193000000Y-79000000D01*
X216500000Y-79725000D02*
X215000000Y-79725000D01*
X193400000Y-54000000D02*
X194350000Y-54000000D01*
X234000000Y-71950000D02*
X234000000Y-66500000D01*
X189500000Y-94900000D02*
X191400000Y-94900000D01*
X194350000Y-54000000D02*
X195350000Y-53000000D01*
X217025000Y-80250000D02*
X219330000Y-80250000D01*
X199500000Y-69000000D02*
X201500000Y-69000000D01*
X188185072Y-52799000D02*
X192199000Y-52799000D01*
X233000000Y-90500000D02*
X234000000Y-91500000D01*
X189500000Y-69500000D02*
X189750000Y-69250000D01*
X196513500Y-97199000D02*
X206659000Y-97199000D01*
X189300000Y-83450000D02*
X189300000Y-81200000D01*
X216500000Y-72000000D02*
X216500000Y-70500000D01*
X221750000Y-73882000D02*
X221750000Y-72830000D01*
X195712500Y-98000000D02*
X190500000Y-98000000D01*
X211000000Y-51500000D02*
X209500000Y-50000000D01*
X198980000Y-52020000D02*
X198500000Y-52500000D01*
X192775000Y-57000000D02*
X190700000Y-59075000D01*
X192199000Y-52799000D02*
X193400000Y-54000000D01*
X200500000Y-52020000D02*
X198980000Y-52020000D01*
X195350000Y-49675000D02*
X196800000Y-48225000D01*
X190700000Y-67150000D02*
X190700000Y-68300000D01*
X221750000Y-69100000D02*
X221850000Y-69000000D01*
X216500000Y-70500000D02*
X217000000Y-70000000D01*
X213500000Y-80000000D02*
X213500000Y-80500000D01*
X189500000Y-99000000D02*
X189500000Y-94900000D01*
X212500000Y-84000000D02*
X198000000Y-84000000D01*
X230670000Y-75250000D02*
X233750000Y-75250000D01*
X204320000Y-47625000D02*
X203800000Y-47625000D01*
X211450000Y-51500000D02*
X211000000Y-51500000D01*
X189990000Y-43975000D02*
X192975000Y-43975000D01*
X229500000Y-86500000D02*
X232000000Y-86500000D01*
X219450000Y-87500000D02*
X219450000Y-87550000D01*
X198000000Y-84000000D02*
X194000000Y-80000000D01*
X245040000Y-55460000D02*
X250500000Y-55460000D01*
X193640000Y-47625000D02*
X189990000Y-43975000D01*
X203750000Y-56235000D02*
X202985000Y-57000000D01*
X203225000Y-48225000D02*
X205000000Y-50000000D01*
X189300000Y-87550000D02*
X190950000Y-87550000D01*
X213775000Y-79725000D02*
X213500000Y-80000000D01*
X221750000Y-72830000D02*
X221750000Y-69100000D01*
X204320000Y-47925000D02*
X204320000Y-47625000D01*
X210175000Y-71000000D02*
X215500000Y-71000000D01*
X187000000Y-66712500D02*
X187000000Y-53984072D01*
X208699000Y-50801000D02*
X207196000Y-50801000D01*
X187000000Y-66712500D02*
X190262500Y-66712500D01*
X215500000Y-71000000D02*
X216500000Y-72000000D01*
X191400000Y-94900000D02*
X191500000Y-95000000D01*
X209500000Y-50000000D02*
X208699000Y-50801000D01*
X216500000Y-70500000D02*
X216000000Y-70000000D01*
X216000000Y-70000000D02*
X215500000Y-70000000D01*
X204500000Y-69000000D02*
X208175000Y-69000000D01*
X228250000Y-84170000D02*
X228250000Y-85250000D01*
X189300000Y-81200000D02*
X191500000Y-79000000D01*
X207196000Y-50801000D02*
X204320000Y-47925000D01*
X190700000Y-59075000D02*
X190700000Y-67150000D01*
X234000000Y-66500000D02*
X245040000Y-55460000D01*
X190500000Y-98000000D02*
X189500000Y-99000000D01*
X221750000Y-85200000D02*
X219450000Y-87500000D01*
X206659000Y-97199000D02*
X207960000Y-98500000D01*
X196800000Y-48225000D02*
X196280000Y-48225000D01*
X228250000Y-85250000D02*
X229500000Y-86500000D01*
X202985000Y-57000000D02*
X192775000Y-57000000D01*
X195712500Y-98000000D02*
X196513500Y-97199000D01*
X233750000Y-75250000D02*
X234000000Y-75000000D01*
X191000000Y-87500000D02*
X190950000Y-87550000D01*
X213500000Y-80500000D02*
X213000000Y-81000000D01*
X195680000Y-47625000D02*
X193640000Y-47625000D01*
X217000000Y-70000000D02*
X218450000Y-70000000D01*
X221726000Y-73906000D02*
X221750000Y-73882000D01*
X215000000Y-79725000D02*
X213775000Y-79725000D01*
X221726000Y-73906000D02*
X223070000Y-75250000D01*
X216500000Y-79725000D02*
X217025000Y-80250000D01*
X190262500Y-66712500D02*
X190700000Y-67150000D01*
X232000000Y-86500000D02*
X232000000Y-87500000D01*
X192975000Y-43975000D02*
X193000000Y-44000000D01*
X195350000Y-53000000D02*
X195350000Y-49675000D01*
X193000000Y-79000000D02*
X194000000Y-80000000D01*
X203800000Y-47625000D02*
X203200000Y-48225000D01*
X203200000Y-48225000D02*
X203225000Y-48225000D01*
X233000000Y-88500000D02*
X233000000Y-90500000D01*
X208175000Y-69000000D02*
X210175000Y-71000000D01*
X232000000Y-87500000D02*
X233000000Y-88500000D01*
X201500000Y-69000000D02*
X203000000Y-70500000D01*
X221750000Y-84170000D02*
X221750000Y-85200000D01*
X196280000Y-48225000D02*
X195680000Y-47625000D01*
%TO.N,NRST1*%
X187300000Y-77450000D02*
X187000000Y-77150000D01*
X187000000Y-78500000D02*
X187700000Y-79200000D01*
X187700000Y-79200000D02*
X187700000Y-83450000D01*
X187700000Y-83450000D02*
X187700000Y-87550000D01*
X187000000Y-77150000D02*
X187000000Y-78500000D01*
X221500000Y-78500000D02*
X222000000Y-78000000D01*
X218331000Y-84801000D02*
X222000000Y-81132000D01*
X222000000Y-79000000D02*
X221500000Y-78500000D01*
X220750000Y-77750000D02*
X219330000Y-77750000D01*
X187700000Y-87550000D02*
X190449000Y-84801000D01*
X221500000Y-78500000D02*
X220750000Y-77750000D01*
X191500000Y-77450000D02*
X187300000Y-77450000D01*
X190449000Y-84801000D02*
X218331000Y-84801000D01*
X222000000Y-81132000D02*
X222000000Y-79000000D01*
%TO.N,/MCU/SYS_5V*%
X197950000Y-71450000D02*
X197950000Y-69000000D01*
X204250000Y-56235000D02*
X204250000Y-57250000D01*
X203050000Y-72000000D02*
X198500000Y-72000000D01*
X204550000Y-70500000D02*
X203050000Y-72000000D01*
X196000000Y-69000000D02*
X197950000Y-69000000D01*
X195300000Y-66200000D02*
X195300000Y-67150000D01*
X198500000Y-72000000D02*
X197950000Y-71450000D01*
X204250000Y-57250000D02*
X195300000Y-66200000D01*
X195300000Y-68300000D02*
X196000000Y-69000000D01*
X195300000Y-67150000D02*
X195300000Y-68300000D01*
X204250000Y-54765000D02*
X204250000Y-56235000D01*
%TO.N,+3V3*%
X228750000Y-84170000D02*
X228750000Y-77706009D01*
X251880000Y-70880000D02*
X252874000Y-69886000D01*
X193000000Y-69000000D02*
X189500000Y-72500000D01*
X226374000Y-42126000D02*
X224000000Y-44500000D01*
X252874000Y-58874000D02*
X252000000Y-58000000D01*
X252874000Y-69886000D02*
X252874000Y-58874000D01*
X221250000Y-72830000D02*
X221250000Y-74250000D01*
X223500000Y-66000000D02*
X224850000Y-66000000D01*
X228324000Y-75719991D02*
X229293991Y-74750000D01*
X221000000Y-67000000D02*
X222500000Y-67000000D01*
X188500000Y-72500000D02*
X188350000Y-72650000D01*
X216500000Y-81275000D02*
X215000000Y-81275000D01*
X189500000Y-72500000D02*
X188500000Y-72500000D01*
X187000000Y-72650000D02*
X187000000Y-75500000D01*
X218250000Y-80750000D02*
X217725000Y-81275000D01*
X246500000Y-58000000D02*
X250500000Y-58000000D01*
X231226000Y-69726000D02*
X230500000Y-69000000D01*
X219330000Y-80750000D02*
X218250000Y-80750000D01*
X234000000Y-73500000D02*
X244000000Y-63500000D01*
X186199000Y-76301000D02*
X186199000Y-89699000D01*
X221000000Y-87500000D02*
X219500000Y-89000000D01*
X217725000Y-81275000D02*
X216500000Y-81275000D01*
X212050000Y-82000000D02*
X214050000Y-84000000D01*
X252000000Y-58000000D02*
X250500000Y-58000000D01*
X221250000Y-74250000D02*
X220750000Y-74750000D01*
X228750000Y-84170000D02*
X231220000Y-84170000D01*
X244000000Y-63500000D02*
X244000000Y-60500000D01*
X220000000Y-71580000D02*
X221250000Y-72830000D01*
X188350000Y-72650000D02*
X187000000Y-72650000D01*
X187000000Y-75500000D02*
X186199000Y-76301000D01*
X252874000Y-57126000D02*
X252874000Y-51500000D01*
X243500000Y-42126000D02*
X226374000Y-42126000D01*
X226000000Y-68350000D02*
X226150000Y-68350000D01*
X222250000Y-84170000D02*
X222250000Y-86250000D01*
D38*
X203500000Y-91500000D02*
X188000000Y-91500000D01*
D37*
X186199000Y-89699000D02*
X188000000Y-91500000D01*
X232750000Y-74750000D02*
X234000000Y-73500000D01*
X228750000Y-77706009D02*
X228324000Y-77280009D01*
X252000000Y-58000000D02*
X252874000Y-57126000D01*
X230670000Y-74750000D02*
X231226000Y-74194000D01*
X231226000Y-74194000D02*
X231226000Y-69726000D01*
X202500000Y-82000000D02*
X212050000Y-82000000D01*
X228324000Y-77280009D02*
X228324000Y-75719991D01*
X215000000Y-83050000D02*
X214050000Y-84000000D01*
X251880000Y-70880000D02*
X250500000Y-70880000D01*
X252874000Y-71874000D02*
X251880000Y-70880000D01*
X222500000Y-67000000D02*
X223500000Y-66000000D01*
X215000000Y-81275000D02*
X215000000Y-83050000D01*
X220000000Y-68000000D02*
X221000000Y-67000000D01*
X193000000Y-60850000D02*
X193000000Y-67150000D01*
X226150000Y-68350000D02*
X227500000Y-67000000D01*
X231220000Y-84170000D02*
X233550000Y-86500000D01*
X222250000Y-86250000D02*
X221000000Y-87500000D01*
X193000000Y-67150000D02*
X193000000Y-69000000D01*
X252874000Y-93826000D02*
X252874000Y-71874000D01*
X230670000Y-74750000D02*
X232750000Y-74750000D01*
X252874000Y-51500000D02*
X243500000Y-42126000D01*
X244000000Y-60500000D02*
X246500000Y-58000000D01*
X229293991Y-74750000D02*
X230670000Y-74750000D01*
X248200000Y-98500000D02*
X252874000Y-93826000D01*
X220000000Y-70000000D02*
X220000000Y-71580000D01*
X220000000Y-70000000D02*
X220000000Y-68000000D01*
X193000000Y-67150000D02*
X193000000Y-72500000D01*
X220750000Y-74750000D02*
X219330000Y-74750000D01*
D38*
X210500000Y-98500000D02*
X203500000Y-91500000D01*
D37*
X193000000Y-72500000D02*
X202500000Y-82000000D01*
%TO.N,Net-(U1B-VCAP1)*%
X227750000Y-86300000D02*
X227750000Y-84170000D01*
X227950000Y-86500000D02*
X227750000Y-86300000D01*
D38*
%TO.N,/MCU/USB_5V*%
X214000000Y-55000000D02*
X212000000Y-53000000D01*
X202400000Y-50900000D02*
X205361000Y-53861000D01*
X214175000Y-55000000D02*
X214000000Y-55000000D01*
D37*
X197600000Y-47553000D02*
X199305000Y-45848000D01*
X211848000Y-45848000D02*
X213000000Y-47000000D01*
X204750000Y-56235000D02*
X204750000Y-55693712D01*
X204750000Y-55693712D02*
X205250000Y-55193712D01*
D38*
X213000000Y-52000000D02*
X212000000Y-53000000D01*
D37*
X213000000Y-47000000D02*
X213000000Y-51500000D01*
D38*
X202400000Y-48225000D02*
X202400000Y-50900000D01*
X206222000Y-53000000D02*
X205361000Y-53861000D01*
X212000000Y-53000000D02*
X206222000Y-53000000D01*
D37*
X197600000Y-48225000D02*
X197600000Y-47553000D01*
X205250000Y-55193712D02*
X205250000Y-54765000D01*
X199305000Y-45848000D02*
X211848000Y-45848000D01*
D38*
X213000000Y-51500000D02*
X213000000Y-52000000D01*
X205361000Y-53861000D02*
X205361000Y-54765000D01*
D37*
%TO.N,/MCU/Ext_5V_Prot*%
X204736000Y-54751000D02*
X204736000Y-54322288D01*
X190600000Y-55100000D02*
X190600000Y-54000000D01*
X197000000Y-54000000D02*
X195000000Y-56000000D01*
X204000000Y-53586288D02*
X198913712Y-53586288D01*
X191500000Y-56000000D02*
X191500000Y-56725000D01*
X191500000Y-56725000D02*
X191225000Y-57000000D01*
X204736000Y-54322288D02*
X204000000Y-53586288D01*
X198913712Y-53586288D02*
X198500000Y-54000000D01*
X191500000Y-56000000D02*
X190600000Y-55100000D01*
X195000000Y-56000000D02*
X191500000Y-56000000D01*
X190600000Y-54000000D02*
X188590000Y-54000000D01*
X204750000Y-54765000D02*
X204736000Y-54751000D01*
X198500000Y-54000000D02*
X197000000Y-54000000D01*
%TO.N,/MCU/OSCin*%
X215250000Y-73300000D02*
X216500000Y-74550000D01*
X216500000Y-74920000D02*
X216500000Y-74550000D01*
X211500000Y-73300000D02*
X215250000Y-73300000D01*
X219330000Y-76750000D02*
X218330000Y-76750000D01*
X218330000Y-76750000D02*
X216500000Y-74920000D01*
%TO.N,/MCU/OSCout*%
X211950000Y-77250000D02*
X219330000Y-77250000D01*
X211500000Y-79550000D02*
X211950000Y-80000000D01*
X211500000Y-77700000D02*
X211500000Y-79550000D01*
X211500000Y-77700000D02*
X211950000Y-77250000D01*
%TO.N,Net-(D1-A)*%
X187000000Y-71000000D02*
X187000000Y-68287500D01*
%TO.N,Net-(D2-A)*%
X197287500Y-98000000D02*
X199850000Y-98000000D01*
D38*
%TO.N,Net-(D3-A)*%
X185610000Y-50390000D02*
X185610000Y-54000000D01*
X187000000Y-49000000D02*
X185610000Y-50390000D01*
X187700000Y-49000000D02*
X187000000Y-49000000D01*
%TO.N,/MCU/Ext_5V*%
X190500000Y-47000000D02*
X190500000Y-49000000D01*
X188500000Y-47000000D02*
X190500000Y-47000000D01*
X187450000Y-43975000D02*
X187450000Y-45950000D01*
X187450000Y-45950000D02*
X188500000Y-47000000D01*
D37*
%TO.N,/MCU/Rx*%
X232750000Y-77250000D02*
X230670000Y-77250000D01*
X246960000Y-60540000D02*
X246500000Y-61000000D01*
X246500000Y-61000000D02*
X246500000Y-63500000D01*
X250500000Y-60540000D02*
X246960000Y-60540000D01*
X246500000Y-63500000D02*
X232750000Y-77250000D01*
%TO.N,/MCU/Tx*%
X230670000Y-77750000D02*
X233750000Y-77750000D01*
X233750000Y-77750000D02*
X248420000Y-63080000D01*
X248420000Y-63080000D02*
X250500000Y-63080000D01*
%TO.N,/MCU/SPI_MOSI*%
X218120000Y-95120000D02*
X218120000Y-98500000D01*
X218000000Y-95000000D02*
X218120000Y-95120000D01*
X224250000Y-84170000D02*
X224250000Y-88750000D01*
X224250000Y-88750000D02*
X218000000Y-95000000D01*
%TO.N,/MCU/SPI_SCK*%
X223250000Y-85263222D02*
X223001944Y-85511278D01*
X223250000Y-84170000D02*
X223250000Y-85263222D01*
%TO.N,/MCU/SPI_MISO*%
X215580000Y-94580000D02*
X215580000Y-98500000D01*
X223750000Y-84170000D02*
X223750000Y-86250000D01*
X215500000Y-94500000D02*
X215580000Y-94580000D01*
X223750000Y-86250000D02*
X215500000Y-94500000D01*
%TO.N,/MCU/SPI_CS*%
X222750000Y-82750000D02*
X222500000Y-82500000D01*
X222750000Y-84170000D02*
X222750000Y-82750000D01*
%TO.N,/MCU/I2C_SDA*%
X226500000Y-44540000D02*
X226540000Y-44500000D01*
X223750000Y-70750000D02*
X224500000Y-70000000D01*
X224500000Y-68000000D02*
X226500000Y-66000000D01*
X224500000Y-70000000D02*
X224500000Y-68000000D01*
X223750000Y-72830000D02*
X223750000Y-70750000D01*
X226500000Y-66000000D02*
X226500000Y-44540000D01*
%TO.N,/MCU/I2C_SCL*%
X225035010Y-70992990D02*
X224250000Y-71778000D01*
X226000000Y-70000000D02*
X229080000Y-66920000D01*
X225499568Y-70992990D02*
X226000000Y-70492558D01*
X225499568Y-70992990D02*
X225035010Y-70992990D01*
X229080000Y-66920000D02*
X229080000Y-44500000D01*
X226000000Y-70492558D02*
X226000000Y-70000000D01*
X224250000Y-71778000D02*
X224250000Y-72830000D01*
%TO.N,/MCU/GPIO_PB2*%
X227000000Y-82000000D02*
X226750000Y-82250000D01*
X226750000Y-84170000D02*
X226750000Y-82250000D01*
%TO.N,/MCU/GPIO_PA2*%
X217750000Y-82250000D02*
X216500000Y-83500000D01*
X219330000Y-82250000D02*
X217750000Y-82250000D01*
%TO.N,/MCU/GPIO_PB12*%
X233250000Y-82250000D02*
X233500000Y-82500000D01*
X230670000Y-82250000D02*
X233250000Y-82250000D01*
%TO.N,/MCU/GPIO_PB10*%
X227250000Y-84170000D02*
X227250000Y-83250000D01*
X227250000Y-83250000D02*
X228012653Y-82487347D01*
%TO.N,/MCU/GPIO_PA3*%
X221250000Y-82723280D02*
X222973280Y-81000000D01*
X221250000Y-84170000D02*
X221250000Y-82723280D01*
X222973280Y-81000000D02*
X224000000Y-81000000D01*
%TO.N,/MCU/GPIO_PA8*%
X235500000Y-82000000D02*
X231750000Y-78250000D01*
X235500000Y-98500000D02*
X235500000Y-82000000D01*
X231750000Y-78250000D02*
X230670000Y-78250000D01*
%TO.N,/MCU/GPIO_PA1*%
X219330000Y-81750000D02*
X220250000Y-81750000D01*
X220250000Y-81750000D02*
X221000000Y-81000000D01*
%TO.N,/MCU/GPIO_PB1*%
X238040000Y-98500000D02*
X236864000Y-99676000D01*
X234324000Y-98987116D02*
X234324000Y-94134466D01*
X235012884Y-99676000D02*
X234324000Y-98987116D01*
X234324000Y-94134466D02*
X226250000Y-86060466D01*
X226250000Y-86060466D02*
X226250000Y-84170000D01*
X236864000Y-99676000D02*
X235012884Y-99676000D01*
%TO.N,/MCU/SWDIO*%
X230670000Y-75750000D02*
X232250000Y-75750000D01*
X232250000Y-75750000D02*
X232500000Y-76000000D01*
%TO.N,/MCU/SWCLK*%
X230330000Y-72830000D02*
X230500000Y-73000000D01*
X228750000Y-72830000D02*
X230330000Y-72830000D01*
%TO.N,/MCU/USB_D+*%
X199250000Y-48225000D02*
X199250000Y-46750000D01*
X200850000Y-50350000D02*
X200850000Y-50980000D01*
X201277918Y-50980000D02*
X202398959Y-52101041D01*
X199500000Y-46500000D02*
X199553798Y-46553798D01*
X200250000Y-48225000D02*
X200250000Y-49750000D01*
X200250000Y-49750000D02*
X200850000Y-50350000D01*
X200850000Y-50980000D02*
X201277918Y-50980000D01*
X230670000Y-76250000D02*
X229250000Y-76250000D01*
X229000000Y-76000000D02*
X229012653Y-75987347D01*
X229250000Y-76250000D02*
X229000000Y-76000000D01*
X199250000Y-46750000D02*
X199500000Y-46500000D01*
%TO.N,Net-(J7-CC1)*%
X206249000Y-46249000D02*
X207850000Y-47850000D01*
X201250000Y-47303000D02*
X202304000Y-46249000D01*
X207850000Y-47850000D02*
X207850000Y-50000000D01*
X202304000Y-46249000D02*
X206249000Y-46249000D01*
X201250000Y-48225000D02*
X201250000Y-47303000D01*
%TO.N,/MCU/USB_D-*%
X199500000Y-50500000D02*
X199000000Y-50000000D01*
X199750000Y-49250000D02*
X199750000Y-48225000D01*
X200726000Y-47279000D02*
X199774000Y-47279000D01*
X229250000Y-76750000D02*
X229000000Y-77000000D01*
X199000000Y-50000000D02*
X199750000Y-49250000D01*
X200750000Y-48225000D02*
X200750000Y-47303000D01*
X199774000Y-47279000D02*
X199750000Y-47303000D01*
X199670000Y-50500000D02*
X199500000Y-50500000D01*
X199670000Y-50500000D02*
X200150000Y-50980000D01*
X199750000Y-47303000D02*
X199750000Y-48225000D01*
X230670000Y-76750000D02*
X229250000Y-76750000D01*
X200750000Y-47303000D02*
X200726000Y-47279000D01*
%TO.N,Net-(J7-CC2)*%
X198250000Y-49250000D02*
X197000000Y-50500000D01*
X197000000Y-50500000D02*
X197000000Y-53000000D01*
X198250000Y-48225000D02*
X198250000Y-49250000D01*
%TO.N,Net-(U1A-PB0)*%
X219296000Y-94341810D02*
X225750000Y-87887810D01*
X201500000Y-98000000D02*
X203176000Y-99676000D01*
X203176000Y-99676000D02*
X218607116Y-99676000D01*
X225750000Y-87887810D02*
X225750000Y-84170000D01*
X218607116Y-99676000D02*
X219296000Y-98987116D01*
X219296000Y-98987116D02*
X219296000Y-94341810D01*
%TO.N,Net-(U1A-BOOT0)*%
X223250000Y-70682900D02*
X223500000Y-70432900D01*
X223500000Y-70432900D02*
X223500000Y-69000000D01*
X223250000Y-72830000D02*
X223250000Y-70682900D01*
%TO.N,U_BTN1*%
X216786653Y-82487347D02*
X216487347Y-82487347D01*
X219330000Y-81250000D02*
X218460810Y-81250000D01*
X191000000Y-93000000D02*
X190850000Y-93150000D01*
X217911810Y-81799000D02*
X217475000Y-81799000D01*
X190850000Y-93150000D02*
X188000000Y-93150000D01*
X217475000Y-81799000D02*
X216786653Y-82487347D01*
X188000000Y-94800000D02*
X187900000Y-94900000D01*
X187900000Y-94900000D02*
X187900000Y-99000000D01*
X188000000Y-93150000D02*
X188000000Y-94800000D01*
X218460810Y-81250000D02*
X217911810Y-81799000D01*
%TO.N,Net-(U3-PR1)*%
X206507500Y-57492500D02*
X206507500Y-63007500D01*
X205250000Y-56235000D02*
X206507500Y-57492500D01*
X209825000Y-66325000D02*
X209825000Y-69000000D01*
X206515000Y-57500000D02*
X214000000Y-57500000D01*
X215825000Y-55675000D02*
X215825000Y-55000000D01*
X214000000Y-57500000D02*
X215825000Y-55675000D01*
X206507500Y-63007500D02*
X209825000Y-66325000D01*
X206507500Y-57492500D02*
X206515000Y-57500000D01*
%TD*%
M02*
