%TF.GenerationSoftware,KiCad,Pcbnew,9.0.4*%
%TF.CreationDate,2026-09-16T21:18:02+05:30*%
%TF.ProjectId,STMt1,53544d74-312e-46b6-9963-61645f706362,rev?*%
%TF.SameCoordinates,Original*%
%TF.FileFunction,Copper,L2,Bot*%
%TF.FilePolarity,Positive*%
%FSLAX46Y46*%
G04 Gerber Fmt 4.6, Leading zero omitted, Abs format (unit mm)*
G04 Created by KiCad (PCBNEW 9.0.4) date 2026-09-16 21:18:02*
%MOMM*%
%LPD*%
G01*
G04 APERTURE LIST*
%TA.AperFunction,HeatsinkPad*%
%ADD10O,1.000000X2.100000*%
%TD*%
%TA.AperFunction,HeatsinkPad*%
%ADD11O,1.000000X1.800000*%
%TD*%
%TA.AperFunction,ComponentPad*%
%ADD12R,1.700000X1.700000*%
%TD*%
%TA.AperFunction,ComponentPad*%
%ADD13C,1.700000*%
%TD*%
%TA.AperFunction,ViaPad*%
%ADD14C,0.800000*%
%TD*%
%TA.AperFunction,Conductor*%
%ADD15C,0.250000*%
%TD*%
G04 APERTURE END LIST*
D10*
%TO.P,J7,S1,SHIELD*%
%TO.N,GND*%
X204320000Y-47625000D03*
D11*
X204320000Y-43425000D03*
D10*
X195680000Y-47625000D03*
D11*
X195680000Y-43425000D03*
%TD*%
D12*
%TO.P,J6,1,Pin_1*%
%TO.N,+3V3*%
X250500000Y-70880000D03*
D13*
%TO.P,J6,2,Pin_2*%
%TO.N,/MCU/SWDIO*%
X250500000Y-73420000D03*
%TO.P,J6,3,Pin_3*%
%TO.N,GND*%
X250500000Y-75960000D03*
%TO.P,J6,4,Pin_4*%
%TO.N,/MCU/SWCLK*%
X250500000Y-78500000D03*
%TO.P,J6,5,Pin_5*%
%TO.N,NRST1*%
X250500000Y-81040000D03*
%TD*%
D12*
%TO.P,J4,1,Pin_1*%
%TO.N,/MCU/Ext_5V*%
X187450000Y-43975000D03*
D13*
%TO.P,J4,2,Pin_2*%
%TO.N,GND*%
X189990000Y-43975000D03*
%TD*%
D12*
%TO.P,J2,1,Pin_1*%
%TO.N,/MCU/SPI_SCK*%
X220660000Y-98500000D03*
D13*
%TO.P,J2,2,Pin_2*%
%TO.N,/MCU/SPI_MOSI*%
X218120000Y-98500000D03*
%TO.P,J2,3,Pin_3*%
%TO.N,/MCU/SPI_MISO*%
X215580000Y-98500000D03*
%TO.P,J2,4,Pin_4*%
%TO.N,/MCU/SPI_CS*%
X213040000Y-98500000D03*
%TO.P,J2,5,Pin_5*%
%TO.N,+3V3*%
X210500000Y-98500000D03*
%TO.P,J2,6,Pin_6*%
%TO.N,GND*%
X207960000Y-98500000D03*
%TD*%
D12*
%TO.P,J3,1,Pin_1*%
%TO.N,/MCU/I2C_SCL*%
X229080000Y-44500000D03*
D13*
%TO.P,J3,2,Pin_2*%
%TO.N,/MCU/I2C_SDA*%
X226540000Y-44500000D03*
%TO.P,J3,3,Pin_3*%
%TO.N,+3V3*%
X224000000Y-44500000D03*
%TO.P,J3,4,Pin_4*%
%TO.N,GND*%
X221460000Y-44500000D03*
%TD*%
D12*
%TO.P,J1,1,Pin_1*%
%TO.N,/MCU/Tx*%
X250500000Y-63080000D03*
D13*
%TO.P,J1,2,Pin_2*%
%TO.N,/MCU/Rx*%
X250500000Y-60540000D03*
%TO.P,J1,3,Pin_3*%
%TO.N,+3V3*%
X250500000Y-58000000D03*
%TO.P,J1,4,Pin_4*%
%TO.N,GND*%
X250500000Y-55460000D03*
%TD*%
D12*
%TO.P,J5,1,Pin_1*%
%TO.N,/MCU/GPIO_PA1*%
X227880000Y-98500000D03*
D13*
%TO.P,J5,2,Pin_2*%
%TO.N,/MCU/GPIO_PA2*%
X230420000Y-98500000D03*
%TO.P,J5,3,Pin_3*%
%TO.N,/MCU/GPIO_PA3*%
X232960000Y-98500000D03*
%TO.P,J5,4,Pin_4*%
%TO.N,/MCU/GPIO_PA8*%
X235500000Y-98500000D03*
%TO.P,J5,5,Pin_5*%
%TO.N,/MCU/GPIO_PB1*%
X238040000Y-98500000D03*
%TO.P,J5,6,Pin_6*%
%TO.N,/MCU/GPIO_PB2*%
X240580000Y-98500000D03*
%TO.P,J5,7,Pin_7*%
%TO.N,/MCU/GPIO_PB10*%
X243120000Y-98500000D03*
%TO.P,J5,8,Pin_8*%
%TO.N,/MCU/GPIO_PB12*%
X245660000Y-98500000D03*
%TO.P,J5,9,Pin_9*%
%TO.N,+3V3*%
X248200000Y-98500000D03*
%TO.P,J5,10,Pin_10*%
%TO.N,GND*%
X250740000Y-98500000D03*
%TD*%
D14*
%TO.N,GND*%
X194000000Y-80000000D03*
X190950000Y-87550000D03*
X223070000Y-75250000D03*
X234000000Y-75000000D03*
X189500000Y-69500000D03*
X193000000Y-44000000D03*
X205000000Y-50000000D03*
X191500000Y-95000000D03*
X215500000Y-70000000D03*
X213000000Y-81000000D03*
X198500000Y-52500000D03*
X218000000Y-89000000D03*
X234000000Y-91500000D03*
%TO.N,NRST1*%
X222000000Y-78000000D03*
%TO.N,+3V3*%
X219500000Y-89000000D03*
X227500000Y-67000000D03*
X230500000Y-69000000D03*
X222500000Y-67000000D03*
%TO.N,/MCU/SPI_SCK*%
X223001944Y-85511278D03*
%TO.N,/MCU/SPI_CS*%
X222500000Y-82500000D03*
%TO.N,/MCU/GPIO_PB2*%
X226750000Y-82250000D03*
%TO.N,/MCU/GPIO_PA2*%
X216500000Y-83500000D03*
%TO.N,/MCU/GPIO_PB12*%
X233500000Y-82500000D03*
%TO.N,/MCU/GPIO_PB10*%
X228012653Y-82487347D03*
%TO.N,/MCU/GPIO_PA3*%
X224000000Y-81000000D03*
%TO.N,/MCU/GPIO_PA1*%
X221000000Y-81000000D03*
%TO.N,/MCU/SWDIO*%
X232500000Y-76000000D03*
%TO.N,/MCU/SWCLK*%
X230500000Y-73000000D03*
%TO.N,/MCU/USB_D+*%
X202398959Y-52101041D03*
X199553798Y-46553798D03*
X229012653Y-75987347D03*
%TO.N,/MCU/USB_D-*%
X229000000Y-77000000D03*
X199000000Y-50000000D03*
%TO.N,U_BTN1*%
X216487347Y-82487347D03*
X191000000Y-93000000D03*
%TD*%
D15*
%TO.N,NRST1*%
X247040000Y-81040000D02*
X250500000Y-81040000D01*
X244000000Y-78000000D02*
X247040000Y-81040000D01*
X222000000Y-78000000D02*
X244000000Y-78000000D01*
%TO.N,+3V3*%
X211626000Y-99626000D02*
X210500000Y-98500000D01*
X246200000Y-100500000D02*
X214380405Y-100500000D01*
X214380405Y-100500000D02*
X213506405Y-99626000D01*
X214166000Y-94334000D02*
X214166000Y-98966405D01*
X228500000Y-67000000D02*
X222500000Y-67000000D01*
X213506405Y-99626000D02*
X211626000Y-99626000D01*
X214166000Y-98966405D02*
X213506405Y-99626000D01*
X219500000Y-89000000D02*
X214166000Y-94334000D01*
X230500000Y-69000000D02*
X228500000Y-67000000D01*
X248200000Y-98500000D02*
X246200000Y-100500000D01*
%TO.N,/MCU/SPI_SCK*%
X220660000Y-87853222D02*
X220660000Y-98500000D01*
X223001944Y-85511278D02*
X220660000Y-87853222D01*
%TO.N,/MCU/SPI_CS*%
X213040000Y-91960000D02*
X213040000Y-98500000D01*
X222500000Y-82500000D02*
X213040000Y-91960000D01*
%TO.N,/MCU/GPIO_PB2*%
X240580000Y-96080000D02*
X226750000Y-82250000D01*
X240580000Y-98500000D02*
X240580000Y-96080000D01*
%TO.N,/MCU/GPIO_PA2*%
X230420000Y-98500000D02*
X230420000Y-88755470D01*
X219726000Y-80274000D02*
X216500000Y-83500000D01*
X221938530Y-80274000D02*
X219726000Y-80274000D01*
X230420000Y-88755470D02*
X221938530Y-80274000D01*
%TO.N,/MCU/GPIO_PB12*%
X233500000Y-86340000D02*
X233500000Y-82500000D01*
X245660000Y-98500000D02*
X233500000Y-86340000D01*
%TO.N,/MCU/GPIO_PB10*%
X243120000Y-97594694D02*
X228012653Y-82487347D01*
X243120000Y-98500000D02*
X243120000Y-97594694D01*
%TO.N,/MCU/GPIO_PA3*%
X232960000Y-89960000D02*
X224000000Y-81000000D01*
X232960000Y-98500000D02*
X232960000Y-89960000D01*
%TO.N,/MCU/GPIO_PA1*%
X227880000Y-86853280D02*
X222026720Y-81000000D01*
X227880000Y-98500000D02*
X227880000Y-86853280D01*
X222026720Y-81000000D02*
X221000000Y-81000000D01*
%TO.N,/MCU/SWDIO*%
X246313810Y-79676000D02*
X242637810Y-76000000D01*
X251676000Y-74596000D02*
X251676000Y-78987116D01*
X242637810Y-76000000D02*
X232500000Y-76000000D01*
X251676000Y-78987116D02*
X250987116Y-79676000D01*
X250987116Y-79676000D02*
X246313810Y-79676000D01*
X250500000Y-73420000D02*
X251676000Y-74596000D01*
%TO.N,/MCU/SWCLK*%
X245000000Y-73000000D02*
X230500000Y-73000000D01*
X250500000Y-78500000D02*
X245000000Y-73000000D01*
%TO.N,/MCU/USB_D+*%
X199553798Y-46553798D02*
X199553798Y-48720202D01*
X202299306Y-49274000D02*
X229012653Y-75987347D01*
X198274000Y-49699280D02*
X198699280Y-49274000D01*
X202398959Y-52101041D02*
X200074321Y-52101041D01*
X199553798Y-48720202D02*
X199000000Y-49274000D01*
X198699280Y-49274000D02*
X199000000Y-49274000D01*
X200074321Y-52101041D02*
X198274000Y-50300720D01*
X198274000Y-50300720D02*
X198274000Y-49699280D01*
X199000000Y-49274000D02*
X202299306Y-49274000D01*
%TO.N,/MCU/USB_D-*%
X202000000Y-50000000D02*
X229000000Y-77000000D01*
X199000000Y-50000000D02*
X202000000Y-50000000D01*
%TO.N,U_BTN1*%
X216487347Y-82487347D02*
X201512653Y-82487347D01*
X201512653Y-82487347D02*
X191000000Y-93000000D01*
%TD*%
%TA.AperFunction,Conductor*%
%TO.N,GND*%
G36*
X195071585Y-42020185D02*
G01*
X195117340Y-42072989D01*
X195127284Y-42142147D01*
X195098259Y-42205703D01*
X195073437Y-42227602D01*
X195042536Y-42248248D01*
X194903251Y-42387533D01*
X194903248Y-42387537D01*
X194793814Y-42551315D01*
X194793807Y-42551328D01*
X194718430Y-42733306D01*
X194718427Y-42733318D01*
X194680000Y-42926504D01*
X194680000Y-43175000D01*
X195380000Y-43175000D01*
X195380000Y-43675000D01*
X194680000Y-43675000D01*
X194680000Y-43923495D01*
X194718427Y-44116681D01*
X194718430Y-44116693D01*
X194793807Y-44298671D01*
X194793814Y-44298684D01*
X194903248Y-44462462D01*
X194903251Y-44462466D01*
X195042533Y-44601748D01*
X195042537Y-44601751D01*
X195206315Y-44711185D01*
X195206328Y-44711192D01*
X195388308Y-44786569D01*
X195430000Y-44794862D01*
X195430000Y-43991988D01*
X195439940Y-44009205D01*
X195495795Y-44065060D01*
X195564204Y-44104556D01*
X195640504Y-44125000D01*
X195719496Y-44125000D01*
X195795796Y-44104556D01*
X195864205Y-44065060D01*
X195920060Y-44009205D01*
X195930000Y-43991988D01*
X195930000Y-44794862D01*
X195971690Y-44786569D01*
X195971692Y-44786569D01*
X196153671Y-44711192D01*
X196153684Y-44711185D01*
X196317462Y-44601751D01*
X196317466Y-44601748D01*
X196456748Y-44462466D01*
X196456751Y-44462462D01*
X196566185Y-44298684D01*
X196566192Y-44298671D01*
X196641569Y-44116693D01*
X196641572Y-44116681D01*
X196679999Y-43923495D01*
X196680000Y-43923492D01*
X196680000Y-43675000D01*
X195980000Y-43675000D01*
X195980000Y-43175000D01*
X196680000Y-43175000D01*
X196680000Y-42926508D01*
X196679999Y-42926504D01*
X196641572Y-42733318D01*
X196641569Y-42733306D01*
X196566192Y-42551328D01*
X196566185Y-42551315D01*
X196456751Y-42387537D01*
X196456748Y-42387533D01*
X196317463Y-42248248D01*
X196286563Y-42227602D01*
X196241758Y-42173990D01*
X196233051Y-42104665D01*
X196263205Y-42041638D01*
X196322648Y-42004918D01*
X196355454Y-42000500D01*
X203644546Y-42000500D01*
X203711585Y-42020185D01*
X203757340Y-42072989D01*
X203767284Y-42142147D01*
X203738259Y-42205703D01*
X203713437Y-42227602D01*
X203682536Y-42248248D01*
X203543251Y-42387533D01*
X203543248Y-42387537D01*
X203433814Y-42551315D01*
X203433807Y-42551328D01*
X203358430Y-42733306D01*
X203358427Y-42733318D01*
X203320000Y-42926504D01*
X203320000Y-43175000D01*
X204020000Y-43175000D01*
X204020000Y-43675000D01*
X203320000Y-43675000D01*
X203320000Y-43923495D01*
X203358427Y-44116681D01*
X203358430Y-44116693D01*
X203433807Y-44298671D01*
X203433814Y-44298684D01*
X203543248Y-44462462D01*
X203543251Y-44462466D01*
X203682533Y-44601748D01*
X203682537Y-44601751D01*
X203846315Y-44711185D01*
X203846328Y-44711192D01*
X204028308Y-44786569D01*
X204070000Y-44794862D01*
X204070000Y-43991988D01*
X204079940Y-44009205D01*
X204135795Y-44065060D01*
X204204204Y-44104556D01*
X204280504Y-44125000D01*
X204359496Y-44125000D01*
X204435796Y-44104556D01*
X204504205Y-44065060D01*
X204560060Y-44009205D01*
X204570000Y-43991988D01*
X204570000Y-44794862D01*
X204611690Y-44786569D01*
X204611692Y-44786569D01*
X204793671Y-44711192D01*
X204793684Y-44711185D01*
X204957462Y-44601751D01*
X204957466Y-44601748D01*
X205096748Y-44462466D01*
X205096751Y-44462462D01*
X205142661Y-44393753D01*
X220110000Y-44393753D01*
X220110000Y-44606246D01*
X220143242Y-44816127D01*
X220143242Y-44816130D01*
X220208904Y-45018217D01*
X220305375Y-45207550D01*
X220344728Y-45261716D01*
X220977037Y-44629408D01*
X220994075Y-44692993D01*
X221059901Y-44807007D01*
X221152993Y-44900099D01*
X221267007Y-44965925D01*
X221330590Y-44982962D01*
X220698282Y-45615269D01*
X220698282Y-45615270D01*
X220752449Y-45654624D01*
X220941782Y-45751095D01*
X221143870Y-45816757D01*
X221353754Y-45850000D01*
X221566246Y-45850000D01*
X221776127Y-45816757D01*
X221776130Y-45816757D01*
X221978217Y-45751095D01*
X222167554Y-45654622D01*
X222221716Y-45615270D01*
X222221717Y-45615270D01*
X221589408Y-44982962D01*
X221652993Y-44965925D01*
X221767007Y-44900099D01*
X221860099Y-44807007D01*
X221925925Y-44692993D01*
X221942962Y-44629408D01*
X222575270Y-45261717D01*
X222575270Y-45261716D01*
X222614622Y-45207554D01*
X222711095Y-45018217D01*
X222768343Y-44842026D01*
X222807780Y-44784351D01*
X222872139Y-44757152D01*
X222940985Y-44769066D01*
X222992461Y-44816310D01*
X223000835Y-44832891D01*
X223055939Y-44965925D01*
X223069059Y-44997598D01*
X223126541Y-45083626D01*
X223184024Y-45169657D01*
X223330342Y-45315975D01*
X223330345Y-45315977D01*
X223502402Y-45430941D01*
X223693580Y-45510130D01*
X223838052Y-45538867D01*
X223896530Y-45550499D01*
X223896534Y-45550500D01*
X223896535Y-45550500D01*
X224103466Y-45550500D01*
X224103467Y-45550499D01*
X224306420Y-45510130D01*
X224497598Y-45430941D01*
X224669655Y-45315977D01*
X224815977Y-45169655D01*
X224930941Y-44997598D01*
X225010130Y-44806420D01*
X225050500Y-44603465D01*
X225050500Y-44396535D01*
X225050499Y-44396530D01*
X225489500Y-44396530D01*
X225489500Y-44603469D01*
X225529868Y-44806412D01*
X225529870Y-44806420D01*
X225595939Y-44965925D01*
X225609059Y-44997598D01*
X225666541Y-45083626D01*
X225724024Y-45169657D01*
X225870342Y-45315975D01*
X225870345Y-45315977D01*
X226042402Y-45430941D01*
X226233580Y-45510130D01*
X226378052Y-45538867D01*
X226436530Y-45550499D01*
X226436534Y-45550500D01*
X226436535Y-45550500D01*
X226643466Y-45550500D01*
X226643467Y-45550499D01*
X226846420Y-45510130D01*
X227037598Y-45430941D01*
X227209655Y-45315977D01*
X227355977Y-45169655D01*
X227470941Y-44997598D01*
X227550130Y-44806420D01*
X227590500Y-44603465D01*
X227590500Y-44396535D01*
X227550130Y-44193580D01*
X227470941Y-44002402D01*
X227355977Y-43830345D01*
X227355975Y-43830342D01*
X227209657Y-43684024D01*
X227129173Y-43630247D01*
X228029500Y-43630247D01*
X228029500Y-45369752D01*
X228041131Y-45428229D01*
X228041132Y-45428230D01*
X228085447Y-45494552D01*
X228151769Y-45538867D01*
X228151770Y-45538868D01*
X228210247Y-45550499D01*
X228210250Y-45550500D01*
X228210252Y-45550500D01*
X229949750Y-45550500D01*
X229949751Y-45550499D01*
X229964568Y-45547552D01*
X230008229Y-45538868D01*
X230008229Y-45538867D01*
X230008231Y-45538867D01*
X230074552Y-45494552D01*
X230118867Y-45428231D01*
X230118867Y-45428229D01*
X230118868Y-45428229D01*
X230130499Y-45369752D01*
X230130500Y-45369750D01*
X230130500Y-43630249D01*
X230130499Y-43630247D01*
X230118868Y-43571770D01*
X230118867Y-43571769D01*
X230074552Y-43505447D01*
X230008230Y-43461132D01*
X230008229Y-43461131D01*
X229949752Y-43449500D01*
X229949748Y-43449500D01*
X228210252Y-43449500D01*
X228210247Y-43449500D01*
X228151770Y-43461131D01*
X228151769Y-43461132D01*
X228085447Y-43505447D01*
X228041132Y-43571769D01*
X228041131Y-43571770D01*
X228029500Y-43630247D01*
X227129173Y-43630247D01*
X227041655Y-43571770D01*
X227037598Y-43569059D01*
X226950235Y-43532872D01*
X226846420Y-43489870D01*
X226846412Y-43489868D01*
X226643469Y-43449500D01*
X226643465Y-43449500D01*
X226436535Y-43449500D01*
X226436530Y-43449500D01*
X226233587Y-43489868D01*
X226233579Y-43489870D01*
X226042403Y-43569058D01*
X225870342Y-43684024D01*
X225724024Y-43830342D01*
X225609058Y-44002403D01*
X225529870Y-44193579D01*
X225529868Y-44193587D01*
X225489500Y-44396530D01*
X225050499Y-44396530D01*
X225010130Y-44193580D01*
X224930941Y-44002402D01*
X224815977Y-43830345D01*
X224815975Y-43830342D01*
X224669657Y-43684024D01*
X224501655Y-43571770D01*
X224497598Y-43569059D01*
X224410235Y-43532872D01*
X224306420Y-43489870D01*
X224306412Y-43489868D01*
X224103469Y-43449500D01*
X224103465Y-43449500D01*
X223896535Y-43449500D01*
X223896530Y-43449500D01*
X223693587Y-43489868D01*
X223693579Y-43489870D01*
X223502403Y-43569058D01*
X223330342Y-43684024D01*
X223184024Y-43830342D01*
X223069057Y-44002403D01*
X223000835Y-44167108D01*
X222956994Y-44221511D01*
X222890700Y-44243576D01*
X222823000Y-44226297D01*
X222775390Y-44175159D01*
X222768343Y-44157973D01*
X222711095Y-43981782D01*
X222614624Y-43792449D01*
X222575270Y-43738282D01*
X222575269Y-43738282D01*
X221942962Y-44370590D01*
X221925925Y-44307007D01*
X221860099Y-44192993D01*
X221767007Y-44099901D01*
X221652993Y-44034075D01*
X221589409Y-44017037D01*
X222221716Y-43384728D01*
X222167550Y-43345375D01*
X221978217Y-43248904D01*
X221776129Y-43183242D01*
X221566246Y-43150000D01*
X221353754Y-43150000D01*
X221143872Y-43183242D01*
X221143869Y-43183242D01*
X220941782Y-43248904D01*
X220752439Y-43345380D01*
X220698282Y-43384727D01*
X220698282Y-43384728D01*
X221330591Y-44017037D01*
X221267007Y-44034075D01*
X221152993Y-44099901D01*
X221059901Y-44192993D01*
X220994075Y-44307007D01*
X220977037Y-44370591D01*
X220344728Y-43738282D01*
X220344727Y-43738282D01*
X220305380Y-43792439D01*
X220208904Y-43981782D01*
X220143242Y-44183869D01*
X220143242Y-44183872D01*
X220110000Y-44393753D01*
X205142661Y-44393753D01*
X205191949Y-44319990D01*
X205191949Y-44319989D01*
X205206184Y-44298686D01*
X205206192Y-44298671D01*
X205281569Y-44116693D01*
X205281572Y-44116681D01*
X205319999Y-43923495D01*
X205320000Y-43923492D01*
X205320000Y-43675000D01*
X204620000Y-43675000D01*
X204620000Y-43175000D01*
X205320000Y-43175000D01*
X205320000Y-42926508D01*
X205319999Y-42926504D01*
X205281572Y-42733318D01*
X205281569Y-42733306D01*
X205206192Y-42551328D01*
X205206185Y-42551315D01*
X205096751Y-42387537D01*
X205096748Y-42387533D01*
X204957463Y-42248248D01*
X204926563Y-42227602D01*
X204881758Y-42173990D01*
X204873051Y-42104665D01*
X204903205Y-42041638D01*
X204962648Y-42004918D01*
X204995454Y-42000500D01*
X252875500Y-42000500D01*
X252942539Y-42020185D01*
X252988294Y-42072989D01*
X252999500Y-42124500D01*
X252999500Y-100875500D01*
X252979815Y-100942539D01*
X252927011Y-100988294D01*
X252875500Y-100999500D01*
X246448616Y-100999500D01*
X246381577Y-100979815D01*
X246335822Y-100927011D01*
X246325878Y-100857853D01*
X246354903Y-100794297D01*
X246386614Y-100768114D01*
X246388403Y-100767080D01*
X246399862Y-100760465D01*
X247662895Y-99497430D01*
X247724218Y-99463946D01*
X247793910Y-99468930D01*
X247798023Y-99470548D01*
X247893580Y-99510130D01*
X248035297Y-99538319D01*
X248096530Y-99550499D01*
X248096534Y-99550500D01*
X248096535Y-99550500D01*
X248303466Y-99550500D01*
X248303467Y-99550499D01*
X248506420Y-99510130D01*
X248697598Y-99430941D01*
X248869655Y-99315977D01*
X249015977Y-99169655D01*
X249130941Y-98997598D01*
X249199165Y-98832889D01*
X249243004Y-98778488D01*
X249309298Y-98756423D01*
X249376998Y-98773702D01*
X249424609Y-98824839D01*
X249431656Y-98842026D01*
X249488904Y-99018216D01*
X249585375Y-99207550D01*
X249624728Y-99261716D01*
X250257037Y-98629408D01*
X250274075Y-98692993D01*
X250339901Y-98807007D01*
X250432993Y-98900099D01*
X250547007Y-98965925D01*
X250610590Y-98982962D01*
X249978282Y-99615269D01*
X249978282Y-99615270D01*
X250032449Y-99654624D01*
X250221782Y-99751095D01*
X250423870Y-99816757D01*
X250633754Y-99850000D01*
X250846246Y-99850000D01*
X251056127Y-99816757D01*
X251056130Y-99816757D01*
X251258217Y-99751095D01*
X251447554Y-99654622D01*
X251501716Y-99615270D01*
X251501717Y-99615270D01*
X250869408Y-98982962D01*
X250932993Y-98965925D01*
X251047007Y-98900099D01*
X251140099Y-98807007D01*
X251205925Y-98692993D01*
X251222962Y-98629409D01*
X251855270Y-99261717D01*
X251855270Y-99261716D01*
X251894622Y-99207554D01*
X251991095Y-99018217D01*
X252056757Y-98816130D01*
X252056757Y-98816127D01*
X252090000Y-98606246D01*
X252090000Y-98393753D01*
X252056757Y-98183872D01*
X252056757Y-98183869D01*
X251991095Y-97981782D01*
X251894624Y-97792449D01*
X251855270Y-97738282D01*
X251855269Y-97738282D01*
X251222962Y-98370590D01*
X251205925Y-98307007D01*
X251140099Y-98192993D01*
X251047007Y-98099901D01*
X250932993Y-98034075D01*
X250869409Y-98017037D01*
X251501716Y-97384728D01*
X251447550Y-97345375D01*
X251258217Y-97248904D01*
X251056129Y-97183242D01*
X250846246Y-97150000D01*
X250633754Y-97150000D01*
X250423872Y-97183242D01*
X250423869Y-97183242D01*
X250221782Y-97248904D01*
X250032439Y-97345380D01*
X249978282Y-97384727D01*
X249978282Y-97384728D01*
X250610591Y-98017037D01*
X250547007Y-98034075D01*
X250432993Y-98099901D01*
X250339901Y-98192993D01*
X250274075Y-98307007D01*
X250257037Y-98370591D01*
X249624728Y-97738282D01*
X249624727Y-97738282D01*
X249585380Y-97792439D01*
X249488905Y-97981781D01*
X249431656Y-98157974D01*
X249392218Y-98215649D01*
X249327859Y-98242847D01*
X249259013Y-98230932D01*
X249207537Y-98183688D01*
X249199164Y-98167107D01*
X249130943Y-98002405D01*
X249015975Y-97830342D01*
X248869657Y-97684024D01*
X248701655Y-97571770D01*
X248697598Y-97569059D01*
X248697593Y-97569057D01*
X248643252Y-97546548D01*
X248506420Y-97489870D01*
X248506412Y-97489868D01*
X248303469Y-97449500D01*
X248303465Y-97449500D01*
X248096535Y-97449500D01*
X248096530Y-97449500D01*
X247893587Y-97489868D01*
X247893579Y-97489870D01*
X247702403Y-97569058D01*
X247530342Y-97684024D01*
X247384024Y-97830342D01*
X247269058Y-98002403D01*
X247189870Y-98193579D01*
X247189868Y-98193587D01*
X247149500Y-98396530D01*
X247149500Y-98603469D01*
X247189868Y-98806412D01*
X247189870Y-98806420D01*
X247229448Y-98901969D01*
X247236917Y-98971438D01*
X247205642Y-99033918D01*
X247202568Y-99037103D01*
X246101492Y-100138181D01*
X246040169Y-100171666D01*
X246013811Y-100174500D01*
X214566593Y-100174500D01*
X214499554Y-100154815D01*
X214478912Y-100138181D01*
X214054412Y-99713681D01*
X214020927Y-99652358D01*
X214025911Y-99582666D01*
X214054412Y-99538319D01*
X214164502Y-99428229D01*
X214426465Y-99166267D01*
X214469318Y-99092044D01*
X214469318Y-99092041D01*
X214472426Y-99084540D01*
X214474943Y-99085582D01*
X214504349Y-99037325D01*
X214567192Y-99006788D01*
X214636569Y-99015073D01*
X214690452Y-99059552D01*
X214690797Y-99060064D01*
X214722566Y-99107610D01*
X214764024Y-99169657D01*
X214910342Y-99315975D01*
X214910345Y-99315977D01*
X215082402Y-99430941D01*
X215273580Y-99510130D01*
X215415297Y-99538319D01*
X215476530Y-99550499D01*
X215476534Y-99550500D01*
X215476535Y-99550500D01*
X215683466Y-99550500D01*
X215683467Y-99550499D01*
X215886420Y-99510130D01*
X216077598Y-99430941D01*
X216249655Y-99315977D01*
X216395977Y-99169655D01*
X216510941Y-98997598D01*
X216590130Y-98806420D01*
X216630500Y-98603465D01*
X216630500Y-98396535D01*
X216630499Y-98396530D01*
X217069500Y-98396530D01*
X217069500Y-98603469D01*
X217109868Y-98806412D01*
X217109870Y-98806420D01*
X217175939Y-98965925D01*
X217189059Y-98997598D01*
X217202836Y-99018217D01*
X217304024Y-99169657D01*
X217450342Y-99315975D01*
X217450345Y-99315977D01*
X217622402Y-99430941D01*
X217813580Y-99510130D01*
X217955297Y-99538319D01*
X218016530Y-99550499D01*
X218016534Y-99550500D01*
X218016535Y-99550500D01*
X218223466Y-99550500D01*
X218223467Y-99550499D01*
X218426420Y-99510130D01*
X218617598Y-99430941D01*
X218789655Y-99315977D01*
X218935977Y-99169655D01*
X219050941Y-98997598D01*
X219130130Y-98806420D01*
X219170500Y-98603465D01*
X219170500Y-98396535D01*
X219130130Y-98193580D01*
X219050941Y-98002402D01*
X218935977Y-97830345D01*
X218935976Y-97830344D01*
X218935975Y-97830342D01*
X218789657Y-97684024D01*
X218621655Y-97571770D01*
X218617598Y-97569059D01*
X218617593Y-97569057D01*
X218426420Y-97489870D01*
X218426412Y-97489868D01*
X218223469Y-97449500D01*
X218223465Y-97449500D01*
X218016535Y-97449500D01*
X218016530Y-97449500D01*
X217813587Y-97489868D01*
X217813579Y-97489870D01*
X217622403Y-97569058D01*
X217450342Y-97684024D01*
X217304024Y-97830342D01*
X217189058Y-98002403D01*
X217109870Y-98193579D01*
X217109868Y-98193587D01*
X217069500Y-98396530D01*
X216630499Y-98396530D01*
X216590130Y-98193580D01*
X216510941Y-98002402D01*
X216395977Y-97830345D01*
X216395976Y-97830344D01*
X216395975Y-97830342D01*
X216249657Y-97684024D01*
X216081655Y-97571770D01*
X216077598Y-97569059D01*
X216077593Y-97569057D01*
X215886420Y-97489870D01*
X215886412Y-97489868D01*
X215683469Y-97449500D01*
X215683465Y-97449500D01*
X215476535Y-97449500D01*
X215476530Y-97449500D01*
X215273587Y-97489868D01*
X215273579Y-97489870D01*
X215082403Y-97569058D01*
X214910342Y-97684024D01*
X214764022Y-97830344D01*
X214718602Y-97898322D01*
X214664990Y-97943127D01*
X214595665Y-97951834D01*
X214532638Y-97921680D01*
X214495918Y-97862237D01*
X214491500Y-97829431D01*
X214491500Y-94520188D01*
X214511185Y-94453149D01*
X214527814Y-94432512D01*
X219323698Y-89636627D01*
X219385019Y-89603144D01*
X219412815Y-89601991D01*
X219412815Y-89600500D01*
X219579055Y-89600500D01*
X219579057Y-89600500D01*
X219731784Y-89559577D01*
X219868716Y-89480520D01*
X219980520Y-89368716D01*
X220059577Y-89231784D01*
X220090725Y-89115534D01*
X220127090Y-89055875D01*
X220189937Y-89025346D01*
X220259312Y-89033641D01*
X220313190Y-89078126D01*
X220334465Y-89144678D01*
X220334500Y-89147629D01*
X220334500Y-97325500D01*
X220314815Y-97392539D01*
X220262011Y-97438294D01*
X220210500Y-97449500D01*
X219790247Y-97449500D01*
X219731770Y-97461131D01*
X219731769Y-97461132D01*
X219665447Y-97505447D01*
X219621132Y-97571769D01*
X219621131Y-97571770D01*
X219609500Y-97630247D01*
X219609500Y-99369752D01*
X219621131Y-99428229D01*
X219621132Y-99428230D01*
X219665447Y-99494552D01*
X219731769Y-99538867D01*
X219731770Y-99538868D01*
X219790247Y-99550499D01*
X219790250Y-99550500D01*
X219790252Y-99550500D01*
X221529750Y-99550500D01*
X221529751Y-99550499D01*
X221544568Y-99547552D01*
X221588229Y-99538868D01*
X221588229Y-99538867D01*
X221588231Y-99538867D01*
X221654552Y-99494552D01*
X221698867Y-99428231D01*
X221698867Y-99428229D01*
X221698868Y-99428229D01*
X221710499Y-99369752D01*
X221710500Y-99369750D01*
X221710500Y-97630249D01*
X221710499Y-97630247D01*
X221698868Y-97571770D01*
X221698867Y-97571769D01*
X221654552Y-97505447D01*
X221588230Y-97461132D01*
X221588229Y-97461131D01*
X221529752Y-97449500D01*
X221529748Y-97449500D01*
X221109500Y-97449500D01*
X221042461Y-97429815D01*
X220996706Y-97377011D01*
X220985500Y-97325500D01*
X220985500Y-88039410D01*
X221005185Y-87972371D01*
X221021814Y-87951734D01*
X222825642Y-86147905D01*
X222886963Y-86114422D01*
X222914759Y-86113269D01*
X222914759Y-86111778D01*
X223080999Y-86111778D01*
X223081001Y-86111778D01*
X223233728Y-86070855D01*
X223370660Y-85991798D01*
X223482464Y-85879994D01*
X223561521Y-85743062D01*
X223602444Y-85590335D01*
X223602444Y-85432221D01*
X223561521Y-85279494D01*
X223561517Y-85279487D01*
X223482468Y-85142568D01*
X223482462Y-85142560D01*
X223370661Y-85030759D01*
X223370653Y-85030753D01*
X223233734Y-84951704D01*
X223233730Y-84951702D01*
X223233728Y-84951701D01*
X223081001Y-84910778D01*
X222922887Y-84910778D01*
X222770160Y-84951701D01*
X222770153Y-84951704D01*
X222633234Y-85030753D01*
X222633226Y-85030759D01*
X222521425Y-85142560D01*
X222521419Y-85142568D01*
X222442370Y-85279487D01*
X222442367Y-85279494D01*
X222401444Y-85432221D01*
X222401444Y-85598462D01*
X222398273Y-85598462D01*
X222389804Y-85652752D01*
X222365314Y-85687579D01*
X220399537Y-87653357D01*
X220399533Y-87653363D01*
X220356681Y-87727583D01*
X220356682Y-87727584D01*
X220334500Y-87810369D01*
X220334500Y-88852370D01*
X220314815Y-88919409D01*
X220262011Y-88965164D01*
X220192853Y-88975108D01*
X220129297Y-88946083D01*
X220091523Y-88887305D01*
X220090725Y-88884464D01*
X220082556Y-88853978D01*
X220059577Y-88768216D01*
X220059573Y-88768209D01*
X219980524Y-88631290D01*
X219980518Y-88631282D01*
X219868717Y-88519481D01*
X219868709Y-88519475D01*
X219731790Y-88440426D01*
X219731786Y-88440424D01*
X219731784Y-88440423D01*
X219579057Y-88399500D01*
X219420943Y-88399500D01*
X219268216Y-88440423D01*
X219268209Y-88440426D01*
X219131290Y-88519475D01*
X219131282Y-88519481D01*
X219019481Y-88631282D01*
X219019475Y-88631290D01*
X218940426Y-88768209D01*
X218940423Y-88768216D01*
X218899500Y-88920943D01*
X218899500Y-89087184D01*
X218896329Y-89087184D01*
X218887860Y-89141474D01*
X218863370Y-89176301D01*
X213905537Y-94134135D01*
X213905533Y-94134141D01*
X213862681Y-94208361D01*
X213862682Y-94208362D01*
X213840500Y-94291147D01*
X213840500Y-97539463D01*
X213820815Y-97606502D01*
X213768011Y-97652257D01*
X213698853Y-97662201D01*
X213647610Y-97642566D01*
X213537596Y-97569057D01*
X213442047Y-97529480D01*
X213387644Y-97485639D01*
X213365579Y-97419345D01*
X213365500Y-97414919D01*
X213365500Y-92146188D01*
X213385185Y-92079149D01*
X213401814Y-92058512D01*
X222323698Y-83136627D01*
X222385019Y-83103144D01*
X222412815Y-83101991D01*
X222412815Y-83100500D01*
X222579055Y-83100500D01*
X222579057Y-83100500D01*
X222731784Y-83059577D01*
X222868716Y-82980520D01*
X222980520Y-82868716D01*
X222987825Y-82856063D01*
X223063641Y-82724746D01*
X223065471Y-82725802D01*
X223102273Y-82680125D01*
X223168564Y-82658053D01*
X223236266Y-82675324D01*
X223260685Y-82694292D01*
X227518181Y-86951788D01*
X227551666Y-87013111D01*
X227554500Y-87039469D01*
X227554500Y-97325500D01*
X227534815Y-97392539D01*
X227482011Y-97438294D01*
X227430500Y-97449500D01*
X227010247Y-97449500D01*
X226951770Y-97461131D01*
X226951769Y-97461132D01*
X226885447Y-97505447D01*
X226841132Y-97571769D01*
X226841131Y-97571770D01*
X226829500Y-97630247D01*
X226829500Y-99369752D01*
X226841131Y-99428229D01*
X226841132Y-99428230D01*
X226885447Y-99494552D01*
X226951769Y-99538867D01*
X226951770Y-99538868D01*
X227010247Y-99550499D01*
X227010250Y-99550500D01*
X227010252Y-99550500D01*
X228749750Y-99550500D01*
X228749751Y-99550499D01*
X228764568Y-99547552D01*
X228808229Y-99538868D01*
X228808229Y-99538867D01*
X228808231Y-99538867D01*
X228874552Y-99494552D01*
X228918867Y-99428231D01*
X228918867Y-99428229D01*
X228918868Y-99428229D01*
X228930499Y-99369752D01*
X228930500Y-99369750D01*
X228930500Y-97630249D01*
X228930499Y-97630247D01*
X228918868Y-97571770D01*
X228918867Y-97571769D01*
X228874552Y-97505447D01*
X228808230Y-97461132D01*
X228808229Y-97461131D01*
X228749752Y-97449500D01*
X228749748Y-97449500D01*
X228329500Y-97449500D01*
X228262461Y-97429815D01*
X228216706Y-97377011D01*
X228205500Y-97325500D01*
X228205500Y-87300659D01*
X228225185Y-87233620D01*
X228277989Y-87187865D01*
X228347147Y-87177921D01*
X228410703Y-87206946D01*
X228417181Y-87212978D01*
X230058181Y-88853978D01*
X230091666Y-88915301D01*
X230094500Y-88941659D01*
X230094500Y-97414919D01*
X230074815Y-97481958D01*
X230022011Y-97527713D01*
X230017953Y-97529480D01*
X229922403Y-97569057D01*
X229750342Y-97684024D01*
X229604024Y-97830342D01*
X229489058Y-98002403D01*
X229409870Y-98193579D01*
X229409868Y-98193587D01*
X229369500Y-98396530D01*
X229369500Y-98603469D01*
X229409868Y-98806412D01*
X229409870Y-98806420D01*
X229475939Y-98965925D01*
X229489059Y-98997598D01*
X229502836Y-99018217D01*
X229604024Y-99169657D01*
X229750342Y-99315975D01*
X229750345Y-99315977D01*
X229922402Y-99430941D01*
X230113580Y-99510130D01*
X230255297Y-99538319D01*
X230316530Y-99550499D01*
X230316534Y-99550500D01*
X230316535Y-99550500D01*
X230523466Y-99550500D01*
X230523467Y-99550499D01*
X230726420Y-99510130D01*
X230917598Y-99430941D01*
X231089655Y-99315977D01*
X231235977Y-99169655D01*
X231350941Y-98997598D01*
X231430130Y-98806420D01*
X231470500Y-98603465D01*
X231470500Y-98396535D01*
X231430130Y-98193580D01*
X231350941Y-98002402D01*
X231235977Y-97830345D01*
X231235976Y-97830344D01*
X231235975Y-97830342D01*
X231089657Y-97684024D01*
X230917596Y-97569057D01*
X230822047Y-97529480D01*
X230767644Y-97485639D01*
X230745579Y-97419345D01*
X230745500Y-97414919D01*
X230745500Y-88712619D01*
X230745500Y-88712617D01*
X230723318Y-88629832D01*
X230723318Y-88629831D01*
X230680465Y-88555608D01*
X223937038Y-81812181D01*
X223926512Y-81792905D01*
X223912078Y-81776347D01*
X223910094Y-81762838D01*
X223903553Y-81750858D01*
X223905119Y-81728950D01*
X223901929Y-81707218D01*
X223907563Y-81694783D01*
X223908537Y-81681166D01*
X223921700Y-81663582D01*
X223930765Y-81643576D01*
X223942228Y-81636160D01*
X223950409Y-81625233D01*
X223970987Y-81617557D01*
X223989431Y-81605627D01*
X224011616Y-81602403D01*
X224015873Y-81600816D01*
X224024350Y-81600501D01*
X224024686Y-81600500D01*
X224079057Y-81600500D01*
X224079667Y-81600336D01*
X224088252Y-81600311D01*
X224114440Y-81607915D01*
X224141398Y-81612102D01*
X224150232Y-81618309D01*
X224155350Y-81619796D01*
X224160097Y-81625242D01*
X224176302Y-81636629D01*
X232598181Y-90058507D01*
X232631666Y-90119830D01*
X232634500Y-90146188D01*
X232634500Y-97414919D01*
X232614815Y-97481958D01*
X232562011Y-97527713D01*
X232557953Y-97529480D01*
X232462403Y-97569057D01*
X232290342Y-97684024D01*
X232144024Y-97830342D01*
X232029058Y-98002403D01*
X231949870Y-98193579D01*
X231949868Y-98193587D01*
X231909500Y-98396530D01*
X231909500Y-98603469D01*
X231949868Y-98806412D01*
X231949870Y-98806420D01*
X232015939Y-98965925D01*
X232029059Y-98997598D01*
X232042836Y-99018217D01*
X232144024Y-99169657D01*
X232290342Y-99315975D01*
X232290345Y-99315977D01*
X232462402Y-99430941D01*
X232653580Y-99510130D01*
X232795297Y-99538319D01*
X232856530Y-99550499D01*
X232856534Y-99550500D01*
X232856535Y-99550500D01*
X233063466Y-99550500D01*
X233063467Y-99550499D01*
X233266420Y-99510130D01*
X233457598Y-99430941D01*
X233629655Y-99315977D01*
X233775977Y-99169655D01*
X233890941Y-98997598D01*
X233970130Y-98806420D01*
X234010500Y-98603465D01*
X234010500Y-98396535D01*
X234010499Y-98396530D01*
X234449500Y-98396530D01*
X234449500Y-98603469D01*
X234489868Y-98806412D01*
X234489870Y-98806420D01*
X234555939Y-98965925D01*
X234569059Y-98997598D01*
X234582836Y-99018217D01*
X234684024Y-99169657D01*
X234830342Y-99315975D01*
X234830345Y-99315977D01*
X235002402Y-99430941D01*
X235193580Y-99510130D01*
X235335297Y-99538319D01*
X235396530Y-99550499D01*
X235396534Y-99550500D01*
X235396535Y-99550500D01*
X235603466Y-99550500D01*
X235603467Y-99550499D01*
X235806420Y-99510130D01*
X235997598Y-99430941D01*
X236169655Y-99315977D01*
X236315977Y-99169655D01*
X236430941Y-98997598D01*
X236510130Y-98806420D01*
X236550500Y-98603465D01*
X236550500Y-98396535D01*
X236550499Y-98396530D01*
X236989500Y-98396530D01*
X236989500Y-98603469D01*
X237029868Y-98806412D01*
X237029870Y-98806420D01*
X237095939Y-98965925D01*
X237109059Y-98997598D01*
X237122836Y-99018217D01*
X237224024Y-99169657D01*
X237370342Y-99315975D01*
X237370345Y-99315977D01*
X237542402Y-99430941D01*
X237733580Y-99510130D01*
X237875297Y-99538319D01*
X237936530Y-99550499D01*
X237936534Y-99550500D01*
X237936535Y-99550500D01*
X238143466Y-99550500D01*
X238143467Y-99550499D01*
X238346420Y-99510130D01*
X238537598Y-99430941D01*
X238709655Y-99315977D01*
X238855977Y-99169655D01*
X238970941Y-98997598D01*
X239050130Y-98806420D01*
X239090500Y-98603465D01*
X239090500Y-98396535D01*
X239050130Y-98193580D01*
X238970941Y-98002402D01*
X238855977Y-97830345D01*
X238855976Y-97830344D01*
X238855975Y-97830342D01*
X238709657Y-97684024D01*
X238541655Y-97571770D01*
X238537598Y-97569059D01*
X238537593Y-97569057D01*
X238346420Y-97489870D01*
X238346412Y-97489868D01*
X238143469Y-97449500D01*
X238143465Y-97449500D01*
X237936535Y-97449500D01*
X237936530Y-97449500D01*
X237733587Y-97489868D01*
X237733579Y-97489870D01*
X237542403Y-97569058D01*
X237370342Y-97684024D01*
X237224024Y-97830342D01*
X237109058Y-98002403D01*
X237029870Y-98193579D01*
X237029868Y-98193587D01*
X236989500Y-98396530D01*
X236550499Y-98396530D01*
X236510130Y-98193580D01*
X236430941Y-98002402D01*
X236315977Y-97830345D01*
X236315976Y-97830344D01*
X236315975Y-97830342D01*
X236169657Y-97684024D01*
X236001655Y-97571770D01*
X235997598Y-97569059D01*
X235997593Y-97569057D01*
X235806420Y-97489870D01*
X235806412Y-97489868D01*
X235603469Y-97449500D01*
X235603465Y-97449500D01*
X235396535Y-97449500D01*
X235396530Y-97449500D01*
X235193587Y-97489868D01*
X235193579Y-97489870D01*
X235002403Y-97569058D01*
X234830342Y-97684024D01*
X234684024Y-97830342D01*
X234569058Y-98002403D01*
X234489870Y-98193579D01*
X234489868Y-98193587D01*
X234449500Y-98396530D01*
X234010499Y-98396530D01*
X233970130Y-98193580D01*
X233890941Y-98002402D01*
X233775977Y-97830345D01*
X233775976Y-97830344D01*
X233775975Y-97830342D01*
X233629657Y-97684024D01*
X233457596Y-97569057D01*
X233362047Y-97529480D01*
X233307644Y-97485639D01*
X233285579Y-97419345D01*
X233285500Y-97414919D01*
X233285500Y-90012855D01*
X233285501Y-90012842D01*
X233285501Y-89917149D01*
X233263317Y-89834360D01*
X233263314Y-89834355D01*
X233220469Y-89760144D01*
X233220466Y-89760140D01*
X233220465Y-89760138D01*
X233159862Y-89699535D01*
X233159861Y-89699534D01*
X233155531Y-89695204D01*
X233155520Y-89695194D01*
X226506245Y-83045918D01*
X226472760Y-82984595D01*
X226477744Y-82914903D01*
X226519616Y-82858970D01*
X226585080Y-82834553D01*
X226602054Y-82834504D01*
X226614229Y-82835303D01*
X226670943Y-82850500D01*
X226829057Y-82850500D01*
X226832309Y-82849628D01*
X226846749Y-82850577D01*
X226868501Y-82858546D01*
X226891398Y-82862102D01*
X226905768Y-82872200D01*
X226912354Y-82874613D01*
X226915942Y-82879349D01*
X226926302Y-82886629D01*
X240218181Y-96178507D01*
X240251666Y-96239830D01*
X240254500Y-96266188D01*
X240254500Y-97414919D01*
X240234815Y-97481958D01*
X240182011Y-97527713D01*
X240177953Y-97529480D01*
X240082403Y-97569057D01*
X239910342Y-97684024D01*
X239764024Y-97830342D01*
X239649058Y-98002403D01*
X239569870Y-98193579D01*
X239569868Y-98193587D01*
X239529500Y-98396530D01*
X239529500Y-98603469D01*
X239569868Y-98806412D01*
X239569870Y-98806420D01*
X239635939Y-98965925D01*
X239649059Y-98997598D01*
X239662836Y-99018217D01*
X239764024Y-99169657D01*
X239910342Y-99315975D01*
X239910345Y-99315977D01*
X240082402Y-99430941D01*
X240273580Y-99510130D01*
X240415297Y-99538319D01*
X240476530Y-99550499D01*
X240476534Y-99550500D01*
X240476535Y-99550500D01*
X240683466Y-99550500D01*
X240683467Y-99550499D01*
X240886420Y-99510130D01*
X241077598Y-99430941D01*
X241249655Y-99315977D01*
X241395977Y-99169655D01*
X241510941Y-98997598D01*
X241590130Y-98806420D01*
X241630500Y-98603465D01*
X241630500Y-98396535D01*
X241590130Y-98193580D01*
X241510941Y-98002402D01*
X241395977Y-97830345D01*
X241395976Y-97830344D01*
X241395975Y-97830342D01*
X241249657Y-97684024D01*
X241077596Y-97569057D01*
X240982047Y-97529480D01*
X240927644Y-97485639D01*
X240905579Y-97419345D01*
X240905500Y-97414919D01*
X240905500Y-96139883D01*
X240925185Y-96072844D01*
X240977989Y-96027089D01*
X241047147Y-96017145D01*
X241110703Y-96046170D01*
X241117181Y-96052202D01*
X242522536Y-97457557D01*
X242556021Y-97518880D01*
X242551037Y-97588572D01*
X242509165Y-97644505D01*
X242503747Y-97648339D01*
X242450347Y-97684020D01*
X242450341Y-97684025D01*
X242304024Y-97830342D01*
X242189058Y-98002403D01*
X242109870Y-98193579D01*
X242109868Y-98193587D01*
X242069500Y-98396530D01*
X242069500Y-98603469D01*
X242109868Y-98806412D01*
X242109870Y-98806420D01*
X242175939Y-98965925D01*
X242189059Y-98997598D01*
X242202836Y-99018217D01*
X242304024Y-99169657D01*
X242450342Y-99315975D01*
X242450345Y-99315977D01*
X242622402Y-99430941D01*
X242813580Y-99510130D01*
X242955297Y-99538319D01*
X243016530Y-99550499D01*
X243016534Y-99550500D01*
X243016535Y-99550500D01*
X243223466Y-99550500D01*
X243223467Y-99550499D01*
X243426420Y-99510130D01*
X243617598Y-99430941D01*
X243789655Y-99315977D01*
X243935977Y-99169655D01*
X244050941Y-98997598D01*
X244130130Y-98806420D01*
X244170500Y-98603465D01*
X244170500Y-98396535D01*
X244130130Y-98193580D01*
X244050941Y-98002402D01*
X243935977Y-97830345D01*
X243935976Y-97830344D01*
X243935975Y-97830342D01*
X243789657Y-97684024D01*
X243617595Y-97569057D01*
X243477025Y-97510831D01*
X243422622Y-97466990D01*
X243417091Y-97458270D01*
X243380465Y-97394832D01*
X228649282Y-82663649D01*
X228634544Y-82636660D01*
X228617945Y-82610764D01*
X228617543Y-82605524D01*
X228615797Y-82602326D01*
X228612963Y-82575824D01*
X228612973Y-82567075D01*
X228613153Y-82566404D01*
X228613153Y-82420943D01*
X232899500Y-82420943D01*
X232899500Y-82579057D01*
X232940085Y-82730520D01*
X232940423Y-82731783D01*
X232940426Y-82731790D01*
X233019475Y-82868709D01*
X233019481Y-82868717D01*
X233137031Y-82986267D01*
X233134785Y-82988512D01*
X233167179Y-83032855D01*
X233174500Y-83074830D01*
X233174500Y-86382852D01*
X233196682Y-86465640D01*
X233218108Y-86502750D01*
X233239535Y-86539862D01*
X233239537Y-86539864D01*
X244662568Y-97962895D01*
X244696053Y-98024218D01*
X244691069Y-98093910D01*
X244689448Y-98098028D01*
X244649871Y-98193575D01*
X244649868Y-98193587D01*
X244609500Y-98396530D01*
X244609500Y-98603469D01*
X244649868Y-98806412D01*
X244649870Y-98806420D01*
X244715939Y-98965925D01*
X244729059Y-98997598D01*
X244742836Y-99018217D01*
X244844024Y-99169657D01*
X244990342Y-99315975D01*
X244990345Y-99315977D01*
X245162402Y-99430941D01*
X245353580Y-99510130D01*
X245495297Y-99538319D01*
X245556530Y-99550499D01*
X245556534Y-99550500D01*
X245556535Y-99550500D01*
X245763466Y-99550500D01*
X245763467Y-99550499D01*
X245966420Y-99510130D01*
X246157598Y-99430941D01*
X246329655Y-99315977D01*
X246475977Y-99169655D01*
X246590941Y-98997598D01*
X246670130Y-98806420D01*
X246710500Y-98603465D01*
X246710500Y-98396535D01*
X246670130Y-98193580D01*
X246590941Y-98002402D01*
X246475977Y-97830345D01*
X246475976Y-97830344D01*
X246475975Y-97830342D01*
X246329657Y-97684024D01*
X246161655Y-97571770D01*
X246157598Y-97569059D01*
X246157593Y-97569057D01*
X245966420Y-97489870D01*
X245966412Y-97489868D01*
X245763469Y-97449500D01*
X245763465Y-97449500D01*
X245556535Y-97449500D01*
X245556530Y-97449500D01*
X245353587Y-97489868D01*
X245353575Y-97489871D01*
X245258028Y-97529448D01*
X245188559Y-97536917D01*
X245126080Y-97505641D01*
X245122895Y-97502568D01*
X233861819Y-86241492D01*
X233828334Y-86180169D01*
X233825500Y-86153811D01*
X233825500Y-83074830D01*
X233845185Y-83007791D01*
X233864022Y-82987320D01*
X233862969Y-82986267D01*
X233906114Y-82943122D01*
X233980520Y-82868716D01*
X234059577Y-82731784D01*
X234100500Y-82579057D01*
X234100500Y-82420943D01*
X234059577Y-82268216D01*
X234003417Y-82170943D01*
X233980524Y-82131290D01*
X233980518Y-82131282D01*
X233868717Y-82019481D01*
X233868709Y-82019475D01*
X233731790Y-81940426D01*
X233731786Y-81940424D01*
X233731784Y-81940423D01*
X233579057Y-81899500D01*
X233420943Y-81899500D01*
X233268216Y-81940423D01*
X233268209Y-81940426D01*
X233131290Y-82019475D01*
X233131282Y-82019481D01*
X233019481Y-82131282D01*
X233019475Y-82131290D01*
X232940426Y-82268209D01*
X232940423Y-82268216D01*
X232899500Y-82420943D01*
X228613153Y-82420943D01*
X228613153Y-82408290D01*
X228572230Y-82255563D01*
X228530932Y-82184032D01*
X228493177Y-82118637D01*
X228493171Y-82118629D01*
X228381370Y-82006828D01*
X228381362Y-82006822D01*
X228244443Y-81927773D01*
X228244439Y-81927771D01*
X228244437Y-81927770D01*
X228091710Y-81886847D01*
X227933596Y-81886847D01*
X227780869Y-81927770D01*
X227780862Y-81927773D01*
X227643943Y-82006822D01*
X227643939Y-82006825D01*
X227529696Y-82121068D01*
X227468373Y-82154552D01*
X227398681Y-82149568D01*
X227342748Y-82107696D01*
X227322241Y-82065481D01*
X227309577Y-82018216D01*
X227303002Y-82006827D01*
X227230524Y-81881290D01*
X227230518Y-81881282D01*
X227118717Y-81769481D01*
X227118709Y-81769475D01*
X226981790Y-81690426D01*
X226981786Y-81690424D01*
X226981784Y-81690423D01*
X226829057Y-81649500D01*
X226670943Y-81649500D01*
X226518216Y-81690423D01*
X226518209Y-81690426D01*
X226381290Y-81769475D01*
X226381282Y-81769481D01*
X226269481Y-81881282D01*
X226269475Y-81881290D01*
X226190426Y-82018209D01*
X226190423Y-82018216D01*
X226149500Y-82170943D01*
X226149500Y-82329056D01*
X226161537Y-82373980D01*
X226159874Y-82443830D01*
X226120711Y-82501693D01*
X226056482Y-82529196D01*
X225987580Y-82517609D01*
X225954081Y-82493754D01*
X224636629Y-81176302D01*
X224603144Y-81114979D01*
X224601994Y-81087185D01*
X224600500Y-81087185D01*
X224600500Y-80920945D01*
X224600500Y-80920943D01*
X224559577Y-80768216D01*
X224539580Y-80733579D01*
X224480524Y-80631290D01*
X224480518Y-80631282D01*
X224368717Y-80519481D01*
X224368709Y-80519475D01*
X224231790Y-80440426D01*
X224231786Y-80440424D01*
X224231784Y-80440423D01*
X224079057Y-80399500D01*
X223920943Y-80399500D01*
X223768216Y-80440423D01*
X223768209Y-80440426D01*
X223631290Y-80519475D01*
X223631282Y-80519481D01*
X223519481Y-80631282D01*
X223519475Y-80631290D01*
X223440426Y-80768209D01*
X223440423Y-80768216D01*
X223399500Y-80920943D01*
X223399500Y-80975281D01*
X223379815Y-81042320D01*
X223327011Y-81088075D01*
X223257853Y-81098019D01*
X223194297Y-81068994D01*
X223187819Y-81062962D01*
X222138394Y-80013537D01*
X222138392Y-80013535D01*
X222079127Y-79979318D01*
X222064170Y-79970682D01*
X222022776Y-79959591D01*
X221981383Y-79948500D01*
X219768853Y-79948500D01*
X219683147Y-79948500D01*
X219600359Y-79970682D01*
X219526138Y-80013535D01*
X219526135Y-80013537D01*
X217247618Y-82292054D01*
X217186295Y-82325539D01*
X217116603Y-82320555D01*
X217060670Y-82278683D01*
X217051382Y-82262373D01*
X217050988Y-82262601D01*
X216967871Y-82118637D01*
X216967865Y-82118629D01*
X216856064Y-82006828D01*
X216856056Y-82006822D01*
X216719137Y-81927773D01*
X216719133Y-81927771D01*
X216719131Y-81927770D01*
X216566404Y-81886847D01*
X216408290Y-81886847D01*
X216255563Y-81927770D01*
X216255556Y-81927773D01*
X216118637Y-82006822D01*
X216118629Y-82006828D01*
X216001080Y-82124378D01*
X215998834Y-82122132D01*
X215954492Y-82154526D01*
X215912517Y-82161847D01*
X201469800Y-82161847D01*
X201387015Y-82184029D01*
X201387008Y-82184032D01*
X201312797Y-82226877D01*
X201312789Y-82226883D01*
X191176301Y-92363370D01*
X191114978Y-92396855D01*
X191087184Y-92398014D01*
X191087184Y-92399500D01*
X190920943Y-92399500D01*
X190768216Y-92440423D01*
X190768209Y-92440426D01*
X190631290Y-92519475D01*
X190631282Y-92519481D01*
X190519481Y-92631282D01*
X190519475Y-92631290D01*
X190440426Y-92768209D01*
X190440423Y-92768216D01*
X190399500Y-92920943D01*
X190399500Y-93079056D01*
X190440423Y-93231783D01*
X190440426Y-93231790D01*
X190519475Y-93368709D01*
X190519479Y-93368714D01*
X190519480Y-93368716D01*
X190631284Y-93480520D01*
X190631286Y-93480521D01*
X190631290Y-93480524D01*
X190768209Y-93559573D01*
X190768216Y-93559577D01*
X190920943Y-93600500D01*
X190920945Y-93600500D01*
X191079055Y-93600500D01*
X191079057Y-93600500D01*
X191231784Y-93559577D01*
X191368716Y-93480520D01*
X191480520Y-93368716D01*
X191559577Y-93231784D01*
X191600500Y-93079057D01*
X191600500Y-92920943D01*
X191600500Y-92912815D01*
X191603680Y-92912815D01*
X191612112Y-92858579D01*
X191636626Y-92823699D01*
X201611161Y-82849166D01*
X201672484Y-82815681D01*
X201698842Y-82812847D01*
X215912517Y-82812847D01*
X215942072Y-82821525D01*
X215972175Y-82828141D01*
X215976113Y-82831521D01*
X215979556Y-82832532D01*
X216000384Y-82849352D01*
X216006496Y-82855490D01*
X216006827Y-82856063D01*
X216063269Y-82912505D01*
X216079902Y-82943122D01*
X216096568Y-82973642D01*
X216096558Y-82973778D01*
X216096624Y-82973900D01*
X216094072Y-83008534D01*
X216091584Y-83043334D01*
X216091499Y-83043465D01*
X216091491Y-83043581D01*
X216091038Y-83044182D01*
X216063083Y-83087681D01*
X216019481Y-83131282D01*
X216019475Y-83131290D01*
X215940426Y-83268209D01*
X215940423Y-83268216D01*
X215899500Y-83420943D01*
X215899500Y-83579056D01*
X215940423Y-83731783D01*
X215940426Y-83731790D01*
X216019475Y-83868709D01*
X216019479Y-83868714D01*
X216019480Y-83868716D01*
X216131284Y-83980520D01*
X216131286Y-83980521D01*
X216131290Y-83980524D01*
X216268209Y-84059573D01*
X216268216Y-84059577D01*
X216420943Y-84100500D01*
X216420945Y-84100500D01*
X216579055Y-84100500D01*
X216579057Y-84100500D01*
X216731784Y-84059577D01*
X216868716Y-83980520D01*
X216980520Y-83868716D01*
X217059577Y-83731784D01*
X217100500Y-83579057D01*
X217100500Y-83420943D01*
X217100500Y-83412815D01*
X217103680Y-83412815D01*
X217112112Y-83358579D01*
X217136626Y-83323699D01*
X219824508Y-80635819D01*
X219885831Y-80602334D01*
X219912189Y-80599500D01*
X220324729Y-80599500D01*
X220391768Y-80619185D01*
X220437523Y-80671989D01*
X220447467Y-80741147D01*
X220442216Y-80760281D01*
X220442527Y-80760365D01*
X220440423Y-80768214D01*
X220440423Y-80768216D01*
X220399500Y-80920943D01*
X220399500Y-81079057D01*
X220416759Y-81143466D01*
X220440423Y-81231783D01*
X220440426Y-81231790D01*
X220519475Y-81368709D01*
X220519479Y-81368714D01*
X220519480Y-81368716D01*
X220631284Y-81480520D01*
X220631286Y-81480521D01*
X220631290Y-81480524D01*
X220730143Y-81537596D01*
X220768216Y-81559577D01*
X220920943Y-81600500D01*
X220920945Y-81600500D01*
X221079055Y-81600500D01*
X221079057Y-81600500D01*
X221231784Y-81559577D01*
X221368716Y-81480520D01*
X221480520Y-81368716D01*
X221480520Y-81368715D01*
X221486267Y-81362969D01*
X221488512Y-81365214D01*
X221532855Y-81332821D01*
X221574830Y-81325500D01*
X221840531Y-81325500D01*
X221907570Y-81345185D01*
X221928212Y-81361819D01*
X222305707Y-81739314D01*
X222339192Y-81800637D01*
X222334208Y-81870329D01*
X222292336Y-81926262D01*
X222275094Y-81936081D01*
X222275254Y-81936359D01*
X222131290Y-82019475D01*
X222131282Y-82019481D01*
X222019481Y-82131282D01*
X222019475Y-82131290D01*
X221940426Y-82268209D01*
X221940423Y-82268216D01*
X221899500Y-82420943D01*
X221899500Y-82587184D01*
X221896329Y-82587184D01*
X221887860Y-82641474D01*
X221863370Y-82676301D01*
X212779537Y-91760135D01*
X212779533Y-91760141D01*
X212736681Y-91834361D01*
X212736682Y-91834362D01*
X212714500Y-91917147D01*
X212714500Y-97414919D01*
X212694815Y-97481958D01*
X212642011Y-97527713D01*
X212637953Y-97529480D01*
X212542403Y-97569057D01*
X212370342Y-97684024D01*
X212224024Y-97830342D01*
X212109058Y-98002403D01*
X212029870Y-98193579D01*
X212029868Y-98193587D01*
X211989500Y-98396530D01*
X211989500Y-98603469D01*
X212029868Y-98806412D01*
X212029870Y-98806420D01*
X212095939Y-98965925D01*
X212109059Y-98997598D01*
X212122836Y-99018217D01*
X212182566Y-99107610D01*
X212203443Y-99174287D01*
X212184958Y-99241667D01*
X212132979Y-99288357D01*
X212079463Y-99300500D01*
X211812189Y-99300500D01*
X211745150Y-99280815D01*
X211724508Y-99264181D01*
X211497431Y-99037104D01*
X211463946Y-98975781D01*
X211468930Y-98906089D01*
X211470551Y-98901970D01*
X211510130Y-98806420D01*
X211550500Y-98603465D01*
X211550500Y-98396535D01*
X211510130Y-98193580D01*
X211430941Y-98002402D01*
X211315977Y-97830345D01*
X211315976Y-97830344D01*
X211315975Y-97830342D01*
X211169657Y-97684024D01*
X211001655Y-97571770D01*
X210997598Y-97569059D01*
X210997593Y-97569057D01*
X210806420Y-97489870D01*
X210806412Y-97489868D01*
X210603469Y-97449500D01*
X210603465Y-97449500D01*
X210396535Y-97449500D01*
X210396530Y-97449500D01*
X210193587Y-97489868D01*
X210193579Y-97489870D01*
X210002403Y-97569058D01*
X209830342Y-97684024D01*
X209684024Y-97830342D01*
X209569057Y-98002403D01*
X209500835Y-98167108D01*
X209456994Y-98221511D01*
X209390700Y-98243576D01*
X209323000Y-98226297D01*
X209275390Y-98175159D01*
X209268343Y-98157973D01*
X209211095Y-97981782D01*
X209114624Y-97792449D01*
X209075270Y-97738282D01*
X209075269Y-97738282D01*
X208442962Y-98370590D01*
X208425925Y-98307007D01*
X208360099Y-98192993D01*
X208267007Y-98099901D01*
X208152993Y-98034075D01*
X208089409Y-98017037D01*
X208721716Y-97384728D01*
X208667550Y-97345375D01*
X208478217Y-97248904D01*
X208276129Y-97183242D01*
X208066246Y-97150000D01*
X207853754Y-97150000D01*
X207643872Y-97183242D01*
X207643869Y-97183242D01*
X207441782Y-97248904D01*
X207252439Y-97345380D01*
X207198282Y-97384727D01*
X207198282Y-97384728D01*
X207830591Y-98017037D01*
X207767007Y-98034075D01*
X207652993Y-98099901D01*
X207559901Y-98192993D01*
X207494075Y-98307007D01*
X207477037Y-98370591D01*
X206844728Y-97738282D01*
X206844727Y-97738282D01*
X206805380Y-97792439D01*
X206708904Y-97981782D01*
X206643242Y-98183869D01*
X206643242Y-98183872D01*
X206610000Y-98393753D01*
X206610000Y-98606246D01*
X206643242Y-98816127D01*
X206643242Y-98816130D01*
X206708904Y-99018217D01*
X206805375Y-99207550D01*
X206844728Y-99261716D01*
X207477037Y-98629408D01*
X207494075Y-98692993D01*
X207559901Y-98807007D01*
X207652993Y-98900099D01*
X207767007Y-98965925D01*
X207830590Y-98982962D01*
X207198282Y-99615269D01*
X207198282Y-99615270D01*
X207252449Y-99654624D01*
X207441782Y-99751095D01*
X207643870Y-99816757D01*
X207853754Y-99850000D01*
X208066246Y-99850000D01*
X208276127Y-99816757D01*
X208276130Y-99816757D01*
X208478217Y-99751095D01*
X208667554Y-99654622D01*
X208721716Y-99615270D01*
X208721717Y-99615270D01*
X208089408Y-98982962D01*
X208152993Y-98965925D01*
X208267007Y-98900099D01*
X208360099Y-98807007D01*
X208425925Y-98692993D01*
X208442962Y-98629408D01*
X209075270Y-99261717D01*
X209075270Y-99261716D01*
X209114622Y-99207554D01*
X209211095Y-99018217D01*
X209268343Y-98842026D01*
X209307780Y-98784351D01*
X209372139Y-98757152D01*
X209440985Y-98769066D01*
X209492461Y-98816310D01*
X209500835Y-98832891D01*
X209555939Y-98965925D01*
X209569059Y-98997598D01*
X209582836Y-99018217D01*
X209684024Y-99169657D01*
X209830342Y-99315975D01*
X209830345Y-99315977D01*
X210002402Y-99430941D01*
X210193580Y-99510130D01*
X210335297Y-99538319D01*
X210396530Y-99550499D01*
X210396534Y-99550500D01*
X210396535Y-99550500D01*
X210603466Y-99550500D01*
X210603467Y-99550499D01*
X210806420Y-99510130D01*
X210901970Y-99470550D01*
X210971439Y-99463082D01*
X211033918Y-99494357D01*
X211037104Y-99497431D01*
X211365534Y-99825861D01*
X211365535Y-99825862D01*
X211426138Y-99886465D01*
X211426140Y-99886466D01*
X211426144Y-99886469D01*
X211500355Y-99929314D01*
X211500362Y-99929318D01*
X211583147Y-99951500D01*
X213320216Y-99951500D01*
X213387255Y-99971185D01*
X213407897Y-99987819D01*
X214119938Y-100699859D01*
X214119940Y-100699862D01*
X214180543Y-100760465D01*
X214204718Y-100774422D01*
X214214155Y-100782808D01*
X214226254Y-100802161D01*
X214242005Y-100818680D01*
X214244422Y-100831221D01*
X214251193Y-100842052D01*
X214250908Y-100864873D01*
X214255228Y-100887287D01*
X214250480Y-100899145D01*
X214250321Y-100911917D01*
X214237743Y-100930960D01*
X214229260Y-100952152D01*
X214218854Y-100959561D01*
X214211816Y-100970219D01*
X214190936Y-100979441D01*
X214172345Y-100992680D01*
X214153967Y-100995770D01*
X214147903Y-100998449D01*
X214142794Y-100997649D01*
X214131789Y-100999500D01*
X184124500Y-100999500D01*
X184057461Y-100979815D01*
X184011706Y-100927011D01*
X184000500Y-100875500D01*
X184000500Y-49656427D01*
X197948500Y-49656427D01*
X197948500Y-49663296D01*
X197948500Y-50343572D01*
X197970682Y-50426360D01*
X197992108Y-50463470D01*
X198013535Y-50500582D01*
X199813855Y-52300902D01*
X199813856Y-52300903D01*
X199874459Y-52361506D01*
X199874461Y-52361507D01*
X199874465Y-52361510D01*
X199948676Y-52404355D01*
X199948683Y-52404359D01*
X200031468Y-52426541D01*
X200117174Y-52426541D01*
X201824129Y-52426541D01*
X201891168Y-52446226D01*
X201911638Y-52465063D01*
X201912692Y-52464010D01*
X201918439Y-52469757D01*
X202030243Y-52581561D01*
X202030245Y-52581562D01*
X202030249Y-52581565D01*
X202167168Y-52660614D01*
X202167175Y-52660618D01*
X202319902Y-52701541D01*
X202319904Y-52701541D01*
X202478014Y-52701541D01*
X202478016Y-52701541D01*
X202630743Y-52660618D01*
X202767675Y-52581561D01*
X202879479Y-52469757D01*
X202958536Y-52332825D01*
X202999459Y-52180098D01*
X202999459Y-52021984D01*
X202958536Y-51869257D01*
X202883461Y-51739222D01*
X202879483Y-51732331D01*
X202879477Y-51732323D01*
X202767676Y-51620522D01*
X202767668Y-51620516D01*
X202630749Y-51541467D01*
X202630745Y-51541465D01*
X202630743Y-51541464D01*
X202478016Y-51500541D01*
X202319902Y-51500541D01*
X202167175Y-51541464D01*
X202167168Y-51541467D01*
X202030249Y-51620516D01*
X202030241Y-51620522D01*
X201912692Y-51738072D01*
X201910446Y-51735826D01*
X201866104Y-51768220D01*
X201824129Y-51775541D01*
X200260510Y-51775541D01*
X200193471Y-51755856D01*
X200172829Y-51739222D01*
X199194292Y-50760685D01*
X199160807Y-50699362D01*
X199165791Y-50629670D01*
X199207663Y-50573737D01*
X199224906Y-50563919D01*
X199224746Y-50563641D01*
X199368709Y-50480524D01*
X199368708Y-50480524D01*
X199368716Y-50480520D01*
X199480520Y-50368716D01*
X199480520Y-50368715D01*
X199486267Y-50362969D01*
X199488512Y-50365214D01*
X199532855Y-50332821D01*
X199574830Y-50325500D01*
X201813811Y-50325500D01*
X201880850Y-50345185D01*
X201901492Y-50361819D01*
X228363370Y-76823697D01*
X228396855Y-76885020D01*
X228398017Y-76912816D01*
X228399500Y-76912816D01*
X228399500Y-77079056D01*
X228440423Y-77231783D01*
X228440426Y-77231790D01*
X228519475Y-77368709D01*
X228519481Y-77368717D01*
X228613583Y-77462819D01*
X228647068Y-77524142D01*
X228642084Y-77593834D01*
X228600212Y-77649767D01*
X228534748Y-77674184D01*
X228525902Y-77674500D01*
X222574830Y-77674500D01*
X222507791Y-77654815D01*
X222487320Y-77635977D01*
X222486267Y-77637031D01*
X222368717Y-77519481D01*
X222368709Y-77519475D01*
X222231790Y-77440426D01*
X222231786Y-77440424D01*
X222231784Y-77440423D01*
X222079057Y-77399500D01*
X221920943Y-77399500D01*
X221768216Y-77440423D01*
X221768209Y-77440426D01*
X221631290Y-77519475D01*
X221631282Y-77519481D01*
X221519481Y-77631282D01*
X221519475Y-77631290D01*
X221440426Y-77768209D01*
X221440423Y-77768216D01*
X221399500Y-77920943D01*
X221399500Y-78079057D01*
X221430187Y-78193580D01*
X221440423Y-78231783D01*
X221440426Y-78231790D01*
X221519475Y-78368709D01*
X221519479Y-78368714D01*
X221519480Y-78368716D01*
X221631284Y-78480520D01*
X221631286Y-78480521D01*
X221631290Y-78480524D01*
X221768209Y-78559573D01*
X221768216Y-78559577D01*
X221920943Y-78600500D01*
X221920945Y-78600500D01*
X222079055Y-78600500D01*
X222079057Y-78600500D01*
X222231784Y-78559577D01*
X222368716Y-78480520D01*
X222480520Y-78368716D01*
X222480520Y-78368715D01*
X222486267Y-78362969D01*
X222488512Y-78365214D01*
X222532855Y-78332821D01*
X222574830Y-78325500D01*
X243813811Y-78325500D01*
X243880850Y-78345185D01*
X243901492Y-78361819D01*
X246840138Y-81300465D01*
X246914361Y-81343318D01*
X246997147Y-81365500D01*
X247082853Y-81365500D01*
X249414919Y-81365500D01*
X249481958Y-81385185D01*
X249527713Y-81437989D01*
X249529480Y-81442047D01*
X249569057Y-81537596D01*
X249684024Y-81709657D01*
X249830342Y-81855975D01*
X249830345Y-81855977D01*
X250002402Y-81970941D01*
X250193580Y-82050130D01*
X250396530Y-82090499D01*
X250396534Y-82090500D01*
X250396535Y-82090500D01*
X250603466Y-82090500D01*
X250603467Y-82090499D01*
X250806420Y-82050130D01*
X250997598Y-81970941D01*
X251169655Y-81855977D01*
X251315977Y-81709655D01*
X251430941Y-81537598D01*
X251510130Y-81346420D01*
X251550500Y-81143465D01*
X251550500Y-80936535D01*
X251510130Y-80733580D01*
X251430941Y-80542402D01*
X251315977Y-80370345D01*
X251315975Y-80370342D01*
X251169658Y-80224025D01*
X251169654Y-80224022D01*
X251112614Y-80185909D01*
X251067809Y-80132297D01*
X251059102Y-80062972D01*
X251089256Y-79999944D01*
X251119506Y-79975420D01*
X251186978Y-79936465D01*
X251936465Y-79186978D01*
X251979318Y-79112755D01*
X252001500Y-79029969D01*
X252001500Y-78944263D01*
X252001500Y-74553147D01*
X251979318Y-74470362D01*
X251979318Y-74470361D01*
X251936465Y-74396138D01*
X251497431Y-73957104D01*
X251463946Y-73895781D01*
X251468930Y-73826089D01*
X251470551Y-73821970D01*
X251510130Y-73726420D01*
X251550500Y-73523465D01*
X251550500Y-73316535D01*
X251510130Y-73113580D01*
X251430941Y-72922402D01*
X251315977Y-72750345D01*
X251315975Y-72750342D01*
X251169657Y-72604024D01*
X251043128Y-72519481D01*
X250997598Y-72489059D01*
X250806420Y-72409870D01*
X250806412Y-72409868D01*
X250603469Y-72369500D01*
X250603465Y-72369500D01*
X250396535Y-72369500D01*
X250396530Y-72369500D01*
X250193587Y-72409868D01*
X250193579Y-72409870D01*
X250002403Y-72489058D01*
X249830342Y-72604024D01*
X249684024Y-72750342D01*
X249569058Y-72922403D01*
X249489870Y-73113579D01*
X249489868Y-73113587D01*
X249449500Y-73316530D01*
X249449500Y-73523469D01*
X249489868Y-73726412D01*
X249489870Y-73726420D01*
X249569058Y-73917596D01*
X249684024Y-74089657D01*
X249830342Y-74235975D01*
X249830345Y-74235977D01*
X250002402Y-74350941D01*
X250193580Y-74430130D01*
X250395836Y-74470361D01*
X250396530Y-74470499D01*
X250396534Y-74470500D01*
X250396535Y-74470500D01*
X250603466Y-74470500D01*
X250603467Y-74470499D01*
X250806420Y-74430130D01*
X250901970Y-74390550D01*
X250971439Y-74383082D01*
X251033918Y-74414357D01*
X251037104Y-74417431D01*
X251314181Y-74694508D01*
X251347666Y-74755831D01*
X251350500Y-74782189D01*
X251350500Y-77572871D01*
X251330815Y-77639910D01*
X251278011Y-77685665D01*
X251208853Y-77695609D01*
X251157610Y-77675974D01*
X251003303Y-77572871D01*
X250997598Y-77569059D01*
X250978516Y-77561155D01*
X250806420Y-77489870D01*
X250806412Y-77489868D01*
X250603469Y-77449500D01*
X250603465Y-77449500D01*
X250396535Y-77449500D01*
X250396530Y-77449500D01*
X250193587Y-77489867D01*
X250193583Y-77489869D01*
X250193581Y-77489869D01*
X250193580Y-77489870D01*
X250162924Y-77502568D01*
X250098026Y-77529449D01*
X250028557Y-77536917D01*
X249966078Y-77505641D01*
X249962894Y-77502568D01*
X245199864Y-72739537D01*
X245199863Y-72739536D01*
X245199862Y-72739535D01*
X245162750Y-72718108D01*
X245125640Y-72696682D01*
X245084246Y-72685591D01*
X245042853Y-72674500D01*
X245042852Y-72674500D01*
X231074830Y-72674500D01*
X231007791Y-72654815D01*
X230987320Y-72635977D01*
X230986267Y-72637031D01*
X230868717Y-72519481D01*
X230868709Y-72519475D01*
X230731790Y-72440426D01*
X230731786Y-72440424D01*
X230731784Y-72440423D01*
X230579057Y-72399500D01*
X230420943Y-72399500D01*
X230268216Y-72440423D01*
X230268209Y-72440426D01*
X230131290Y-72519475D01*
X230131282Y-72519481D01*
X230019481Y-72631282D01*
X230019475Y-72631290D01*
X229940426Y-72768209D01*
X229940423Y-72768216D01*
X229899500Y-72920943D01*
X229899500Y-73079057D01*
X229908753Y-73113587D01*
X229940423Y-73231783D01*
X229940426Y-73231790D01*
X230019475Y-73368709D01*
X230019479Y-73368714D01*
X230019480Y-73368716D01*
X230131284Y-73480520D01*
X230131286Y-73480521D01*
X230131290Y-73480524D01*
X230268209Y-73559573D01*
X230268216Y-73559577D01*
X230420943Y-73600500D01*
X230420945Y-73600500D01*
X230579055Y-73600500D01*
X230579057Y-73600500D01*
X230731784Y-73559577D01*
X230868716Y-73480520D01*
X230980520Y-73368716D01*
X230980520Y-73368715D01*
X230986267Y-73362969D01*
X230988512Y-73365214D01*
X231032855Y-73332821D01*
X231074830Y-73325500D01*
X244813811Y-73325500D01*
X244880850Y-73345185D01*
X244901492Y-73361819D01*
X249502568Y-77962894D01*
X249536053Y-78024217D01*
X249531069Y-78093909D01*
X249529449Y-78098026D01*
X249489869Y-78193583D01*
X249489867Y-78193587D01*
X249449500Y-78396530D01*
X249449500Y-78603469D01*
X249489868Y-78806412D01*
X249489870Y-78806420D01*
X249569059Y-78997599D01*
X249569059Y-78997600D01*
X249675974Y-79157610D01*
X249696852Y-79224287D01*
X249678367Y-79291667D01*
X249626388Y-79338357D01*
X249572872Y-79350500D01*
X246499999Y-79350500D01*
X246432960Y-79330815D01*
X246412318Y-79314181D01*
X242837674Y-75739537D01*
X242837672Y-75739535D01*
X242800560Y-75718108D01*
X242763450Y-75696682D01*
X242722056Y-75685591D01*
X242680663Y-75674500D01*
X242680662Y-75674500D01*
X233074830Y-75674500D01*
X233007791Y-75654815D01*
X232987320Y-75635977D01*
X232986267Y-75637031D01*
X232868717Y-75519481D01*
X232868709Y-75519475D01*
X232731790Y-75440426D01*
X232731786Y-75440424D01*
X232731784Y-75440423D01*
X232579057Y-75399500D01*
X232420943Y-75399500D01*
X232268216Y-75440423D01*
X232268209Y-75440426D01*
X232131290Y-75519475D01*
X232131282Y-75519481D01*
X232019481Y-75631282D01*
X232019475Y-75631290D01*
X231940426Y-75768209D01*
X231940423Y-75768216D01*
X231899500Y-75920943D01*
X231899500Y-76079057D01*
X231937035Y-76219137D01*
X231940423Y-76231783D01*
X231940426Y-76231790D01*
X232019475Y-76368709D01*
X232019479Y-76368714D01*
X232019480Y-76368716D01*
X232131284Y-76480520D01*
X232131286Y-76480521D01*
X232131290Y-76480524D01*
X232198765Y-76519480D01*
X232268216Y-76559577D01*
X232420943Y-76600500D01*
X232420945Y-76600500D01*
X232579055Y-76600500D01*
X232579057Y-76600500D01*
X232731784Y-76559577D01*
X232868716Y-76480520D01*
X232980520Y-76368716D01*
X232980520Y-76368715D01*
X232986267Y-76362969D01*
X232988512Y-76365214D01*
X233032855Y-76332821D01*
X233074830Y-76325500D01*
X242451621Y-76325500D01*
X242518660Y-76345185D01*
X242539302Y-76361819D01*
X243640302Y-77462819D01*
X243673787Y-77524142D01*
X243668803Y-77593834D01*
X243626931Y-77649767D01*
X243561467Y-77674184D01*
X243552621Y-77674500D01*
X229474098Y-77674500D01*
X229407059Y-77654815D01*
X229361304Y-77602011D01*
X229351360Y-77532853D01*
X229380385Y-77469297D01*
X229386417Y-77462819D01*
X229408813Y-77440423D01*
X229480520Y-77368716D01*
X229559577Y-77231784D01*
X229600500Y-77079057D01*
X229600500Y-76920943D01*
X229559577Y-76768216D01*
X229559573Y-76768209D01*
X229480524Y-76631290D01*
X229480518Y-76631282D01*
X229436917Y-76587681D01*
X229403432Y-76526358D01*
X229408416Y-76456666D01*
X229436917Y-76412319D01*
X229493173Y-76356063D01*
X229572230Y-76219131D01*
X229613153Y-76066404D01*
X229613153Y-75908290D01*
X229572230Y-75755563D01*
X229572226Y-75755556D01*
X229493177Y-75618637D01*
X229493171Y-75618629D01*
X229381370Y-75506828D01*
X229381362Y-75506822D01*
X229244443Y-75427773D01*
X229244439Y-75427771D01*
X229244437Y-75427770D01*
X229091710Y-75386847D01*
X228933596Y-75386847D01*
X228925469Y-75386847D01*
X228925469Y-75383681D01*
X228871146Y-75375193D01*
X228836349Y-75350717D01*
X223495879Y-70010247D01*
X249449500Y-70010247D01*
X249449500Y-71749752D01*
X249461131Y-71808229D01*
X249461132Y-71808230D01*
X249505447Y-71874552D01*
X249571769Y-71918867D01*
X249571770Y-71918868D01*
X249630247Y-71930499D01*
X249630250Y-71930500D01*
X249630252Y-71930500D01*
X251369750Y-71930500D01*
X251369751Y-71930499D01*
X251384568Y-71927552D01*
X251428229Y-71918868D01*
X251428229Y-71918867D01*
X251428231Y-71918867D01*
X251494552Y-71874552D01*
X251538867Y-71808231D01*
X251538867Y-71808229D01*
X251538868Y-71808229D01*
X251550499Y-71749752D01*
X251550500Y-71749750D01*
X251550500Y-70010249D01*
X251550499Y-70010247D01*
X251538868Y-69951770D01*
X251538867Y-69951769D01*
X251494552Y-69885447D01*
X251428230Y-69841132D01*
X251428229Y-69841131D01*
X251369752Y-69829500D01*
X251369748Y-69829500D01*
X249630252Y-69829500D01*
X249630247Y-69829500D01*
X249571770Y-69841131D01*
X249571769Y-69841132D01*
X249505447Y-69885447D01*
X249461132Y-69951769D01*
X249461131Y-69951770D01*
X249449500Y-70010247D01*
X223495879Y-70010247D01*
X220486129Y-67000497D01*
X220406575Y-66920943D01*
X221899500Y-66920943D01*
X221899500Y-67079056D01*
X221940423Y-67231783D01*
X221940426Y-67231790D01*
X222019475Y-67368709D01*
X222019479Y-67368714D01*
X222019480Y-67368716D01*
X222131284Y-67480520D01*
X222131286Y-67480521D01*
X222131290Y-67480524D01*
X222268209Y-67559573D01*
X222268216Y-67559577D01*
X222420943Y-67600500D01*
X222420945Y-67600500D01*
X222579055Y-67600500D01*
X222579057Y-67600500D01*
X222731784Y-67559577D01*
X222868716Y-67480520D01*
X222980520Y-67368716D01*
X222980520Y-67368715D01*
X222986267Y-67362969D01*
X222988512Y-67365214D01*
X223032855Y-67332821D01*
X223074830Y-67325500D01*
X226925170Y-67325500D01*
X226992209Y-67345185D01*
X227012679Y-67364022D01*
X227013733Y-67362969D01*
X227019480Y-67368716D01*
X227131284Y-67480520D01*
X227131286Y-67480521D01*
X227131290Y-67480524D01*
X227268209Y-67559573D01*
X227268216Y-67559577D01*
X227420943Y-67600500D01*
X227420945Y-67600500D01*
X227579055Y-67600500D01*
X227579057Y-67600500D01*
X227731784Y-67559577D01*
X227868716Y-67480520D01*
X227980520Y-67368716D01*
X227980520Y-67368715D01*
X227986267Y-67362969D01*
X227987495Y-67364197D01*
X228007524Y-67351325D01*
X228032855Y-67332821D01*
X228037609Y-67331991D01*
X228039895Y-67330523D01*
X228074830Y-67325500D01*
X228313811Y-67325500D01*
X228380850Y-67345185D01*
X228401492Y-67361819D01*
X229863370Y-68823697D01*
X229896855Y-68885020D01*
X229898017Y-68912816D01*
X229899500Y-68912816D01*
X229899500Y-69079056D01*
X229940423Y-69231783D01*
X229940426Y-69231790D01*
X230019475Y-69368709D01*
X230019479Y-69368714D01*
X230019480Y-69368716D01*
X230131284Y-69480520D01*
X230131286Y-69480521D01*
X230131290Y-69480524D01*
X230268209Y-69559573D01*
X230268216Y-69559577D01*
X230420943Y-69600500D01*
X230420945Y-69600500D01*
X230579055Y-69600500D01*
X230579057Y-69600500D01*
X230731784Y-69559577D01*
X230868716Y-69480520D01*
X230980520Y-69368716D01*
X231059577Y-69231784D01*
X231100500Y-69079057D01*
X231100500Y-68920943D01*
X231059577Y-68768216D01*
X231059573Y-68768209D01*
X230980524Y-68631290D01*
X230980518Y-68631282D01*
X230868717Y-68519481D01*
X230868709Y-68519475D01*
X230731790Y-68440426D01*
X230731786Y-68440424D01*
X230731784Y-68440423D01*
X230579057Y-68399500D01*
X230420943Y-68399500D01*
X230412816Y-68399500D01*
X230412816Y-68396332D01*
X230358504Y-68387851D01*
X230323697Y-68363370D01*
X228699864Y-66739537D01*
X228699862Y-66739535D01*
X228662750Y-66718108D01*
X228625640Y-66696682D01*
X228584246Y-66685591D01*
X228542853Y-66674500D01*
X228542852Y-66674500D01*
X228074830Y-66674500D01*
X228007791Y-66654815D01*
X227987320Y-66635977D01*
X227986267Y-66637031D01*
X227868717Y-66519481D01*
X227868709Y-66519475D01*
X227731790Y-66440426D01*
X227731786Y-66440424D01*
X227731784Y-66440423D01*
X227579057Y-66399500D01*
X227420943Y-66399500D01*
X227268216Y-66440423D01*
X227268209Y-66440426D01*
X227131290Y-66519475D01*
X227131282Y-66519481D01*
X227013733Y-66637031D01*
X227011487Y-66634785D01*
X226967145Y-66667179D01*
X226925170Y-66674500D01*
X223074830Y-66674500D01*
X223007791Y-66654815D01*
X222987320Y-66635977D01*
X222986267Y-66637031D01*
X222868717Y-66519481D01*
X222868709Y-66519475D01*
X222731790Y-66440426D01*
X222731786Y-66440424D01*
X222731784Y-66440423D01*
X222579057Y-66399500D01*
X222420943Y-66399500D01*
X222268216Y-66440423D01*
X222268209Y-66440426D01*
X222131290Y-66519475D01*
X222131282Y-66519481D01*
X222019481Y-66631282D01*
X222019475Y-66631290D01*
X221940426Y-66768209D01*
X221940423Y-66768216D01*
X221899500Y-66920943D01*
X220406575Y-66920943D01*
X215777474Y-62291841D01*
X215695880Y-62210247D01*
X249449500Y-62210247D01*
X249449500Y-63949752D01*
X249461131Y-64008229D01*
X249461132Y-64008230D01*
X249505447Y-64074552D01*
X249571769Y-64118867D01*
X249571770Y-64118868D01*
X249630247Y-64130499D01*
X249630250Y-64130500D01*
X249630252Y-64130500D01*
X251369750Y-64130500D01*
X251369751Y-64130499D01*
X251384568Y-64127552D01*
X251428229Y-64118868D01*
X251428229Y-64118867D01*
X251428231Y-64118867D01*
X251494552Y-64074552D01*
X251538867Y-64008231D01*
X251538867Y-64008229D01*
X251538868Y-64008229D01*
X251550499Y-63949752D01*
X251550500Y-63949750D01*
X251550500Y-62210249D01*
X251550499Y-62210247D01*
X251538868Y-62151770D01*
X251538867Y-62151769D01*
X251494552Y-62085447D01*
X251428230Y-62041132D01*
X251428229Y-62041131D01*
X251369752Y-62029500D01*
X251369748Y-62029500D01*
X249630252Y-62029500D01*
X249630247Y-62029500D01*
X249571770Y-62041131D01*
X249571769Y-62041132D01*
X249505447Y-62085447D01*
X249461132Y-62151769D01*
X249461131Y-62151770D01*
X249449500Y-62210247D01*
X215695880Y-62210247D01*
X213922163Y-60436530D01*
X249449500Y-60436530D01*
X249449500Y-60643469D01*
X249489868Y-60846412D01*
X249489870Y-60846420D01*
X249569058Y-61037596D01*
X249684024Y-61209657D01*
X249830342Y-61355975D01*
X249830345Y-61355977D01*
X250002402Y-61470941D01*
X250193580Y-61550130D01*
X250396530Y-61590499D01*
X250396534Y-61590500D01*
X250396535Y-61590500D01*
X250603466Y-61590500D01*
X250603467Y-61590499D01*
X250806420Y-61550130D01*
X250997598Y-61470941D01*
X251169655Y-61355977D01*
X251315977Y-61209655D01*
X251430941Y-61037598D01*
X251510130Y-60846420D01*
X251550500Y-60643465D01*
X251550500Y-60436535D01*
X251510130Y-60233580D01*
X251430941Y-60042402D01*
X251315977Y-59870345D01*
X251315975Y-59870342D01*
X251169657Y-59724024D01*
X251083626Y-59666541D01*
X250997598Y-59609059D01*
X250806420Y-59529870D01*
X250806412Y-59529868D01*
X250603469Y-59489500D01*
X250603465Y-59489500D01*
X250396535Y-59489500D01*
X250396530Y-59489500D01*
X250193587Y-59529868D01*
X250193579Y-59529870D01*
X250002403Y-59609058D01*
X249830342Y-59724024D01*
X249684024Y-59870342D01*
X249569058Y-60042403D01*
X249489870Y-60233579D01*
X249489868Y-60233587D01*
X249449500Y-60436530D01*
X213922163Y-60436530D01*
X208839386Y-55353753D01*
X249150000Y-55353753D01*
X249150000Y-55566246D01*
X249183242Y-55776127D01*
X249183242Y-55776130D01*
X249248904Y-55978217D01*
X249345375Y-56167550D01*
X249384728Y-56221716D01*
X250017037Y-55589408D01*
X250034075Y-55652993D01*
X250099901Y-55767007D01*
X250192993Y-55860099D01*
X250307007Y-55925925D01*
X250370590Y-55942962D01*
X249738282Y-56575269D01*
X249738282Y-56575270D01*
X249792449Y-56614624D01*
X249981782Y-56711095D01*
X250157973Y-56768343D01*
X250215648Y-56807780D01*
X250242847Y-56872139D01*
X250230932Y-56940985D01*
X250183688Y-56992461D01*
X250167108Y-57000835D01*
X250002403Y-57069057D01*
X249830342Y-57184024D01*
X249684024Y-57330342D01*
X249569058Y-57502403D01*
X249489870Y-57693579D01*
X249489868Y-57693587D01*
X249449500Y-57896530D01*
X249449500Y-58103469D01*
X249489868Y-58306412D01*
X249489870Y-58306420D01*
X249569058Y-58497596D01*
X249684024Y-58669657D01*
X249830342Y-58815975D01*
X249830345Y-58815977D01*
X250002402Y-58930941D01*
X250193580Y-59010130D01*
X250396530Y-59050499D01*
X250396534Y-59050500D01*
X250396535Y-59050500D01*
X250603466Y-59050500D01*
X250603467Y-59050499D01*
X250806420Y-59010130D01*
X250997598Y-58930941D01*
X251169655Y-58815977D01*
X251315977Y-58669655D01*
X251430941Y-58497598D01*
X251510130Y-58306420D01*
X251550500Y-58103465D01*
X251550500Y-57896535D01*
X251510130Y-57693580D01*
X251430941Y-57502402D01*
X251315977Y-57330345D01*
X251315975Y-57330342D01*
X251169657Y-57184024D01*
X251083626Y-57126541D01*
X250997598Y-57069059D01*
X250997593Y-57069057D01*
X250935891Y-57043499D01*
X250832890Y-57000834D01*
X250778488Y-56956994D01*
X250756423Y-56890700D01*
X250773702Y-56823001D01*
X250824839Y-56775390D01*
X250842026Y-56768343D01*
X251018217Y-56711095D01*
X251207554Y-56614622D01*
X251261716Y-56575270D01*
X251261717Y-56575270D01*
X250629408Y-55942962D01*
X250692993Y-55925925D01*
X250807007Y-55860099D01*
X250900099Y-55767007D01*
X250965925Y-55652993D01*
X250982962Y-55589408D01*
X251615270Y-56221717D01*
X251615270Y-56221716D01*
X251654622Y-56167554D01*
X251751095Y-55978217D01*
X251816757Y-55776130D01*
X251816757Y-55776127D01*
X251850000Y-55566246D01*
X251850000Y-55353753D01*
X251816757Y-55143872D01*
X251816757Y-55143869D01*
X251751095Y-54941782D01*
X251654624Y-54752449D01*
X251615270Y-54698282D01*
X251615269Y-54698282D01*
X250982962Y-55330590D01*
X250965925Y-55267007D01*
X250900099Y-55152993D01*
X250807007Y-55059901D01*
X250692993Y-54994075D01*
X250629409Y-54977037D01*
X251261716Y-54344728D01*
X251207550Y-54305375D01*
X251018217Y-54208904D01*
X250816129Y-54143242D01*
X250606246Y-54110000D01*
X250393754Y-54110000D01*
X250183872Y-54143242D01*
X250183869Y-54143242D01*
X249981782Y-54208904D01*
X249792439Y-54305380D01*
X249738282Y-54344727D01*
X249738282Y-54344728D01*
X250370591Y-54977037D01*
X250307007Y-54994075D01*
X250192993Y-55059901D01*
X250099901Y-55152993D01*
X250034075Y-55267007D01*
X250017037Y-55330591D01*
X249384728Y-54698282D01*
X249384727Y-54698282D01*
X249345380Y-54752439D01*
X249248904Y-54941782D01*
X249183242Y-55143869D01*
X249183242Y-55143872D01*
X249150000Y-55353753D01*
X208839386Y-55353753D01*
X202499170Y-49013537D01*
X202499169Y-49013536D01*
X202499168Y-49013535D01*
X202462056Y-48992108D01*
X202424946Y-48970682D01*
X202383552Y-48959591D01*
X202342159Y-48948500D01*
X202342158Y-48948500D01*
X199991209Y-48948500D01*
X199924170Y-48928815D01*
X199878415Y-48876011D01*
X199867586Y-48814843D01*
X199868476Y-48803443D01*
X199879299Y-48763055D01*
X199879299Y-48677349D01*
X199879298Y-48677345D01*
X199879298Y-47128628D01*
X199887966Y-47099105D01*
X199894550Y-47069047D01*
X199897960Y-47065069D01*
X199898983Y-47061589D01*
X199914469Y-47042399D01*
X202414500Y-47042399D01*
X202414500Y-47167601D01*
X202446905Y-47288536D01*
X202509505Y-47396964D01*
X202598036Y-47485495D01*
X202706464Y-47548095D01*
X202827399Y-47580500D01*
X202827401Y-47580500D01*
X202952599Y-47580500D01*
X202952601Y-47580500D01*
X203073536Y-47548095D01*
X203181964Y-47485495D01*
X203256140Y-47411319D01*
X203317463Y-47377834D01*
X203343821Y-47375000D01*
X204020000Y-47375000D01*
X204020000Y-47875000D01*
X203320000Y-47875000D01*
X203320000Y-48273495D01*
X203358427Y-48466681D01*
X203358430Y-48466693D01*
X203433807Y-48648671D01*
X203433814Y-48648684D01*
X203543248Y-48812462D01*
X203543251Y-48812466D01*
X203682533Y-48951748D01*
X203682537Y-48951751D01*
X203846315Y-49061185D01*
X203846328Y-49061192D01*
X204028308Y-49136569D01*
X204070000Y-49144862D01*
X204070000Y-48341988D01*
X204079940Y-48359205D01*
X204135795Y-48415060D01*
X204204204Y-48454556D01*
X204280504Y-48475000D01*
X204359496Y-48475000D01*
X204435796Y-48454556D01*
X204504205Y-48415060D01*
X204560060Y-48359205D01*
X204570000Y-48341988D01*
X204570000Y-49144862D01*
X204611690Y-49136569D01*
X204611692Y-49136569D01*
X204793671Y-49061192D01*
X204793684Y-49061185D01*
X204957462Y-48951751D01*
X204957466Y-48951748D01*
X205096748Y-48812466D01*
X205096751Y-48812462D01*
X205206185Y-48648684D01*
X205206192Y-48648671D01*
X205281569Y-48466693D01*
X205281572Y-48466681D01*
X205319999Y-48273495D01*
X205320000Y-48273492D01*
X205320000Y-47875000D01*
X204620000Y-47875000D01*
X204620000Y-47375000D01*
X205320000Y-47375000D01*
X205320000Y-46976508D01*
X205319999Y-46976504D01*
X205281572Y-46783318D01*
X205281569Y-46783306D01*
X205206192Y-46601328D01*
X205206185Y-46601315D01*
X205096751Y-46437537D01*
X205096748Y-46437533D01*
X204957466Y-46298251D01*
X204957462Y-46298248D01*
X204793684Y-46188814D01*
X204793671Y-46188807D01*
X204611691Y-46113429D01*
X204611683Y-46113427D01*
X204570000Y-46105135D01*
X204570000Y-46908011D01*
X204560060Y-46890795D01*
X204504205Y-46834940D01*
X204435796Y-46795444D01*
X204359496Y-46775000D01*
X204280504Y-46775000D01*
X204204204Y-46795444D01*
X204135795Y-46834940D01*
X204079940Y-46890795D01*
X204070000Y-46908011D01*
X204070000Y-46105136D01*
X204069999Y-46105135D01*
X204028316Y-46113427D01*
X204028308Y-46113429D01*
X203846328Y-46188807D01*
X203846315Y-46188814D01*
X203682537Y-46298248D01*
X203682533Y-46298251D01*
X203543251Y-46437533D01*
X203543248Y-46437537D01*
X203433814Y-46601315D01*
X203433809Y-46601324D01*
X203394985Y-46695056D01*
X203351144Y-46749459D01*
X203284850Y-46771524D01*
X203217151Y-46754245D01*
X203192743Y-46735284D01*
X203181965Y-46724506D01*
X203181964Y-46724505D01*
X203073536Y-46661905D01*
X203073537Y-46661905D01*
X203033224Y-46651103D01*
X202952601Y-46629500D01*
X202827399Y-46629500D01*
X202746775Y-46651103D01*
X202706463Y-46661905D01*
X202598037Y-46724504D01*
X202598034Y-46724506D01*
X202509506Y-46813034D01*
X202509504Y-46813037D01*
X202446905Y-46921463D01*
X202436792Y-46959204D01*
X202414500Y-47042399D01*
X199914469Y-47042399D01*
X199915741Y-47040823D01*
X199921921Y-47034660D01*
X199922514Y-47034318D01*
X200034318Y-46922514D01*
X200113375Y-46785582D01*
X200154298Y-46632855D01*
X200154298Y-46474741D01*
X200113375Y-46322014D01*
X200036469Y-46188807D01*
X200034322Y-46185088D01*
X200034316Y-46185080D01*
X199922515Y-46073279D01*
X199922507Y-46073273D01*
X199785588Y-45994224D01*
X199785584Y-45994222D01*
X199785582Y-45994221D01*
X199632855Y-45953298D01*
X199474741Y-45953298D01*
X199322014Y-45994221D01*
X199322007Y-45994224D01*
X199185088Y-46073273D01*
X199185080Y-46073279D01*
X199073279Y-46185080D01*
X199073273Y-46185088D01*
X198994224Y-46322007D01*
X198994221Y-46322014D01*
X198953298Y-46474741D01*
X198953298Y-46632855D01*
X198993615Y-46783318D01*
X198994221Y-46785581D01*
X198994224Y-46785588D01*
X199073273Y-46922507D01*
X199073279Y-46922515D01*
X199190829Y-47040065D01*
X199188583Y-47042310D01*
X199220977Y-47086653D01*
X199228298Y-47128628D01*
X199228298Y-48534013D01*
X199208613Y-48601052D01*
X199191979Y-48621694D01*
X198901492Y-48912181D01*
X198874564Y-48926884D01*
X198848746Y-48943477D01*
X198842545Y-48944368D01*
X198840169Y-48945666D01*
X198813811Y-48948500D01*
X198749745Y-48948500D01*
X198749729Y-48948499D01*
X198742133Y-48948499D01*
X198656427Y-48948499D01*
X198601236Y-48963287D01*
X198573640Y-48970682D01*
X198556349Y-48980666D01*
X198556347Y-48980667D01*
X198499421Y-49013533D01*
X198499415Y-49013537D01*
X198013537Y-49499415D01*
X198013533Y-49499421D01*
X197970682Y-49573640D01*
X197968620Y-49581337D01*
X197948500Y-49656427D01*
X184000500Y-49656427D01*
X184000500Y-46976504D01*
X194680000Y-46976504D01*
X194680000Y-47375000D01*
X195380000Y-47375000D01*
X195380000Y-47875000D01*
X194680000Y-47875000D01*
X194680000Y-48273495D01*
X194718427Y-48466681D01*
X194718430Y-48466693D01*
X194793807Y-48648671D01*
X194793814Y-48648684D01*
X194903248Y-48812462D01*
X194903251Y-48812466D01*
X195042533Y-48951748D01*
X195042537Y-48951751D01*
X195206315Y-49061185D01*
X195206328Y-49061192D01*
X195388308Y-49136569D01*
X195430000Y-49144862D01*
X195430000Y-48341988D01*
X195439940Y-48359205D01*
X195495795Y-48415060D01*
X195564204Y-48454556D01*
X195640504Y-48475000D01*
X195719496Y-48475000D01*
X195795796Y-48454556D01*
X195864205Y-48415060D01*
X195920060Y-48359205D01*
X195930000Y-48341988D01*
X195930000Y-49144862D01*
X195971690Y-49136569D01*
X195971692Y-49136569D01*
X196153671Y-49061192D01*
X196153684Y-49061185D01*
X196317462Y-48951751D01*
X196317466Y-48951748D01*
X196456748Y-48812466D01*
X196456751Y-48812462D01*
X196566185Y-48648684D01*
X196566192Y-48648671D01*
X196641569Y-48466693D01*
X196641572Y-48466681D01*
X196679999Y-48273495D01*
X196680000Y-48273492D01*
X196680000Y-47875000D01*
X195980000Y-47875000D01*
X195980000Y-47375000D01*
X196656179Y-47375000D01*
X196723218Y-47394685D01*
X196743860Y-47411319D01*
X196818036Y-47485495D01*
X196926464Y-47548095D01*
X197047399Y-47580500D01*
X197047401Y-47580500D01*
X197172599Y-47580500D01*
X197172601Y-47580500D01*
X197293536Y-47548095D01*
X197401964Y-47485495D01*
X197490495Y-47396964D01*
X197553095Y-47288536D01*
X197585500Y-47167601D01*
X197585500Y-47042399D01*
X197553095Y-46921464D01*
X197490495Y-46813036D01*
X197401964Y-46724505D01*
X197293536Y-46661905D01*
X197293537Y-46661905D01*
X197253224Y-46651103D01*
X197172601Y-46629500D01*
X197047399Y-46629500D01*
X196966775Y-46651103D01*
X196926463Y-46661905D01*
X196818037Y-46724504D01*
X196807254Y-46735287D01*
X196745929Y-46768770D01*
X196676238Y-46763783D01*
X196620306Y-46721910D01*
X196605013Y-46695055D01*
X196566187Y-46601319D01*
X196566185Y-46601315D01*
X196456751Y-46437537D01*
X196456748Y-46437533D01*
X196317466Y-46298251D01*
X196317462Y-46298248D01*
X196153684Y-46188814D01*
X196153671Y-46188807D01*
X195971691Y-46113429D01*
X195971683Y-46113427D01*
X195930000Y-46105135D01*
X195930000Y-46908011D01*
X195920060Y-46890795D01*
X195864205Y-46834940D01*
X195795796Y-46795444D01*
X195719496Y-46775000D01*
X195640504Y-46775000D01*
X195564204Y-46795444D01*
X195495795Y-46834940D01*
X195439940Y-46890795D01*
X195430000Y-46908011D01*
X195430000Y-46105136D01*
X195429999Y-46105135D01*
X195388316Y-46113427D01*
X195388308Y-46113429D01*
X195206328Y-46188807D01*
X195206315Y-46188814D01*
X195042537Y-46298248D01*
X195042533Y-46298251D01*
X194903251Y-46437533D01*
X194903248Y-46437537D01*
X194793814Y-46601315D01*
X194793807Y-46601328D01*
X194718430Y-46783306D01*
X194718427Y-46783318D01*
X194680000Y-46976504D01*
X184000500Y-46976504D01*
X184000500Y-43105247D01*
X186399500Y-43105247D01*
X186399500Y-44844752D01*
X186411131Y-44903229D01*
X186411132Y-44903230D01*
X186455447Y-44969552D01*
X186521769Y-45013867D01*
X186521770Y-45013868D01*
X186580247Y-45025499D01*
X186580250Y-45025500D01*
X186580252Y-45025500D01*
X188319750Y-45025500D01*
X188319751Y-45025499D01*
X188334568Y-45022552D01*
X188378229Y-45013868D01*
X188378229Y-45013867D01*
X188378231Y-45013867D01*
X188444552Y-44969552D01*
X188488867Y-44903231D01*
X188488867Y-44903229D01*
X188488868Y-44903229D01*
X188500499Y-44844752D01*
X188500500Y-44844750D01*
X188500500Y-44541048D01*
X188520185Y-44474009D01*
X188572989Y-44428254D01*
X188642147Y-44418310D01*
X188705703Y-44447335D01*
X188735938Y-44489264D01*
X188736694Y-44488879D01*
X188835375Y-44682550D01*
X188874728Y-44736716D01*
X189507037Y-44104408D01*
X189524075Y-44167993D01*
X189589901Y-44282007D01*
X189682993Y-44375099D01*
X189797007Y-44440925D01*
X189860590Y-44457962D01*
X189228282Y-45090269D01*
X189228282Y-45090270D01*
X189282449Y-45129624D01*
X189471782Y-45226095D01*
X189673870Y-45291757D01*
X189883754Y-45325000D01*
X190096246Y-45325000D01*
X190306127Y-45291757D01*
X190306130Y-45291757D01*
X190508217Y-45226095D01*
X190697554Y-45129622D01*
X190751716Y-45090270D01*
X190751717Y-45090270D01*
X190119408Y-44457962D01*
X190182993Y-44440925D01*
X190297007Y-44375099D01*
X190390099Y-44282007D01*
X190455925Y-44167993D01*
X190472962Y-44104408D01*
X191105270Y-44736717D01*
X191105270Y-44736716D01*
X191144622Y-44682554D01*
X191241095Y-44493217D01*
X191306757Y-44291130D01*
X191306757Y-44291127D01*
X191340000Y-44081246D01*
X191340000Y-43868753D01*
X191306757Y-43658872D01*
X191306757Y-43658870D01*
X191245489Y-43470305D01*
X191245488Y-43470303D01*
X191241096Y-43456784D01*
X191144624Y-43267449D01*
X191105270Y-43213282D01*
X191105269Y-43213282D01*
X190472962Y-43845590D01*
X190455925Y-43782007D01*
X190390099Y-43667993D01*
X190297007Y-43574901D01*
X190182993Y-43509075D01*
X190119409Y-43492037D01*
X190751716Y-42859728D01*
X190697550Y-42820375D01*
X190508217Y-42723904D01*
X190306129Y-42658242D01*
X190096246Y-42625000D01*
X189883754Y-42625000D01*
X189673872Y-42658242D01*
X189673869Y-42658242D01*
X189471782Y-42723904D01*
X189282439Y-42820380D01*
X189228282Y-42859727D01*
X189228282Y-42859728D01*
X189860591Y-43492037D01*
X189797007Y-43509075D01*
X189682993Y-43574901D01*
X189589901Y-43667993D01*
X189524075Y-43782007D01*
X189507037Y-43845591D01*
X188874728Y-43213282D01*
X188874727Y-43213282D01*
X188835380Y-43267439D01*
X188736694Y-43461121D01*
X188735678Y-43460603D01*
X188695212Y-43510813D01*
X188628916Y-43532872D01*
X188561218Y-43515588D01*
X188513612Y-43464447D01*
X188500500Y-43408951D01*
X188500500Y-43105249D01*
X188500499Y-43105247D01*
X188488868Y-43046770D01*
X188488867Y-43046769D01*
X188444552Y-42980447D01*
X188378230Y-42936132D01*
X188378229Y-42936131D01*
X188319752Y-42924500D01*
X188319748Y-42924500D01*
X186580252Y-42924500D01*
X186580247Y-42924500D01*
X186521770Y-42936131D01*
X186521769Y-42936132D01*
X186455447Y-42980447D01*
X186411132Y-43046769D01*
X186411131Y-43046770D01*
X186399500Y-43105247D01*
X184000500Y-43105247D01*
X184000500Y-42124500D01*
X184020185Y-42057461D01*
X184072989Y-42011706D01*
X184124500Y-42000500D01*
X195004546Y-42000500D01*
X195071585Y-42020185D01*
G37*
%TD.AperFunction*%
%TD*%
M02*
