M48
; DRILL file {KiCad 9.0.4} date 2026-09-16T21:19:03+0530
; FORMAT={-:-/ absolute / metric / decimal}
; #@! TF.CreationDate,2026-09-16T21:19:03+05:30
; #@! TF.GenerationSoftware,Kicad,Pcbnew,9.0.4
; #@! TF.FileFunction,Plated,1,2,PTH
FMAT,2
METRIC
; #@! TA.AperFunction,Plated,PTH,ViaDrill
T1C0.400
; #@! TA.AperFunction,Plated,PTH,ComponentDrill
T2C0.600
; #@! TA.AperFunction,Plated,PTH,ComponentDrill
T3C1.000
%
G90
G05
T1
X189.5Y-69.5
X190.95Y-87.55
X191.0Y-93.0
X191.5Y-95.0
X193.0Y-44.0
X194.0Y-80.0
X198.5Y-52.5
X199.0Y-50.0
X199.554Y-46.554
X202.399Y-52.101
X205.0Y-50.0
X213.0Y-81.0
X215.5Y-70.0
X216.487Y-82.487
X216.5Y-83.5
X218.0Y-89.0
X219.5Y-89.0
X221.0Y-81.0
X222.0Y-78.0
X222.5Y-67.0
X222.5Y-82.5
X223.002Y-85.511
X223.07Y-75.25
X224.0Y-81.0
X226.75Y-82.25
X227.5Y-67.0
X228.013Y-82.487
X229.0Y-77.0
X229.013Y-75.987
X230.5Y-69.0
X230.5Y-73.0
X232.5Y-76.0
X233.5Y-82.5
X234.0Y-75.0
X234.0Y-91.5
T3
X187.45Y-43.975
X189.99Y-43.975
X207.96Y-98.5
X210.5Y-98.5
X213.04Y-98.5
X215.58Y-98.5
X218.12Y-98.5
X220.66Y-98.5
X221.46Y-44.5
X224.0Y-44.5
X226.54Y-44.5
X227.88Y-98.5
X229.08Y-44.5
X230.42Y-98.5
X232.96Y-98.5
X235.5Y-98.5
X238.04Y-98.5
X240.58Y-98.5
X243.12Y-98.5
X245.66Y-98.5
X248.2Y-98.5
X250.5Y-55.46
X250.5Y-58.0
X250.5Y-60.54
X250.5Y-63.08
X250.5Y-70.88
X250.5Y-73.42
X250.5Y-75.96
X250.5Y-78.5
X250.5Y-81.04
X250.74Y-98.5
T2
G00X195.68Y-43.825
M15
G01X195.68Y-43.025
M16
G05
G00X195.68Y-48.175
M15
G01X195.68Y-47.075
M16
G05
G00X204.32Y-43.825
M15
G01X204.32Y-43.025
M16
G05
G00X204.32Y-48.175
M15
G01X204.32Y-47.075
M16
G05
M30
